DemiBold-clean.ufo
<glyph name="exclam" format="1">
  <advance width="260"/>
  <unicode hex="0021"/>
  <outline>
    <contour>
      <point x="128.539" y="80.9658" type="curve" smooth="yes"/>
      <point x="159.333" y="80.9658"/>
      <point x="192.157" y="54.08"/>
      <point x="192.157" y="28.8565" type="curve" smooth="yes"/>
      <point x="192.157" y="3.58734"/>
      <point x="161.629" y="-22.9762"/>
      <point x="132.588" y="-22.9762" type="curve" smooth="yes"/>
      <point x="101.854" y="-22.9762"/>
      <point x="68.7635" y="4.26744"/>
      <point x="68.7635" y="29.5713" type="curve" smooth="yes"/>
      <point x="68.7635" y="54.6403"/>
      <point x="99.3817" y="80.9658"/>
    </contour>
    <contour>
      <point x="166" y="197" type="line" smooth="yes"/>
      <point x="166" y="168.662"/>
      <point x="153.725" y="154"/>
      <point x="130" y="154" type="curve" smooth="yes"/>
      <point x="106.275" y="154"/>
      <point x="94" y="168.662"/>
      <point x="94" y="197" type="curve" smooth="yes"/>
      <point x="94" y="616" type="line" smooth="yes"/>
      <point x="94" y="641.297"/>
      <point x="109.078" y="659.529"/>
      <point x="130" y="659.529" type="curve" smooth="yes"/>
      <point x="150.922" y="659.529"/>
      <point x="166" y="641.297"/>
      <point x="166" y="616" type="curve" smooth="yes"/>
    </contour>
  </outline>
</glyph>
<glyph name="ampersand" format="1">
  <advance width="534"/>
  <unicode hex="0026"/>
  <outline>
    <contour>
      <point x="357" y="86" type="curve"/>
      <point x="167" y="305" type="line"/>
      <point x="132.118" y="279.84"/>
      <point x="113" y="237.999"/>
      <point x="113" y="186.822" type="curve" smooth="yes"/>
      <point x="113" y="102.457"/>
      <point x="167.812" y="48"/>
      <point x="252.726" y="48" type="curve" smooth="yes"/>
      <point x="292.485" y="48"/>
      <point x="326.915" y="60.547"/>
    </contour>
    <contour>
      <point x="121" y="359" type="curve"/>
      <point x="84.2044" y="398.448"/>
      <point x="66" y="439.205"/>
      <point x="66" y="482.137" type="curve" smooth="yes"/>
      <point x="66" y="575.439"/>
      <point x="151.384" y="662"/>
      <point x="243.417" y="662" type="curve" smooth="yes"/>
      <point x="303.709" y="662"/>
      <point x="363.014" y="623.067"/>
      <point x="397.422" y="560.896" type="curve" smooth="yes"/>
      <point x="403.181" y="550.491"/>
      <point x="408.057" y="535.038"/>
      <point x="408.057" y="527.195" type="curve" smooth="yes"/>
      <point x="408.057" y="508.622"/>
      <point x="391.657" y="492.975"/>
      <point x="372.191" y="492.975" type="curve" smooth="yes"/>
      <point x="324.192" y="492.975"/>
      <point x="324.347" y="590"/>
      <point x="246.103" y="590" type="curve" smooth="yes"/>
      <point x="189.806" y="590"/>
      <point x="140" y="539.891"/>
      <point x="140" y="483.25" type="curve" smooth="yes"/>
      <point x="140" y="456.589"/>
      <point x="151.183" y="431.66"/>
      <point x="176" y="403" type="curve" smooth="yes"/>
      <point x="402" y="142" type="line"/>
      <point x="415.468" y="165.087"/>
      <point x="423" y="193.726"/>
      <point x="423" y="221.845" type="curve" smooth="yes"/>
      <point x="423" y="256.154"/>
      <point x="434.872" y="273"/>
      <point x="459.05" y="273" type="curve" smooth="yes"/>
      <point x="483.162" y="273"/>
      <point x="494" y="256.587"/>
      <point x="494" y="220.07" type="curve" smooth="yes"/>
      <point x="494" y="173.899"/>
      <point x="478.544" y="124.988"/>
      <point x="451" y="84" type="curve"/>
      <point x="466.001" y="67.5705"/>
      <point x="502.386" y="37.3367"/>
      <point x="502.386" y="11.4622" type="curve" smooth="yes"/>
      <point x="502.386" y="-6.28064"/>
      <point x="486.71" y="-22.3694"/>
      <point x="469.423" y="-22.3694" type="curve" smooth="yes"/>
      <point x="442.652" y="-22.3694"/>
      <point x="418.283" y="13.2264"/>
      <point x="403" y="31" type="curve"/>
      <point x="359.509" y="-5.81325"/>
      <point x="310.557" y="-24"/>
      <point x="254.96" y="-24" type="curve" smooth="yes"/>
      <point x="130.118" y="-24"/>
      <point x="41" y="64.0724"/>
      <point x="41" y="187.451" type="curve" smooth="yes"/>
      <point x="41" y="257.732"/>
      <point x="68.7305" y="317.196"/>
    </contour>
  </outline>
</glyph>
<glyph name="parenright" format="1">
  <advance width="271"/>
  <unicode hex="0029"/>
  <outline>
    <contour>
      <point x="48" y="15" type="line"/>
      <point x="132.079" y="15"/>
      <point x="126.02" y="38.0114"/>
      <point x="126.02" y="114.63" type="curve"/>
      <point x="126" y="503" type="line"/>
      <point x="126" y="528.417"/>
      <point x="132.5" y="603.655"/>
      <point x="100.683" y="616.994" type="curve" smooth="yes"/>
      <point x="88.384" y="622.15"/>
      <point x="63.2736" y="621.027"/>
      <point x="48" y="621" type="curve"/>
      <point x="48" y="693" type="line"/>
      <point x="103.968" y="693.02"/>
      <point x="144.873" y="680.478"/>
      <point x="165.961" y="656.83" type="curve" smooth="yes"/>
      <point x="188.998" y="630.999"/>
      <point x="198" y="587.776"/>
      <point x="198" y="503" type="curve" smooth="yes"/>
      <point x="198" y="133" type="line" smooth="yes"/>
      <point x="198" y="26.9115"/>
      <point x="172.187" y="-36.0211"/>
      <point x="122.507" y="-51.0573" type="curve" smooth="yes"/>
      <point x="101.322" y="-57.469"/>
      <point x="73.5384" y="-57"/>
      <point x="48" y="-57" type="curve"/>
    </contour>
  </outline>
</glyph>
<glyph name="asterisk" format="1">
  <advance width="415"/>
  <unicode hex="002A"/>
  <outline>
    <contour>
      <point x="207" y="330.471" type="curve" smooth="yes"/>
      <point x="159.874" y="330.471"/>
      <point x="171" y="400.561"/>
      <point x="171" y="428" type="curve"/>
      <point x="163.246" y="424.063"/>
      <point x="104.765" y="394"/>
      <point x="91.304" y="394" type="curve" smooth="yes"/>
      <point x="79.4625" y="394"/>
      <point x="63.4554" y="414.941"/>
      <point x="63.4554" y="430.433" type="curve" smooth="yes"/>
      <point x="63.4554" y="459.902"/>
      <point x="116.081" y="480.871"/>
      <point x="135" y="492" type="curve"/>
      <point x="112.785" y="504.488"/>
      <point x="64" y="520.497"/>
      <point x="64" y="555.222" type="curve" smooth="yes"/>
      <point x="64" y="573.041"/>
      <point x="78.5031" y="588"/>
      <point x="95.7782" y="588" type="curve" smooth="yes"/>
      <point x="117.299" y="588"/>
      <point x="156.203" y="561.403"/>
      <point x="171" y="554" type="curve"/>
      <point x="171" y="585.009"/>
      <point x="157.878" y="651"/>
      <point x="207" y="651" type="curve" smooth="yes"/>
      <point x="256.122" y="651"/>
      <point x="243" y="585.009"/>
      <point x="243" y="554" type="curve"/>
      <point x="250.754" y="557.937"/>
      <point x="309.235" y="588"/>
      <point x="323.411" y="588" type="curve" smooth="yes"/>
      <point x="335.903" y="588"/>
      <point x="351.214" y="568.998"/>
      <point x="351.214" y="553.497" type="curve" smooth="yes"/>
      <point x="351.214" y="522.704"/>
      <point x="300.344" y="503.217"/>
      <point x="280" y="492" type="curve"/>
      <point x="299.478" y="480.362"/>
      <point x="351" y="458.944"/>
      <point x="351" y="428.814" type="curve" smooth="yes"/>
      <point x="351" y="412.142"/>
      <point x="334.354" y="394"/>
      <point x="319.058" y="394" type="curve" smooth="yes"/>
      <point x="300.892" y="394"/>
      <point x="256.829" y="421.084"/>
      <point x="243" y="428" type="curve"/>
      <point x="243" y="400.561"/>
      <point x="254.126" y="330.471"/>
    </contour>
  </outline>
</glyph>
<glyph name="plus" format="1">
  <advance width="531"/>
  <unicode hex="002B"/>
  <outline>
    <contour>
      <point x="229" y="194" type="line"/>
      <point x="75" y="194" type="line" smooth="yes"/>
      <point x="48.3145" y="194"/>
      <point x="34" y="206.102"/>
      <point x="34" y="228.664" type="curve" smooth="yes"/>
      <point x="34" y="252.04"/>
      <point x="49.9999" y="267"/>
      <point x="75" y="267" type="curve" smooth="yes"/>
      <point x="229" y="267" type="line"/>
      <point x="229" y="440" type="line" smooth="yes"/>
      <point x="229" y="468.338"/>
      <point x="241.275" y="483"/>
      <point x="265" y="483" type="curve" smooth="yes"/>
      <point x="288.725" y="483"/>
      <point x="301" y="468.338"/>
      <point x="301" y="440" type="curve" smooth="yes"/>
      <point x="301" y="267" type="line"/>
      <point x="453" y="267" type="line" smooth="yes"/>
      <point x="481.458" y="267"/>
      <point x="497" y="254.769"/>
      <point x="497" y="232.375" type="curve" smooth="yes"/>
      <point x="497" y="209.424"/>
      <point x="479.315" y="194"/>
      <point x="453" y="194" type="curve" smooth="yes"/>
      <point x="301" y="194" type="line"/>
      <point x="301" y="20" type="line" smooth="yes"/>
      <point x="301" y="-7.70238"/>
      <point x="288.745" y="-22"/>
      <point x="265" y="-22" type="curve" smooth="yes"/>
      <point x="241.255" y="-22"/>
      <point x="229" y="-7.70238"/>
      <point x="229" y="20" type="curve" smooth="yes"/>
    </contour>
  </outline>
</glyph>
<glyph name="comma" format="1">
  <advance width="226"/>
  <unicode hex="002C"/>
  <outline>
    <contour>
      <point x="73.2773" y="-95" type="curve" smooth="yes"/>
      <point x="58.8185" y="-95"/>
      <point x="47" y="-78.0353"/>
      <point x="47" y="-57.2806" type="curve" smooth="yes"/>
      <point x="47" y="2.63315"/>
      <point x="84.9433" y="76"/>
      <point x="115.929" y="76" type="curve" smooth="yes"/>
      <point x="138.184" y="76"/>
      <point x="158.783" y="60.3586"/>
      <point x="158.783" y="43.46" type="curve" smooth="yes"/>
      <point x="158.783" y="-0.826604"/>
      <point x="100.627" y="-95"/>
    </contour>
  </outline>
</glyph>
<glyph name="hyphen" format="1">
  <advance width="476"/>
  <unicode hex="002D"/>
  <outline>
    <contour>
      <point x="359" y="267" type="line" smooth="yes"/>
      <point x="385.563" y="267"/>
      <point x="403" y="253.001"/>
      <point x="403" y="231.676" type="curve" smooth="yes"/>
      <point x="403" y="210.268"/>
      <point x="384.001" y="194"/>
      <point x="359" y="194" type="curve" smooth="yes"/>
      <point x="114" y="194" type="line" smooth="yes"/>
      <point x="89.2528" y="194"/>
      <point x="73" y="207.802"/>
      <point x="73" y="228.818" type="curve" smooth="yes"/>
      <point x="73" y="250.332"/>
      <point x="90.8987" y="267"/>
      <point x="114" y="267" type="curve" smooth="yes"/>
    </contour>
  </outline>
</glyph>
<glyph name="four" format="1">
  <advance width="592"/>
  <unicode hex="0034"/>
  <outline>
    <contour>
      <point x="462" y="160" type="curve"/>
      <point x="462" y="32" type="line" smooth="yes"/>
      <point x="462" y="6.35764"/>
      <point x="449.941" y="-7"/>
      <point x="426.791" y="-7" type="curve" smooth="yes"/>
      <point x="401.918" y="-7"/>
      <point x="386" y="8.21924"/>
      <point x="386" y="32" type="curve" smooth="yes"/>
      <point x="386" y="160" type="line"/>
      <point x="42" y="160" type="line"/>
      <point x="42" y="235" type="line"/>
      <point x="378" y="641" type="line"/>
      <point x="462" y="641" type="line"/>
      <point x="462" y="232" type="line"/>
      <point x="493.085" y="232"/>
      <point x="550" y="243.158"/>
      <point x="550" y="196" type="curve" smooth="yes"/>
      <point x="550" y="148.842"/>
      <point x="493.085" y="160"/>
    </contour>
    <contour>
      <point x="386" y="232" type="line"/>
      <point x="386" y="550" type="line"/>
      <point x="124" y="232" type="line"/>
    </contour>
  </outline>
</glyph>
<glyph name="six" format="1">
  <advance width="592"/>
  <unicode hex="0036"/>
  <outline>
    <contour>
      <point x="309.951" y="644" type="curve" smooth="yes"/>
      <point x="332.543" y="644"/>
      <point x="347" y="632.074"/>
      <point x="347" y="613.438" type="curve" smooth="yes"/>
      <point x="347" y="599.76"/>
      <point x="338.795" y="587.504"/>
      <point x="323.926" y="578.974" type="curve" smooth="yes"/>
      <point x="303.977" y="567.529"/>
      <point x="290.255" y="561.985"/>
      <point x="272.123" y="550.5" type="curve" smooth="yes"/>
      <point x="219.998" y="517.479"/>
      <point x="175.208" y="463.094"/>
      <point x="149" y="401" type="curve"/>
      <point x="189.583" y="425.216"/>
      <point x="239.828" y="438"/>
      <point x="294.424" y="438" type="curve" smooth="yes"/>
      <point x="444.214" y="438"/>
      <point x="548" y="346.302"/>
      <point x="548" y="213.959" type="curve" smooth="yes"/>
      <point x="548" y="82.5437"/>
      <point x="445.264" y="-9"/>
      <point x="297.782" y="-9" type="curve" smooth="yes"/>
      <point x="145.53" y="-9"/>
      <point x="44" y="87.173"/>
      <point x="44" y="231.39" type="curve" smooth="yes"/>
      <point x="44" y="320.06"/>
      <point x="75.6829" y="428.491"/>
      <point x="120.321" y="492.589" type="curve" smooth="yes"/>
      <point x="176.627" y="573.442"/>
      <point x="264.995" y="644"/>
    </contour>
    <contour>
      <point x="116" y="214.589" type="curve" smooth="yes"/>
      <point x="116" y="119.573"/>
      <point x="183.176" y="63"/>
      <point x="296" y="63" type="curve" smooth="yes"/>
      <point x="408.824" y="63"/>
      <point x="476" y="119.573"/>
      <point x="476" y="214.589" type="curve" smooth="yes"/>
      <point x="476" y="309.618"/>
      <point x="408.972" y="366"/>
      <point x="296" y="366" type="curve" smooth="yes"/>
      <point x="183.028" y="366"/>
      <point x="116" y="309.618"/>
    </contour>
  </outline>
</glyph>
<glyph name="nine" format="1">
  <advance width="592"/>
  <unicode hex="0039"/>
  <outline>
    <contour>
      <point x="44" y="464.785" type="curve" smooth="yes"/>
      <point x="44" y="576.499"/>
      <point x="140.685" y="641"/>
      <point x="308.142" y="641" type="curve" smooth="yes"/>
      <point x="470.972" y="641"/>
      <point x="548" y="574.57"/>
      <point x="548" y="434.143" type="curve" smooth="yes"/>
      <point x="548" y="199.401"/>
      <point x="372.536" y="-16"/>
      <point x="181.316" y="-16" type="curve" smooth="yes"/>
      <point x="138.093" y="-16"/>
      <point x="118.793" y="-6.6784"/>
      <point x="118.793" y="14.1978" type="curve" smooth="yes"/>
      <point x="118.793" y="60.6786"/>
      <point x="203.938" y="62.9893"/>
      <point x="250.402" y="76.2545" type="curve" smooth="yes"/>
      <point x="336.503" y="100.835"/>
      <point x="427.145" y="205.582"/>
      <point x="457" y="315" type="curve"/>
      <point x="422.478" y="299.499"/>
      <point x="376.099" y="292"/>
      <point x="314.757" y="292" type="curve" smooth="yes"/>
      <point x="138.726" y="292"/>
      <point x="44" y="352.45"/>
    </contour>
    <contour>
      <point x="309.653" y="569" type="curve" smooth="yes"/>
      <point x="187.476" y="569"/>
      <point x="116" y="529.823"/>
      <point x="116" y="462.856" type="curve" smooth="yes"/>
      <point x="116" y="401.507"/>
      <point x="180.204" y="364"/>
      <point x="285.221" y="364" type="curve" smooth="yes"/>
      <point x="423.393" y="364"/>
      <point x="476" y="391.963"/>
      <point x="476" y="465.408" type="curve" smooth="yes"/>
      <point x="476" y="535.895"/>
      <point x="422.841" y="569"/>
    </contour>
  </outline>
</glyph>
<glyph name="less" format="1">
  <advance width="548"/>
  <unicode hex="003C"/>
  <outline>
    <contour>
      <point x="33" y="332.569" type="curve" smooth="yes"/>
      <point x="33" y="345.439"/>
      <point x="41.3696" y="358.158"/>
      <point x="55" y="366" type="curve" smooth="yes"/>
      <point x="420" y="576" type="line" smooth="yes"/>
      <point x="429.995" y="581.75"/>
      <point x="436.993" y="584.002"/>
      <point x="444.871" y="584.002" type="curve" smooth="yes"/>
      <point x="464.51" y="584.002"/>
      <point x="480.024" y="570.319"/>
      <point x="480.024" y="552.997" type="curve" smooth="yes"/>
      <point x="480.024" y="538.955"/>
      <point x="469.928" y="523.625"/>
      <point x="455" y="515" type="curve" smooth="yes"/>
      <point x="140" y="333" type="line"/>
      <point x="455" y="149" type="line" smooth="yes"/>
      <point x="471.427" y="139.405"/>
      <point x="480" y="127.108"/>
      <point x="480" y="113.141" type="curve" smooth="yes"/>
      <point x="480" y="93.8666"/>
      <point x="465.118" y="79.9567"/>
      <point x="444.495" y="79.9567" type="curve" smooth="yes"/>
      <point x="436.004" y="79.9567"/>
      <point x="429.246" y="82.0889"/>
      <point x="419" y="88" type="curve" smooth="yes"/>
      <point x="55" y="298" type="line" smooth="yes"/>
      <point x="41.7513" y="305.643"/>
      <point x="33" y="319.394"/>
    </contour>
  </outline>
</glyph>
<glyph name="greater" format="1">
  <advance width="548"/>
  <unicode hex="003E"/>
  <outline>
    <contour>
      <point x="104.039" y="78.9981" type="curve" smooth="yes"/>
      <point x="85.4042" y="78.9981"/>
      <point x="67.9021" y="96.2459"/>
      <point x="67.9021" y="114.609" type="curve" smooth="yes"/>
      <point x="67.9021" y="127.168"/>
      <point x="77.0251" y="139.669"/>
      <point x="93" y="149" type="curve" smooth="yes"/>
      <point x="408" y="333" type="line"/>
      <point x="93" y="515" type="line" smooth="yes"/>
      <point x="77.349" y="524.043"/>
      <point x="68" y="538.048"/>
      <point x="68" y="552.45" type="curve" smooth="yes"/>
      <point x="68" y="570.54"/>
      <point x="82.7573" y="583.6"/>
      <point x="103.198" y="583.6" type="curve" smooth="yes"/>
      <point x="111.475" y="583.6"/>
      <point x="118.568" y="581.427"/>
      <point x="128" y="576" type="curve" smooth="yes"/>
      <point x="493" y="366" type="line" smooth="yes"/>
      <point x="506.63" y="358.158"/>
      <point x="515" y="345.439"/>
      <point x="515" y="332.569" type="curve" smooth="yes"/>
      <point x="515" y="319.394"/>
      <point x="506.249" y="305.643"/>
      <point x="493" y="298" type="curve" smooth="yes"/>
      <point x="129" y="88" type="line" smooth="yes"/>
      <point x="117.067" y="81.1156"/>
      <point x="111.195" y="78.9981"/>
    </contour>
  </outline>
</glyph>
<glyph name="question" format="1">
  <advance width="553"/>
  <unicode hex="003F"/>
  <outline>
    <contour>
      <point x="321" y="28.9998" type="curve" smooth="yes"/>
      <point x="321" y="0.196151"/>
      <point x="295.307" y="-20.7647"/>
      <point x="260" y="-20.7647" type="curve" smooth="yes"/>
      <point x="224.693" y="-20.7647"/>
      <point x="199" y="0.196206"/>
      <point x="199" y="29" type="curve" smooth="yes"/>
      <point x="199" y="57.8039"/>
      <point x="224.693" y="78.7647"/>
      <point x="260" y="78.7647" type="curve" smooth="yes"/>
      <point x="295.307" y="78.7647"/>
      <point x="321" y="57.8037"/>
    </contour>
    <contour>
      <point x="224" y="194" type="curve" smooth="yes"/>
      <point x="224" y="346" type="line"/>
      <point x="389" y="391" type="line" smooth="yes"/>
      <point x="419.68" y="399.367"/>
      <point x="441" y="438.755"/>
      <point x="441" y="487.066" type="curve" smooth="yes"/>
      <point x="441" y="546.965"/>
      <point x="406.146" y="587"/>
      <point x="354" y="587" type="curve" smooth="yes"/>
      <point x="261" y="587" type="line" smooth="yes"/>
      <point x="136.739" y="587"/>
      <point x="110" y="570.571"/>
      <point x="110" y="494.223" type="curve" smooth="yes"/>
      <point x="110" y="449.627"/>
      <point x="97.8847" y="427.471"/>
      <point x="73.5" y="427.471" type="curve" smooth="yes"/>
      <point x="48.71" y="427.471"/>
      <point x="37" y="450.46"/>
      <point x="37" y="499.127" type="curve" smooth="yes"/>
      <point x="37" y="614.125"/>
      <point x="99.8745" y="659"/>
      <point x="261" y="659" type="curve" smooth="yes"/>
      <point x="337" y="659" type="line" smooth="yes"/>
      <point x="448.574" y="659"/>
      <point x="513" y="592.845"/>
      <point x="513" y="478.275" type="curve" smooth="yes"/>
      <point x="513" y="336.771"/>
      <point x="414.862" y="324.072"/>
      <point x="296" y="291" type="curve"/>
      <point x="296" y="194" type="line" smooth="yes"/>
      <point x="296" y="168.702"/>
      <point x="280.922" y="150.471"/>
      <point x="260" y="150.471" type="curve" smooth="yes"/>
      <point x="239.078" y="150.471"/>
      <point x="224" y="168.702"/>
    </contour>
  </outline>
</glyph>
<glyph name="at" format="1">
  <advance width="612"/>
  <unicode hex="0040"/>
  <outline>
    <contour>
      <point x="69" y="395" type="line" smooth="yes"/>
      <point x="69" y="551.939"/>
      <point x="155.292" y="651"/>
      <point x="292" y="651" type="curve" smooth="yes"/>
      <point x="321" y="651" type="line" smooth="yes"/>
      <point x="462.501" y="651"/>
      <point x="544.064" y="550.659"/>
      <point x="544.064" y="376.579" type="curve" smooth="yes"/>
      <point x="544.064" y="231.845"/>
      <point x="488.715" y="175"/>
      <point x="347.791" y="175" type="curve" smooth="yes"/>
      <point x="217.633" y="175"/>
      <point x="174" y="214.303"/>
      <point x="174" y="331.544" type="curve" smooth="yes"/>
      <point x="174" y="445.689"/>
      <point x="211.039" y="488"/>
      <point x="310.963" y="488" type="curve" smooth="yes"/>
      <point x="411.536" y="488"/>
      <point x="447" y="445.338"/>
      <point x="447" y="324.352" type="curve" smooth="yes"/>
      <point x="447" y="301.225"/>
      <point x="444.991" y="282.025"/>
      <point x="441" y="267" type="curve"/>
      <point x="478.047" y="285.085"/>
      <point x="472" y="373.068"/>
      <point x="472" y="407.105" type="curve" smooth="yes"/>
      <point x="472" y="513.737"/>
      <point x="414.671" y="579"/>
      <point x="321" y="579" type="curve" smooth="yes"/>
      <point x="292" y="579" type="line" smooth="yes"/>
      <point x="193.944" y="579"/>
      <point x="141" y="514.485"/>
      <point x="141" y="395" type="curve" smooth="yes"/>
      <point x="141" y="241" type="line" smooth="yes"/>
      <point x="141" y="121.515"/>
      <point x="193.944" y="57"/>
      <point x="292" y="57" type="curve" smooth="yes"/>
      <point x="426" y="57" type="line" smooth="yes"/>
      <point x="510.611" y="57"/>
      <point x="437.89" y="152"/>
      <point x="503.456" y="152" type="curve" smooth="yes"/>
      <point x="531.58" y="152"/>
      <point x="544" y="134.663"/>
      <point x="544" y="95.4045" type="curve" smooth="yes"/>
      <point x="544" y="21.8531"/>
      <point x="506.948" y="-15"/>
      <point x="433" y="-15" type="curve" smooth="yes"/>
      <point x="292" y="-15" type="line" smooth="yes"/>
      <point x="155.292" y="-15"/>
      <point x="69" y="84.0614"/>
      <point x="69" y="241" type="curve" smooth="yes"/>
    </contour>
    <contour>
      <point x="246" y="333.645" type="curve" smooth="yes"/>
      <point x="246" y="273.28"/>
      <point x="245.018" y="247"/>
      <point x="310.563" y="247" type="curve" smooth="yes"/>
      <point x="375.712" y="247"/>
      <point x="375" y="272.963"/>
      <point x="375" y="331.5" type="curve" smooth="yes"/>
      <point x="375" y="390.037"/>
      <point x="375.712" y="416"/>
      <point x="309.716" y="416" type="curve" smooth="yes"/>
      <point x="245.11" y="416"/>
      <point x="246" y="391.12"/>
    </contour>
  </outline>
</glyph>
<glyph name="B" format="1">
  <advance width="644"/>
  <unicode hex="0042"/>
  <outline>
    <contour>
      <point x="156" y="312" type="line"/>
      <point x="156" y="72" type="line"/>
      <point x="374.416" y="71.837" type="line"/>
      <point x="486.482" y="71.837"/>
      <point x="516" y="95.9891"/>
      <point x="516" y="187.683" type="curve" smooth="yes"/>
      <point x="516" y="285.895"/>
      <point x="485.298" y="312.01"/>
      <point x="369.838" y="312.01" type="curve"/>
    </contour>
    <contour>
      <point x="84" y="44" type="curve" smooth="yes"/>
      <point x="84" y="592" type="line" smooth="yes"/>
      <point x="84" y="620.439"/>
      <point x="96.0245" y="636"/>
      <point x="118" y="636" type="curve" smooth="yes"/>
      <point x="306" y="636" type="line" smooth="yes"/>
      <point x="474.424" y="636"/>
      <point x="546" y="588.718"/>
      <point x="546" y="477.459" type="curve" smooth="yes"/>
      <point x="546" y="428.937"/>
      <point x="532.186" y="390.445"/>
      <point x="506" y="366" type="curve"/>
      <point x="560.305" y="339.058"/>
      <point x="588" y="283.517"/>
      <point x="588" y="201.554" type="curve" smooth="yes"/>
      <point x="588" y="52.6697"/>
      <point x="522.148" y="0"/>
      <point x="336" y="8.58307e-06" type="curve" smooth="yes"/>
      <point x="118" y="8.58307e-06" type="line" smooth="yes"/>
      <point x="96.0244" y="8.58307e-06"/>
      <point x="84" y="15.561"/>
    </contour>
    <contour>
      <point x="336.79" y="383.854" type="line"/>
      <point x="433.181" y="383.854"/>
      <point x="474" y="410.017"/>
      <point x="474" y="471.799" type="curve" smooth="yes"/>
      <point x="474" y="533.078"/>
      <point x="433.771" y="559.189"/>
      <point x="339.359" y="559.189" type="curve"/>
      <point x="156" y="559" type="line"/>
      <point x="156" y="384" type="line"/>
    </contour>
  </outline>
</glyph>
<glyph name="C" format="1">
  <advance width="631"/>
  <unicode hex="0043"/>
  <outline>
    <contour>
      <point x="465" y="0" type="curve" smooth="yes"/>
      <point x="324" y="0" type="line" smooth="yes"/>
      <point x="138.202" y="0"/>
      <point x="71" y="48.8742"/>
      <point x="71" y="184" type="curve" smooth="yes"/>
      <point x="71" y="452" type="line" smooth="yes"/>
      <point x="71" y="585.703"/>
      <point x="135.238" y="636"/>
      <point x="306" y="636" type="curve" smooth="yes"/>
      <point x="465" y="636" type="line" smooth="yes"/>
      <point x="537.679" y="636"/>
      <point x="575" y="598.867"/>
      <point x="575" y="526.553" type="curve" smooth="yes"/>
      <point x="575" y="487.533"/>
      <point x="563.05" y="469"/>
      <point x="537.89" y="469" type="curve" smooth="yes"/>
      <point x="480.225" y="469"/>
      <point x="524.824" y="565.135"/>
      <point x="422.443" y="565.135" type="curve" smooth="yes"/>
      <point x="411.337" y="565.135"/>
      <point x="353.115" y="564.003"/>
      <point x="297.157" y="564.003" type="curve" smooth="yes"/>
      <point x="175.086" y="564.003"/>
      <point x="143" y="540.275"/>
      <point x="143" y="450" type="curve" smooth="yes"/>
      <point x="143" y="186" type="line" smooth="yes"/>
      <point x="143" y="99.3759"/>
      <point x="177.084" y="71.8266"/>
      <point x="284.254" y="71.8266" type="curve"/>
      <point x="458" y="72" type="line"/>
      <point x="538.17" y="72"/>
      <point x="473.619" y="167"/>
      <point x="534.488" y="167" type="curve" smooth="yes"/>
      <point x="561.744" y="167"/>
      <point x="575" y="147.529"/>
      <point x="575" y="107.495" type="curve" smooth="yes"/>
      <point x="575" y="36.8032"/>
      <point x="537.339" y="-0"/>
    </contour>
  </outline>
</glyph>
<glyph name="D" format="1">
  <advance width="659"/>
  <unicode hex="0044"/>
  <outline>
    <contour>
      <point x="588" y="452" type="curve" smooth="yes"/>
      <point x="588" y="184" type="line" smooth="yes"/>
      <point x="588" y="48.592"/>
      <point x="521.45" y="-0"/>
      <point x="336" y="0" type="curve" smooth="yes"/>
      <point x="118" y="0" type="line" smooth="yes"/>
      <point x="95.8997" y="0"/>
      <point x="84" y="15.3996"/>
      <point x="84" y="44" type="curve" smooth="yes"/>
      <point x="84" y="592" type="line" smooth="yes"/>
      <point x="84" y="620.6"/>
      <point x="95.8998" y="636"/>
      <point x="118" y="636" type="curve" smooth="yes"/>
      <point x="354" y="636" type="line" smooth="yes"/>
      <point x="524.235" y="636"/>
      <point x="588" y="585.86"/>
    </contour>
    <contour>
      <point x="516" y="186" type="curve" smooth="yes"/>
      <point x="516" y="450" type="line" smooth="yes"/>
      <point x="516" y="540.72"/>
      <point x="485.166" y="564.003"/>
      <point x="365.023" y="564.003" type="curve"/>
      <point x="156" y="564" type="line"/>
      <point x="156" y="72" type="line"/>
      <point x="375.871" y="71.8257" type="line"/>
      <point x="483.037" y="71.8257"/>
      <point x="516" y="98.6834"/>
    </contour>
  </outline>
</glyph>
<glyph name="F" format="1">
  <advance width="615"/>
  <unicode hex="0046"/>
  <outline>
    <contour>
      <point x="120.141" y="-7" type="curve" smooth="yes"/>
      <point x="96.4694" y="-7"/>
      <point x="84" y="7.83595"/>
      <point x="84" y="36" type="curve" smooth="yes"/>
      <point x="84" y="592" type="line" smooth="yes"/>
      <point x="84" y="620.716"/>
      <point x="95.81" y="636"/>
      <point x="118" y="636" type="curve" smooth="yes"/>
      <point x="544" y="636" type="line" smooth="yes"/>
      <point x="572.589" y="636"/>
      <point x="588" y="623.193"/>
      <point x="588" y="599.437" type="curve" smooth="yes"/>
      <point x="588" y="576.154"/>
      <point x="572.91" y="564"/>
      <point x="544" y="564" type="curve" smooth="yes"/>
      <point x="156" y="564" type="line"/>
      <point x="156" y="394" type="line"/>
      <point x="421" y="394" type="line" smooth="yes"/>
      <point x="453.387" y="394"/>
      <point x="471" y="381.162"/>
      <point x="471" y="357.557" type="curve" smooth="yes"/>
      <point x="471" y="334.367"/>
      <point x="453.61" y="322"/>
      <point x="421" y="322" type="curve" smooth="yes"/>
      <point x="156" y="322" type="line"/>
      <point x="156" y="35" type="line" smooth="yes"/>
      <point x="156" y="7.51581"/>
      <point x="143.607" y="-7"/>
    </contour>
  </outline>
</glyph>
<glyph name="G" format="1">
  <advance width="645"/>
  <unicode hex="0047"/>
  <outline>
    <contour>
      <point x="503" y="236" type="line"/>
      <point x="376" y="236" type="line" smooth="yes"/>
      <point x="343.86" y="236"/>
      <point x="326" y="248.859"/>
      <point x="326" y="272" type="curve" smooth="yes"/>
      <point x="326" y="295.141"/>
      <point x="343.86" y="308"/>
      <point x="376" y="308" type="curve" smooth="yes"/>
      <point x="575" y="308" type="line"/>
      <point x="575" y="115" type="line" smooth="yes"/>
      <point x="575" y="35.9719"/>
      <point x="540.592" y="-0"/>
      <point x="465" y="0" type="curve" smooth="yes"/>
      <point x="306" y="0" type="line" smooth="yes"/>
      <point x="134.766" y="0"/>
      <point x="71" y="49.1137"/>
      <point x="71" y="181" type="curve" smooth="yes"/>
      <point x="71" y="455" type="line" smooth="yes"/>
      <point x="71" y="589.044"/>
      <point x="136.635" y="636"/>
      <point x="324" y="636" type="curve" smooth="yes"/>
      <point x="465" y="636" type="line" smooth="yes"/>
      <point x="537.695" y="636"/>
      <point x="575" y="600.02"/>
      <point x="575" y="529.908" type="curve" smooth="yes"/>
      <point x="575" y="489.49"/>
      <point x="562.387" y="468.502"/>
      <point x="539" y="470" type="curve"/>
      <point x="538" y="469" type="line"/>
      <point x="472.104" y="464.071"/>
      <point x="540.276" y="564"/>
      <point x="458" y="564" type="curve"/>
      <point x="285.737" y="564.162" type="line"/>
      <point x="178.189" y="564.162"/>
      <point x="143" y="536.511"/>
      <point x="143" y="452" type="curve" smooth="yes"/>
      <point x="143" y="184" type="line" smooth="yes"/>
      <point x="143" y="96.1018"/>
      <point x="174.245" y="71.9853"/>
      <point x="288.125" y="71.9853" type="curve"/>
      <point x="458" y="72" type="line" smooth="yes"/>
      <point x="493.04" y="72.003"/>
      <point x="503" y="82.6272"/>
      <point x="503" y="120" type="curve" smooth="yes"/>
    </contour>
  </outline>
</glyph>
<glyph name="J" format="1">
  <advance width="591"/>
  <unicode hex="004A"/>
  <outline>
    <contour>
      <point x="475.748" y="643" type="curve" smooth="yes"/>
      <point x="497.801" y="643"/>
      <point x="510" y="628.398"/>
      <point x="510" y="602" type="curve" smooth="yes"/>
      <point x="510" y="173" type="line" smooth="yes"/>
      <point x="510" y="40.9753"/>
      <point x="446.004" y="-8"/>
      <point x="273.489" y="-8" type="curve" smooth="yes"/>
      <point x="97.2385" y="-8"/>
      <point x="33" y="36.5519"/>
      <point x="33" y="158.789" type="curve" smooth="yes"/>
      <point x="33" y="205.846"/>
      <point x="43.0859" y="225"/>
      <point x="67.8657" y="225" type="curve" smooth="yes"/>
      <point x="93.7357" y="225"/>
      <point x="106" y="204.485"/>
      <point x="106" y="161.213" type="curve" smooth="yes"/>
      <point x="106" y="59.6834"/>
      <point x="173.165" y="64"/>
      <point x="261.023" y="64" type="curve" smooth="yes"/>
      <point x="363.589" y="64"/>
      <point x="438" y="58.1173"/>
      <point x="438" y="176" type="curve" smooth="yes"/>
      <point x="438" y="603" type="line" smooth="yes"/>
      <point x="438" y="627.093"/>
      <point x="453.012" y="643"/>
    </contour>
  </outline>
</glyph>
<glyph name="M" format="1">
  <advance width="693"/>
  <unicode hex="004D"/>
  <outline>
    <contour>
      <point x="346.5" y="279" type="curve" smooth="yes"/>
      <point x="335.5" y="279"/>
      <point x="323.864" y="284.078"/>
      <point x="319" y="291" type="curve" smooth="yes"/>
      <point x="156" y="523" type="line"/>
      <point x="156" y="38" type="line" smooth="yes"/>
      <point x="156" y="8.86985"/>
      <point x="143.176" y="-7"/>
      <point x="119.636" y="-7" type="curve" smooth="yes"/>
      <point x="96.6493" y="-7"/>
      <point x="84" y="7.90831"/>
      <point x="84" y="35" type="curve" smooth="yes"/>
      <point x="84" y="600" type="line" smooth="yes"/>
      <point x="84" y="627.516"/>
      <point x="95.6346" y="643"/>
      <point x="116.309" y="643" type="curve" smooth="yes"/>
      <point x="131.356" y="643"/>
      <point x="145.374" y="634.877"/>
      <point x="156" y="620" type="curve" smooth="yes"/>
      <point x="346" y="354" type="line"/>
      <point x="537" y="620" type="line" smooth="yes"/>
      <point x="547.806" y="635.05"/>
      <point x="561.388" y="643"/>
      <point x="576.292" y="643" type="curve" smooth="yes"/>
      <point x="597.143" y="643"/>
      <point x="609" y="627.412"/>
      <point x="609" y="600" type="curve" smooth="yes"/>
      <point x="609" y="35" type="line" smooth="yes"/>
      <point x="609" y="7.90831"/>
      <point x="596.351" y="-7"/>
      <point x="573.364" y="-7" type="curve" smooth="yes"/>
      <point x="549.824" y="-7"/>
      <point x="537" y="8.86985"/>
      <point x="537" y="38" type="curve" smooth="yes"/>
      <point x="537" y="523" type="line"/>
      <point x="374" y="291" type="line" smooth="yes"/>
      <point x="369.136" y="284.078"/>
      <point x="357.5" y="279"/>
    </contour>
  </outline>
</glyph>
<glyph name="S" format="1">
  <advance width="658"/>
  <unicode hex="0053"/>
  <outline>
    <contour>
      <point x="597" y="162.14" type="curve" smooth="yes"/>
      <point x="597" y="55.6199"/>
      <point x="526.328" y="-8"/>
      <point x="408" y="-8" type="curve" smooth="yes"/>
      <point x="312" y="-8" type="line" smooth="yes"/>
      <point x="129.167" y="-8"/>
      <point x="61" y="37.2284"/>
      <point x="61" y="158.537" type="curve" smooth="yes"/>
      <point x="61" y="204.962"/>
      <point x="71.5647" y="225"/>
      <point x="96.041" y="225" type="curve" smooth="yes"/>
      <point x="121.327" y="225"/>
      <point x="134" y="203.874"/>
      <point x="134" y="161.721" type="curve" smooth="yes"/>
      <point x="134" y="87.091"/>
      <point x="169.04" y="63.9338"/>
      <point x="281.965" y="63.9338" type="curve"/>
      <point x="430" y="64" type="line"/>
      <point x="488.397" y="64"/>
      <point x="524.051" y="102.075"/>
      <point x="524.051" y="164.437" type="curve" smooth="yes"/>
      <point x="524.051" y="217.389"/>
      <point x="502.697" y="259.452"/>
      <point x="473" y="265" type="curve" smooth="yes"/>
      <point x="200" y="316" type="line" smooth="yes"/>
      <point x="105.097" y="333.729"/>
      <point x="61" y="383.074"/>
      <point x="61" y="471.123" type="curve" smooth="yes"/>
      <point x="61" y="582.193"/>
      <point x="135.006" y="644"/>
      <point x="268" y="644" type="curve" smooth="yes"/>
      <point x="344" y="644" type="line" smooth="yes"/>
      <point x="527.796" y="644"/>
      <point x="597" y="599.768"/>
      <point x="597" y="482.291" type="curve" smooth="yes"/>
      <point x="597" y="434.647"/>
      <point x="584.827" y="413.135"/>
      <point x="557.864" y="413.135" type="curve" smooth="yes"/>
      <point x="500.137" y="413.135"/>
      <point x="544.78" y="512.086"/>
      <point x="496.586" y="547.641" type="curve" smooth="yes"/>
      <point x="463.312" y="572.19"/>
      <point x="378.354" y="572"/>
      <point x="344" y="572" type="curve" smooth="yes"/>
      <point x="238" y="572" type="line" smooth="yes"/>
      <point x="176.806" y="572"/>
      <point x="133.084" y="531.988"/>
      <point x="133.084" y="475.988" type="curve" smooth="yes"/>
      <point x="133.084" y="430.068"/>
      <point x="155.833" y="390.197"/>
      <point x="185" y="385" type="curve" smooth="yes"/>
      <point x="460" y="336" type="line" smooth="yes"/>
      <point x="545.884" y="320.697"/>
      <point x="597" y="255.653"/>
    </contour>
  </outline>
</glyph>
<glyph name="U" format="1">
  <advance width="658"/>
  <unicode hex="0055"/>
  <outline>
    <contour>
      <point x="544.833" y="643" type="curve" smooth="yes"/>
      <point x="567.266" y="643"/>
      <point x="581" y="627.431"/>
      <point x="581" y="602" type="curve" smooth="yes"/>
      <point x="581" y="230" type="line" smooth="yes"/>
      <point x="581" y="86.766"/>
      <point x="479.424" y="-9"/>
      <point x="327.5" y="-9" type="curve" smooth="yes"/>
      <point x="176.491" y="-9"/>
      <point x="77" y="85.9232"/>
      <point x="77" y="230" type="curve" smooth="yes"/>
      <point x="77" y="602" type="line" smooth="yes"/>
      <point x="77" y="627.062"/>
      <point x="90.2973" y="643"/>
      <point x="111.208" y="643" type="curve" smooth="yes"/>
      <point x="132.692" y="643"/>
      <point x="149" y="625.739"/>
      <point x="149" y="603" type="curve" smooth="yes"/>
      <point x="149" y="233" type="line" smooth="yes"/>
      <point x="149" y="125.891"/>
      <point x="215.59" y="63"/>
      <point x="329" y="63" type="curve" smooth="yes"/>
      <point x="442.41" y="63"/>
      <point x="509" y="125.891"/>
      <point x="509" y="233" type="curve" smooth="yes"/>
      <point x="509" y="603" type="line" smooth="yes"/>
      <point x="509" y="627.827"/>
      <point x="522.592" y="643"/>
    </contour>
  </outline>
</glyph>
<glyph name="X" format="1">
  <advance width="605"/>
  <unicode hex="0058"/>
  <outline>
    <contour>
      <point x="532.319" y="643.707" type="curve" smooth="yes"/>
      <point x="549.815" y="643.707"/>
      <point x="564.78" y="626.762"/>
      <point x="564.78" y="606.952" type="curve" smooth="yes"/>
      <point x="564.78" y="598.238"/>
      <point x="561.625" y="589.271"/>
      <point x="556" y="582" type="curve" smooth="yes"/>
      <point x="351" y="317" type="line"/>
      <point x="556" y="53" type="line" smooth="yes"/>
      <point x="562.014" y="45.2549"/>
      <point x="565.239" y="36.5826"/>
      <point x="565.239" y="28.1521" type="curve" smooth="yes"/>
      <point x="565.239" y="8.95105"/>
      <point x="549.755" y="-7.68583"/>
      <point x="531.885" y="-7.68583" type="curve" smooth="yes"/>
      <point x="519.769" y="-7.68583"/>
      <point x="506.91" y="-0.0606423"/>
      <point x="497" y="13" type="curve" smooth="yes"/>
      <point x="302" y="270" type="line"/>
      <point x="108" y="13" type="line" smooth="yes"/>
      <point x="98.6292" y="0.586121"/>
      <point x="85.3593" y="-6.99831"/>
      <point x="73.0104" y="-6.99831" type="curve" smooth="yes"/>
      <point x="54.6847" y="-6.99831"/>
      <point x="38.4792" y="9.44681"/>
      <point x="38.4792" y="28.0436" type="curve" smooth="yes"/>
      <point x="38.4792" y="36.1235"/>
      <point x="41.5484" y="43.4037"/>
      <point x="49" y="53" type="curve" smooth="yes"/>
      <point x="254" y="317" type="line"/>
      <point x="49" y="582" type="line" smooth="yes"/>
      <point x="42.6882" y="590.159"/>
      <point x="39" y="600.393"/>
      <point x="39" y="609.748" type="curve" smooth="yes"/>
      <point x="39" y="628.512"/>
      <point x="55.2504" y="644"/>
      <point x="74.9372" y="644" type="curve" smooth="yes"/>
      <point x="91.4292" y="644"/>
      <point x="99.6189" y="632.06"/>
      <point x="108" y="621" type="curve" smooth="yes"/>
      <point x="302" y="365" type="line"/>
      <point x="497" y="621" type="line" smooth="yes"/>
      <point x="508.459" y="636.044"/>
      <point x="520.379" y="643.707"/>
    </contour>
  </outline>
</glyph>
<glyph name="Y" format="1">
  <advance width="563"/>
  <unicode hex="0059"/>
  <outline>
    <contour>
      <point x="243" y="306" type="line"/>
      <point x="28" y="583" type="line" smooth="yes"/>
      <point x="21.1524" y="591.822"/>
      <point x="17.6732" y="600.493"/>
      <point x="17.6732" y="608.738" type="curve" smooth="yes"/>
      <point x="17.6732" y="626.714"/>
      <point x="32.9522" y="642.553"/>
      <point x="50.2922" y="642.553" type="curve" smooth="yes"/>
      <point x="62.5161" y="642.553"/>
      <point x="75.5968" y="634.658"/>
      <point x="86" y="621" type="curve" smooth="yes"/>
      <point x="281" y="365" type="line"/>
      <point x="475" y="621" type="line" smooth="yes"/>
      <point x="485.228" y="634.497"/>
      <point x="498.801" y="642.553"/>
      <point x="511.313" y="642.553" type="curve" smooth="yes"/>
      <point x="528.817" y="642.553"/>
      <point x="544.092" y="626.741"/>
      <point x="544.092" y="608.622" type="curve" smooth="yes"/>
      <point x="544.092" y="600.356"/>
      <point x="540.643" y="591.598"/>
      <point x="534" y="583" type="curve" smooth="yes"/>
      <point x="320" y="306" type="line"/>
      <point x="320" y="32" type="line" smooth="yes"/>
      <point x="320" y="7.87832"/>
      <point x="305.56" y="-7"/>
      <point x="282.148" y="-7" type="curve" smooth="yes"/>
      <point x="258.34" y="-7"/>
      <point x="243" y="8.28148"/>
      <point x="243" y="32" type="curve" smooth="yes"/>
    </contour>
  </outline>
</glyph>
<glyph name="bracketleft" format="1">
  <advance width="279"/>
  <unicode hex="005B"/>
  <outline>
    <contour>
      <point x="153" y="15" type="line"/>
      <point x="231" y="15" type="line"/>
      <point x="231" y="-57" type="line"/>
      <point x="81" y="-57" type="line"/>
      <point x="81" y="693" type="line"/>
      <point x="231" y="693" type="line"/>
      <point x="231" y="621" type="line"/>
      <point x="153" y="621" type="line"/>
    </contour>
  </outline>
</glyph>
<glyph name="backslash" format="1">
  <advance width="375"/>
  <unicode hex="005C"/>
  <outline>
    <contour>
      <point x="42.0204" y="624.503" type="curve" smooth="yes"/>
      <point x="42.0204" y="646.048"/>
      <point x="54.8539" y="660"/>
      <point x="74.673" y="660" type="curve" smooth="yes"/>
      <point x="91.638" y="660"/>
      <point x="106.568" y="648.703"/>
      <point x="113" y="631" type="curve" smooth="yes"/>
      <point x="323" y="53" type="line" smooth="yes"/>
      <point x="329.884" y="34.0516"/>
      <point x="332.662" y="21.9846"/>
      <point x="332.662" y="11.0295" type="curve" smooth="yes"/>
      <point x="332.662" y="-10.6495"/>
      <point x="321.197" y="-23"/>
      <point x="301.072" y="-23" type="curve" smooth="yes"/>
      <point x="282.967" y="-23"/>
      <point x="268.677" y="-12.3938"/>
      <point x="262" y="6" type="curve" smooth="yes"/>
      <point x="50" y="590" type="line" smooth="yes"/>
      <point x="44.132" y="606.165"/>
      <point x="42.0204" y="615.295"/>
    </contour>
  </outline>
</glyph>
<glyph name="underscore" format="1">
  <advance width="475"/>
  <unicode hex="005F"/>
  <outline>
    <contour>
      <point x="447" y="15" type="line" smooth="yes"/>
      <point x="475.338" y="15"/>
      <point x="490" y="2.72488"/>
      <point x="490" y="-21" type="curve" smooth="yes"/>
      <point x="490" y="-44.7249"/>
      <point x="475.338" y="-57"/>
      <point x="447" y="-57" type="curve" smooth="yes"/>
      <point x="28" y="-57" type="line" smooth="yes"/>
      <point x="-0.337897" y="-57"/>
      <point x="-15" y="-44.7248"/>
      <point x="-15" y="-21" type="curve" smooth="yes"/>
      <point x="-15" y="2.72475"/>
      <point x="-0.337897" y="15"/>
      <point x="28" y="15" type="curve" smooth="yes"/>
    </contour>
  </outline>
</glyph>
<glyph name="grave" format="1">
  <advance width="212"/>
  <unicode hex="0060"/>
  <outline>
    <contour>
      <point x="192.271" y="532.46" type="curve" smooth="yes"/>
      <point x="192.271" y="511.952"/>
      <point x="177.851" y="495.108"/>
      <point x="160.295" y="495.108" type="curve" smooth="yes"/>
      <point x="148.686" y="495.108"/>
      <point x="135.883" y="502.161"/>
      <point x="126" y="514" type="curve" smooth="yes"/>
      <point x="30" y="629" type="line" smooth="yes"/>
      <point x="23.1271" y="637.233"/>
      <point x="19.343" y="646.837"/>
      <point x="19.343" y="656.047" type="curve" smooth="yes"/>
      <point x="19.343" y="675.795"/>
      <point x="34.9797" y="693.039"/>
      <point x="52.8877" y="693.039" type="curve" smooth="yes"/>
      <point x="64.4524" y="693.039"/>
      <point x="76.9116" y="686.085"/>
      <point x="87" y="674" type="curve" smooth="yes"/>
      <point x="183" y="559" type="line" smooth="yes"/>
      <point x="188.825" y="552.022"/>
      <point x="192.271" y="542.156"/>
    </contour>
  </outline>
</glyph>
<glyph name="a" format="1">
  <advance width="594"/>
  <unicode hex="0061"/>
  <outline>
    <contour>
      <point x="451" y="305" type="line"/>
      <point x="451" y="347" type="line" smooth="yes"/>
      <point x="451" y="376.923"/>
      <point x="438.138" y="388.928"/>
      <point x="406" y="389" type="curve" smooth="yes"/>
      <point x="228.378" y="389.398" type="line" smooth="yes"/>
      <point x="168.287" y="389.533"/>
      <point x="133" y="373.37"/>
      <point x="133" y="345.711" type="curve" smooth="yes"/>
      <point x="133" y="323.023"/>
      <point x="117.063" y="305"/>
      <point x="97" y="305" type="curve" smooth="yes"/>
      <point x="74.6186" y="305"/>
      <point x="61" y="324.889"/>
      <point x="61" y="357.574" type="curve" smooth="yes"/>
      <point x="61" y="425.526"/>
      <point x="128.57" y="461"/>
      <point x="258" y="461" type="curve" smooth="yes"/>
      <point x="413" y="461" type="line" smooth="yes"/>
      <point x="492.047" y="461"/>
      <point x="523" y="424.419"/>
      <point x="523" y="331" type="curve" smooth="yes"/>
      <point x="523" y="35" type="line" smooth="yes"/>
      <point x="523" y="10.6049"/>
      <point x="507.666" y="-7"/>
      <point x="486.417" y="-7" type="curve" smooth="yes"/>
      <point x="462.726" y="-7"/>
      <point x="448.079" y="16.5735"/>
      <point x="451" y="50" type="curve"/>
      <point x="409.713" y="16.3732"/>
      <point x="350.77" y="-0"/>
      <point x="271" y="0" type="curve" smooth="yes"/>
      <point x="178" y="0" type="line" smooth="yes"/>
      <point x="108.69" y="0"/>
      <point x="61" y="60.2902"/>
      <point x="61" y="147.912" type="curve" smooth="yes"/>
      <point x="61" y="258.224"/>
      <point x="136.335" y="305"/>
      <point x="314" y="305" type="curve" smooth="yes"/>
    </contour>
    <contour>
      <point x="451" y="233" type="line"/>
      <point x="270.071" y="233.288" type="line"/>
      <point x="172.137" y="233.288"/>
      <point x="133" y="207.525"/>
      <point x="133" y="143.056" type="curve" smooth="yes"/>
      <point x="133" y="100.42"/>
      <point x="150.999" y="72"/>
      <point x="178" y="72" type="curve" smooth="yes"/>
      <point x="271" y="72" type="line" smooth="yes"/>
      <point x="391.544" y="72"/>
      <point x="451.029" y="123.846"/>
      <point x="451.029" y="228.912" type="curve"/>
    </contour>
  </outline>
</glyph>
<glyph name="b" format="1">
  <advance width="670"/>
  <unicode hex="0062"/>
  <outline>
    <contour>
      <point x="147" y="411" type="line"/>
      <point x="190.779" y="446.25"/>
      <point x="250.316" y="461"/>
      <point x="348.824" y="461" type="curve" smooth="yes"/>
      <point x="541.463" y="461"/>
      <point x="609" y="414.795"/>
      <point x="609" y="283" type="curve" smooth="yes"/>
      <point x="609" y="178" type="line" smooth="yes"/>
      <point x="609" y="60.1564"/>
      <point x="541.435" y="-0.00116888"/>
      <point x="409.081" y="-0.00116888" type="curve" smooth="yes"/>
      <point x="253.963" y="-0.00116888"/>
      <point x="195.199" y="11.2101"/>
      <point x="147" y="50" type="curve"/>
      <point x="147.7" y="9.85452"/>
      <point x="137.092" y="-7"/>
      <point x="111.124" y="-7" type="curve" smooth="yes"/>
      <point x="87.442" y="-7"/>
      <point x="75" y="7.46594"/>
      <point x="75" y="35" type="curve" smooth="yes"/>
      <point x="75" y="597" type="line" smooth="yes"/>
      <point x="75" y="627.148"/>
      <point x="87.2277" y="643"/>
      <point x="110.483" y="643" type="curve" smooth="yes"/>
      <point x="134.194" y="643"/>
      <point x="147" y="626.868"/>
      <point x="147" y="597" type="curve" smooth="yes"/>
    </contour>
    <contour>
      <point x="147" y="233.214" type="curve" smooth="yes"/>
      <point x="147" y="65.6009"/>
      <point x="278.369" y="71.7392"/>
      <point x="365.332" y="71.7392" type="curve" smooth="yes"/>
      <point x="502.048" y="71.7392"/>
      <point x="537" y="93.9852"/>
      <point x="537" y="181" type="curve" smooth="yes"/>
      <point x="537" y="280" type="line" smooth="yes"/>
      <point x="537" y="366.673"/>
      <point x="502.236" y="389.261"/>
      <point x="368.84" y="389.261" type="curve" smooth="yes"/>
      <point x="272.76" y="389.261"/>
      <point x="147" y="397.211"/>
    </contour>
  </outline>
</glyph>
<glyph name="c" format="1">
  <advance width="624"/>
  <unicode hex="0063"/>
  <outline>
    <contour>
      <point x="455" y="0" type="curve" smooth="yes"/>
      <point x="314" y="0" type="line" smooth="yes"/>
      <point x="129.033" y="0"/>
      <point x="61" y="47.8649"/>
      <point x="61" y="178" type="curve" smooth="yes"/>
      <point x="61" y="283" type="line" smooth="yes"/>
      <point x="61" y="413.135"/>
      <point x="129.033" y="461"/>
      <point x="314" y="461" type="curve" smooth="yes"/>
      <point x="455" y="461" type="line" smooth="yes"/>
      <point x="527.67" y="461"/>
      <point x="565" y="423.874"/>
      <point x="565" y="351.603" type="curve" smooth="yes"/>
      <point x="565" y="312.2"/>
      <point x="552.468" y="294"/>
      <point x="525.336" y="294" type="curve" smooth="yes"/>
      <point x="463.191" y="294"/>
      <point x="527.944" y="389"/>
      <point x="448" y="389" type="curve" smooth="yes"/>
      <point x="314" y="389" type="line" smooth="yes"/>
      <point x="237.347" y="389"/>
      <point x="182.647" y="380.886"/>
      <point x="161.487" y="366.377" type="curve" smooth="yes"/>
      <point x="141.919" y="352.96"/>
      <point x="133" y="325.915"/>
      <point x="133" y="280" type="curve" smooth="yes"/>
      <point x="133" y="181" type="line" smooth="yes"/>
      <point x="133" y="135.085"/>
      <point x="141.92" y="108.04"/>
      <point x="161.487" y="94.6227" type="curve" smooth="yes"/>
      <point x="182.648" y="80.1136"/>
      <point x="237.346" y="72"/>
      <point x="314" y="72" type="curve" smooth="yes"/>
      <point x="448" y="72" type="line" smooth="yes"/>
      <point x="528.165" y="72"/>
      <point x="463.624" y="167"/>
      <point x="524.187" y="167" type="curve" smooth="yes"/>
      <point x="551.531" y="167"/>
      <point x="565" y="147.157"/>
      <point x="565" y="106.872" type="curve" smooth="yes"/>
      <point x="565" y="36.7098"/>
      <point x="527.216" y="-0"/>
    </contour>
  </outline>
</glyph>
<glyph name="d" format="1">
  <advance width="670"/>
  <unicode hex="0064"/>
  <outline>
    <contour>
      <point x="133" y="181" type="line" smooth="yes"/>
      <point x="133" y="64.76"/>
      <point x="209.617" y="71.6829"/>
      <point x="306.17" y="71.6829" type="curve" smooth="yes"/>
      <point x="464.694" y="71.6829"/>
      <point x="523" y="113.986"/>
      <point x="523" y="229" type="curve" smooth="yes"/>
      <point x="523" y="389" type="line"/>
      <point x="267.816" y="389.155" type="line"/>
      <point x="164.799" y="389.155"/>
      <point x="133" y="363.409"/>
      <point x="133" y="280" type="curve" smooth="yes"/>
    </contour>
    <contour>
      <point x="61" y="283" type="line" smooth="yes"/>
      <point x="61" y="412.91"/>
      <point x="126.921" y="461"/>
      <point x="305" y="461" type="curve" smooth="yes"/>
      <point x="523" y="461" type="line"/>
      <point x="523" y="598" type="line" smooth="yes"/>
      <point x="523" y="627.051"/>
      <point x="535.968" y="643"/>
      <point x="559.589" y="643" type="curve" smooth="yes"/>
      <point x="582.713" y="643"/>
      <point x="595" y="627.386"/>
      <point x="595" y="598" type="curve" smooth="yes"/>
      <point x="595" y="35" type="line" smooth="yes"/>
      <point x="595" y="7.63629"/>
      <point x="582.401" y="-7"/>
      <point x="558.846" y="-7" type="curve" smooth="yes"/>
      <point x="533.033" y="-7"/>
      <point x="522.235" y="10.1691"/>
      <point x="523" y="50" type="curve"/>
      <point x="479.133" y="14.7328"/>
      <point x="419.415" y="-0"/>
      <point x="320.33" y="-0" type="curve" smooth="yes"/>
      <point x="128.712" y="-0"/>
      <point x="61" y="46.4763"/>
      <point x="61" y="178" type="curve" smooth="yes"/>
    </contour>
  </outline>
</glyph>
<glyph name="e" format="1">
  <advance width="651"/>
  <unicode hex="0065"/>
  <outline>
    <contour>
      <point x="595" y="283" type="curve" smooth="yes"/>
      <point x="595" y="235" type="line"/>
      <point x="133" y="235" type="line"/>
      <point x="133" y="181" type="line" smooth="yes"/>
      <point x="133" y="101.043"/>
      <point x="169.89" y="71.7187"/>
      <point x="270.478" y="71.7187" type="curve"/>
      <point x="468" y="72" type="line"/>
      <point x="543.519" y="72"/>
      <point x="487.743" y="167"/>
      <point x="544.47" y="167" type="curve" smooth="yes"/>
      <point x="570.696" y="167"/>
      <point x="585" y="145.615"/>
      <point x="585" y="106.407" type="curve" smooth="yes"/>
      <point x="585" y="39.3482"/>
      <point x="544.323" y="-0"/>
      <point x="475" y="0" type="curve" smooth="yes"/>
      <point x="314" y="0" type="line" smooth="yes"/>
      <point x="131.226" y="0"/>
      <point x="61" y="49.4082"/>
      <point x="61" y="178" type="curve" smooth="yes"/>
      <point x="61" y="283" type="line" smooth="yes"/>
      <point x="61" y="411.167"/>
      <point x="131.369" y="461.002"/>
      <point x="312.343" y="461.002" type="curve" smooth="yes"/>
      <point x="524.245" y="461.002"/>
      <point x="595" y="416.444"/>
    </contour>
    <contour>
      <point x="133" y="307" type="curve"/>
      <point x="523" y="307" type="line"/>
      <point x="519.07" y="396.421"/>
      <point x="407.013" y="391.256"/>
      <point x="355.22" y="391.256" type="curve" smooth="yes"/>
      <point x="275.674" y="391.256"/>
      <point x="134.076" y="403.441"/>
    </contour>
  </outline>
</glyph>
<glyph name="f" format="1">
  <advance width="345"/>
  <unicode hex="0066"/>
  <outline>
    <contour>
      <point x="152" y="461" type="curve"/>
      <point x="280" y="461" type="line" smooth="yes"/>
      <point x="309.864" y="461"/>
      <point x="326" y="448.189"/>
      <point x="326" y="424.479" type="curve" smooth="yes"/>
      <point x="326" y="401.224"/>
      <point x="310.152" y="389"/>
      <point x="280" y="389" type="curve" smooth="yes"/>
      <point x="152" y="389" type="line"/>
      <point x="152" y="36" type="line" smooth="yes"/>
      <point x="152" y="8.05221"/>
      <point x="139.194" y="-7"/>
      <point x="115.416" y="-7" type="curve" smooth="yes"/>
      <point x="92.1211" y="-7"/>
      <point x="80" y="7.71689"/>
      <point x="80" y="36" type="curve" smooth="yes"/>
      <point x="80" y="394" type="line"/>
      <point x="61.7413" y="397.492"/>
      <point x="49" y="411.441"/>
      <point x="49" y="427.94" type="curve" smooth="yes"/>
      <point x="49" y="444.487"/>
      <point x="61.7951" y="457.72"/>
      <point x="80" y="460" type="curve"/>
      <point x="84.4759" y="581.388"/>
      <point x="143.741" y="636"/>
      <point x="270.993" y="636" type="curve" smooth="yes"/>
      <point x="328.731" y="636"/>
      <point x="349" y="626.529"/>
      <point x="349" y="599.548" type="curve" smooth="yes"/>
      <point x="349" y="556.101"/>
      <point x="296.301" y="563.323"/>
      <point x="258.211" y="563.323" type="curve" smooth="yes"/>
      <point x="184.746" y="563.323"/>
      <point x="154.037" y="533.738"/>
    </contour>
  </outline>
</glyph>
<glyph name="h" format="1">
  <advance width="679"/>
  <unicode hex="0068"/>
  <outline>
    <contour>
      <point x="111" y="-7" type="curve" smooth="yes"/>
      <point x="87.4204" y="-7"/>
      <point x="75" y="7.49041"/>
      <point x="75" y="35" type="curve" smooth="yes"/>
      <point x="75" y="597" type="line" smooth="yes"/>
      <point x="75" y="627.149"/>
      <point x="87.2263" y="643"/>
      <point x="110.48" y="643" type="curve" smooth="yes"/>
      <point x="134.19" y="643"/>
      <point x="147" y="626.865"/>
      <point x="147" y="597" type="curve" smooth="yes"/>
      <point x="147" y="411" type="line"/>
      <point x="190.753" y="446.245"/>
      <point x="250.305" y="461"/>
      <point x="348.806" y="461" type="curve" smooth="yes"/>
      <point x="541.463" y="461"/>
      <point x="609" y="414.798"/>
      <point x="609" y="283" type="curve" smooth="yes"/>
      <point x="609" y="35" type="line" smooth="yes"/>
      <point x="609" y="7.49041"/>
      <point x="596.58" y="-7"/>
      <point x="573" y="-7" type="curve" smooth="yes"/>
      <point x="549.42" y="-7"/>
      <point x="537" y="7.49041"/>
      <point x="537" y="35" type="curve" smooth="yes"/>
      <point x="537" y="280" type="line" smooth="yes"/>
      <point x="537" y="367.277"/>
      <point x="501.912" y="389.26"/>
      <point x="362.607" y="389.26" type="curve" smooth="yes"/>
      <point x="275.475" y="389.26"/>
      <point x="147" y="395.142"/>
      <point x="147" y="229" type="curve" smooth="yes"/>
      <point x="147" y="35" type="line" smooth="yes"/>
      <point x="147" y="7.49041"/>
      <point x="134.58" y="-7"/>
    </contour>
  </outline>
</glyph>
<glyph name="k" format="1">
  <advance width="496"/>
  <unicode hex="006B"/>
  <outline>
    <contour>
      <point x="481.947" y="29.5902" type="curve" smooth="yes"/>
      <point x="481.947" y="10.537"/>
      <point x="465.273" y="-6.47954"/>
      <point x="446.603" y="-6.47954" type="curve" smooth="yes"/>
      <point x="437.101" y="-6.47954"/>
      <point x="428.639" y="-2.34019"/>
      <point x="417" y="8" type="curve" smooth="yes"/>
      <point x="166" y="231" type="line"/>
      <point x="147" y="212" type="line"/>
      <point x="147" y="35" type="line" smooth="yes"/>
      <point x="147" y="7.42801"/>
      <point x="134.485" y="-7"/>
      <point x="110.57" y="-7" type="curve" smooth="yes"/>
      <point x="87.3059" y="-7"/>
      <point x="75" y="6.49254"/>
      <point x="75" y="32" type="curve" smooth="yes"/>
      <point x="75" y="600" type="line" smooth="yes"/>
      <point x="75" y="625.122"/>
      <point x="90.2235" y="643.529"/>
      <point x="111" y="643.529" type="curve" smooth="yes"/>
      <point x="131.777" y="643.529"/>
      <point x="147" y="625.122"/>
      <point x="147" y="600" type="curve" smooth="yes"/>
      <point x="147" y="282" type="line"/>
      <point x="343" y="452" type="line" smooth="yes"/>
      <point x="355.128" y="462.519"/>
      <point x="363" y="466.294"/>
      <point x="372.808" y="466.294" type="curve" smooth="yes"/>
      <point x="392.52" y="466.294"/>
      <point x="409.836" y="450.207"/>
      <point x="409.836" y="431.893" type="curve" smooth="yes"/>
      <point x="409.836" y="421.469"/>
      <point x="404.174" y="411.139"/>
      <point x="394" y="403" type="curve" smooth="yes"/>
      <point x="219" y="263" type="line"/>
      <point x="468" y="57" type="line" smooth="yes"/>
      <point x="476.95" y="49.5959"/>
      <point x="481.947" y="39.7741"/>
    </contour>
  </outline>
</glyph>
<glyph name="o" format="1">
  <advance width="656"/>
  <unicode hex="006F"/>
  <outline>
    <contour>
      <point x="61" y="178" type="curve" smooth="yes"/>
      <point x="61" y="283" type="line" smooth="yes"/>
      <point x="61" y="411.512"/>
      <point x="131.242" y="461.002"/>
      <point x="313.641" y="461.002" type="curve" smooth="yes"/>
      <point x="524.444" y="461.002"/>
      <point x="595" y="416.365"/>
      <point x="595" y="283" type="curve" smooth="yes"/>
      <point x="595" y="178" type="line" smooth="yes"/>
      <point x="595" y="50.5179"/>
      <point x="524.821" y="-0.00132047"/>
      <point x="347.729" y="-0.00132047" type="curve" smooth="yes"/>
      <point x="131.729" y="-0.00132047"/>
      <point x="61" y="43.9074"/>
    </contour>
    <contour>
      <point x="523" y="181" type="curve" smooth="yes"/>
      <point x="523" y="280" type="line" smooth="yes"/>
      <point x="523" y="361.226"/>
      <point x="483.28" y="391.112"/>
      <point x="375.325" y="391.112" type="curve" smooth="yes"/>
      <point x="335.002" y="391.112"/>
      <point x="198.31" y="394.133"/>
      <point x="160.013" y="364.757" type="curve" smooth="yes"/>
      <point x="142.771" y="351.532"/>
      <point x="133" y="320.874"/>
      <point x="133" y="280" type="curve" smooth="yes"/>
      <point x="133" y="181" type="line" smooth="yes"/>
      <point x="133" y="140.442"/>
      <point x="142.729" y="109.89"/>
      <point x="159.931" y="96.4247" type="curve" smooth="yes"/>
      <point x="194.111" y="69.6702"/>
      <point x="303.415" y="69.9768"/>
      <point x="322.997" y="69.9768" type="curve" smooth="yes"/>
      <point x="429.423" y="69.9768"/>
      <point x="523" y="60.9212"/>
    </contour>
  </outline>
</glyph>
<glyph name="p" format="1">
  <advance width="670"/>
  <unicode hex="0070"/>
  <outline>
    <contour>
      <point x="537" y="280" type="line" smooth="yes"/>
      <point x="537" y="396.24"/>
      <point x="460.383" y="389.317"/>
      <point x="363.83" y="389.317" type="curve" smooth="yes"/>
      <point x="205.306" y="389.317"/>
      <point x="147" y="347.014"/>
      <point x="147" y="232" type="curve" smooth="yes"/>
      <point x="147" y="72" type="line"/>
      <point x="402.799" y="71.759" type="line"/>
      <point x="504.359" y="71.759"/>
      <point x="537" y="98.3293"/>
      <point x="537" y="181" type="curve" smooth="yes"/>
    </contour>
    <contour>
      <point x="609" y="178" type="line" smooth="yes"/>
      <point x="609" y="47.6979"/>
      <point x="542.277" y="-0"/>
      <point x="360" y="0" type="curve" smooth="yes"/>
      <point x="147" y="0" type="line"/>
      <point x="147" y="-137" type="line" smooth="yes"/>
      <point x="147" y="-166.051"/>
      <point x="134.031" y="-182"/>
      <point x="110.408" y="-182" type="curve" smooth="yes"/>
      <point x="87.283" y="-182"/>
      <point x="75" y="-166.389"/>
      <point x="75" y="-137" type="curve" smooth="yes"/>
      <point x="75" y="426" type="line" smooth="yes"/>
      <point x="75" y="453.364"/>
      <point x="87.599" y="468"/>
      <point x="111.154" y="468" type="curve" smooth="yes"/>
      <point x="136.967" y="468"/>
      <point x="147.765" y="450.831"/>
      <point x="147" y="411" type="curve"/>
      <point x="190.867" y="446.267"/>
      <point x="250.585" y="461"/>
      <point x="349.673" y="461" type="curve" smooth="yes"/>
      <point x="541.288" y="461"/>
      <point x="609" y="414.523"/>
      <point x="609" y="283" type="curve" smooth="yes"/>
    </contour>
  </outline>
</glyph>
<glyph name="t" format="1">
  <advance width="373"/>
  <unicode hex="0074"/>
  <outline>
    <contour>
      <point x="152" y="181" type="line" smooth="yes"/>
      <point x="152" y="-4.54209"/>
      <point x="348" y="125.784"/>
      <point x="348" y="38.041" type="curve" smooth="yes"/>
      <point x="348" y="9.86647"/>
      <point x="327.612" y="-0"/>
      <point x="269.394" y="-0" type="curve" smooth="yes"/>
      <point x="140.862" y="-0"/>
      <point x="80" y="57.2008"/>
      <point x="80" y="178" type="curve" smooth="yes"/>
      <point x="80" y="394" type="line"/>
      <point x="61.9873" y="396.837"/>
      <point x="49" y="410.662"/>
      <point x="49" y="427" type="curve" smooth="yes"/>
      <point x="49" y="443.338"/>
      <point x="61.9873" y="457.163"/>
      <point x="80" y="460" type="curve"/>
      <point x="80" y="555" type="line" smooth="yes"/>
      <point x="80" y="584.876"/>
      <point x="92.4011" y="601"/>
      <point x="115.378" y="601" type="curve" smooth="yes"/>
      <point x="138.87" y="601"/>
      <point x="152" y="584.508"/>
      <point x="152" y="555" type="curve" smooth="yes"/>
      <point x="152" y="461" type="line"/>
      <point x="280" y="461" type="line" smooth="yes"/>
      <point x="309.508" y="461"/>
      <point x="326" y="447.87"/>
      <point x="326" y="424.378" type="curve" smooth="yes"/>
      <point x="326" y="401.401"/>
      <point x="309.876" y="389"/>
      <point x="280" y="389" type="curve" smooth="yes"/>
      <point x="152" y="389" type="line"/>
    </contour>
  </outline>
</glyph>
<glyph name="v" format="1">
  <advance width="533"/>
  <unicode hex="0076"/>
  <outline>
    <contour>
      <point x="214" y="0" type="line"/>
      <point x="34" y="432" type="line" smooth="yes"/>
      <point x="31.819" y="437.234"/>
      <point x="30.6665" y="443.191"/>
      <point x="30.6665" y="449.23" type="curve" smooth="yes"/>
      <point x="30.6665" y="469.378"/>
      <point x="43.5988" y="483"/>
      <point x="62.7262" y="483" type="curve" smooth="yes"/>
      <point x="79.3871" y="483"/>
      <point x="94.6973" y="472.085"/>
      <point x="102" y="455" type="curve" smooth="yes"/>
      <point x="264" y="76" type="line"/>
      <point x="432" y="456" type="line" smooth="yes"/>
      <point x="439.8" y="473.642"/>
      <point x="453.64" y="483"/>
      <point x="471.935" y="483" type="curve" smooth="yes"/>
      <point x="492.437" y="483"/>
      <point x="504" y="471.516"/>
      <point x="504" y="451.154" type="curve" smooth="yes"/>
      <point x="504" y="444.314"/>
      <point x="502.707" y="438.123"/>
      <point x="500" y="432" type="curve" smooth="yes"/>
      <point x="309" y="0" type="line"/>
    </contour>
  </outline>
</glyph>
<glyph name="w" format="1">
  <advance width="834"/>
  <unicode hex="0077"/>
  <outline>
    <contour>
      <point x="642" y="0" type="curve"/>
      <point x="547" y="0" type="line"/>
      <point x="418" y="354" type="line"/>
      <point x="277" y="0" type="line"/>
      <point x="184" y="0" type="line"/>
      <point x="160.135" y="67.6209"/>
      <point x="32" y="402.181"/>
      <point x="32" y="448.306" type="curve" smooth="yes"/>
      <point x="32" y="462.824"/>
      <point x="45.0041" y="473"/>
      <point x="63.5572" y="473" type="curve" smooth="yes"/>
      <point x="82.3281" y="473"/>
      <point x="98.1133" y="462.071"/>
      <point x="104" y="445" type="curve" smooth="yes"/>
      <point x="234" y="68" type="line"/>
      <point x="378" y="440" type="line" smooth="yes"/>
      <point x="384.175" y="455.952"/>
      <point x="400.542" y="467"/>
      <point x="418.001" y="467" type="curve" smooth="yes"/>
      <point x="435.606" y="467"/>
      <point x="452.119" y="455.854"/>
      <point x="458" y="440" type="curve" smooth="yes"/>
      <point x="596" y="68" type="line"/>
      <point x="731" y="445" type="line" smooth="yes"/>
      <point x="737.188" y="462.279"/>
      <point x="752.628" y="473"/>
      <point x="771.328" y="473" type="curve" smooth="yes"/>
      <point x="789.551" y="473"/>
      <point x="803" y="463.191"/>
      <point x="803" y="449.9" type="curve" smooth="yes"/>
      <point x="803" y="407.219"/>
      <point x="665.936" y="63.9751"/>
    </contour>
  </outline>
</glyph>
<glyph name="braceleft" format="1">
  <advance width="287"/>
  <unicode hex="007B"/>
  <outline>
    <contour>
      <point x="40" y="327" type="line"/>
      <point x="80.4482" y="348.075"/>
      <point x="113" y="385.56"/>
      <point x="113" y="411.063" type="curve" smooth="yes"/>
      <point x="113" y="438.869"/>
      <point x="85" y="493.079"/>
      <point x="85" y="545.202" type="curve" smooth="yes"/>
      <point x="85" y="583.618"/>
      <point x="97.7168" y="632.354"/>
      <point x="113.74" y="655.344" type="curve" smooth="yes"/>
      <point x="140.895" y="694.307"/>
      <point x="192.119" y="693.058"/>
      <point x="235" y="693" type="curve"/>
      <point x="235" y="621" type="line"/>
      <point x="153.507" y="621.176"/>
      <point x="157" y="606.458"/>
      <point x="157" y="577.722" type="curve" smooth="yes"/>
      <point x="157" y="496.368"/>
      <point x="185" y="444.341"/>
      <point x="185" y="406.967" type="curve" smooth="yes"/>
      <point x="185" y="375.896"/>
      <point x="163.966" y="345.374"/>
      <point x="123" y="317" type="curve"/>
      <point x="164.173" y="291.14"/>
      <point x="185" y="261.85"/>
      <point x="185" y="229.805" type="curve" smooth="yes"/>
      <point x="185" y="191.394"/>
      <point x="157" y="143.143"/>
      <point x="157" y="59.1945" type="curve" smooth="yes"/>
      <point x="157" y="29.5414"/>
      <point x="153.506" y="14.8236"/>
      <point x="235" y="15" type="curve"/>
      <point x="235" y="-57" type="line"/>
      <point x="181.733" y="-56.3787"/>
      <point x="136.412" y="-43.1812"/>
      <point x="117.805" y="-22.8728" type="curve" smooth="yes"/>
      <point x="98.6009" y="-1.9128"/>
      <point x="84.3319" y="42.7201"/>
      <point x="84.3319" y="81.8294" type="curve" smooth="yes"/>
      <point x="84.3319" y="138.451"/>
      <point x="113" y="197.333"/>
      <point x="113" y="225.222" type="curve" smooth="yes"/>
      <point x="113" y="250.015"/>
      <point x="82.6249" y="284.043"/>
      <point x="40" y="307" type="curve"/>
    </contour>
  </outline>
</glyph>
<glyph name="exclamdown" format="1">
  <advance width="247"/>
  <unicode hex="00A1"/>
  <outline>
    <contour>
      <point x="88" y="282" type="line" smooth="yes"/>
      <point x="88" y="307.297"/>
      <point x="103.078" y="325.529"/>
      <point x="124" y="325.529" type="curve" smooth="yes"/>
      <point x="144.922" y="325.529"/>
      <point x="160" y="307.297"/>
      <point x="160" y="282" type="curve" smooth="yes"/>
      <point x="160" y="-138" type="line" smooth="yes"/>
      <point x="160" y="-165.449"/>
      <point x="147.766" y="-180"/>
      <point x="124.689" y="-180" type="curve" smooth="yes"/>
      <point x="101.375" y="-180"/>
      <point x="88" y="-164.689"/>
      <point x="88" y="-138" type="curve" smooth="yes"/>
    </contour>
    <contour>
      <point x="124.985" y="397.972" type="curve" smooth="yes"/>
      <point x="94.4991" y="397.972"/>
      <point x="61.9555" y="425.089"/>
      <point x="61.9555" y="450.491" type="curve" smooth="yes"/>
      <point x="61.9555" y="475.753"/>
      <point x="92.5038" y="502.028"/>
      <point x="121.874" y="502.028" type="curve" smooth="yes"/>
      <point x="152.552" y="502.028"/>
      <point x="185.13" y="475.268"/>
      <point x="185.13" y="450.069" type="curve" smooth="yes"/>
      <point x="185.13" y="424.779"/>
      <point x="154.182" y="397.972"/>
    </contour>
  </outline>
</glyph>
<glyph name="cent" format="1">
  <advance width="498"/>
  <unicode hex="00A2"/>
  <outline>
    <contour>
      <point x="218" y="108" type="line"/>
      <point x="97.0528" y="117.881"/>
      <point x="49" y="171.079"/>
      <point x="49" y="295.093" type="curve" smooth="yes"/>
      <point x="49" y="454.517"/>
      <point x="95.3993" y="518.737"/>
      <point x="218" y="529" type="curve"/>
      <point x="218" y="615" type="line" smooth="yes"/>
      <point x="218" y="643.338"/>
      <point x="230.275" y="658"/>
      <point x="254" y="658" type="curve" smooth="yes"/>
      <point x="277.725" y="658"/>
      <point x="290" y="643.338"/>
      <point x="290" y="615" type="curve" smooth="yes"/>
      <point x="290" y="530" type="line"/>
      <point x="409.177" y="530"/>
      <point x="441" y="507.873"/>
      <point x="441" y="425.005" type="curve" smooth="yes"/>
      <point x="441" y="382.25"/>
      <point x="429.377" y="363"/>
      <point x="403.562" y="363" type="curve" smooth="yes"/>
      <point x="380.073" y="363"/>
      <point x="369" y="378.993"/>
      <point x="369" y="412.921" type="curve" smooth="yes"/>
      <point x="369" y="468.345"/>
      <point x="340.297" y="458"/>
      <point x="290" y="458" type="curve"/>
      <point x="290" y="180" type="line"/>
      <point x="323" y="180" type="line" smooth="yes"/>
      <point x="409.099" y="180"/>
      <point x="334.273" y="275"/>
      <point x="400.246" y="275" type="curve" smooth="yes"/>
      <point x="428.943" y="275"/>
      <point x="441" y="257.474"/>
      <point x="441" y="215.762" type="curve" smooth="yes"/>
      <point x="441" y="132.634"/>
      <point x="406.482" y="108"/>
      <point x="290" y="108" type="curve"/>
      <point x="290" y="20" type="line" smooth="yes"/>
      <point x="290" y="-7.44939"/>
      <point x="277.767" y="-22"/>
      <point x="254.689" y="-22" type="curve" smooth="yes"/>
      <point x="231.375" y="-22"/>
      <point x="218" y="-6.6888"/>
      <point x="218" y="20" type="curve" smooth="yes"/>
    </contour>
    <contour>
      <point x="218" y="181" type="curve"/>
      <point x="218" y="457" type="line"/>
      <point x="144.656" y="450.353"/>
      <point x="121" y="421.82"/>
      <point x="121" y="340" type="curve" smooth="yes"/>
      <point x="121" y="298" type="line" smooth="yes"/>
      <point x="121" y="213.94"/>
      <point x="142.854" y="187.58"/>
    </contour>
  </outline>
</glyph>
<glyph name="sterling" format="1">
  <advance width="520"/>
  <unicode hex="00A3"/>
  <outline>
    <contour>
      <point x="297.784" y="658" type="curve" smooth="yes"/>
      <point x="407.515" y="658"/>
      <point x="461" y="613.193"/>
      <point x="461" y="521.268" type="curve" smooth="yes"/>
      <point x="461" y="476.805"/>
      <point x="448.368" y="458"/>
      <point x="418.501" y="458" type="curve" smooth="yes"/>
      <point x="340.871" y="458"/>
      <point x="457.981" y="586"/>
      <point x="301.883" y="586" type="curve" smooth="yes"/>
      <point x="161.738" y="586"/>
      <point x="177.143" y="482.825"/>
      <point x="168" y="379" type="curve"/>
      <point x="194.272" y="379"/>
      <point x="233.706" y="380.236"/>
      <point x="233.706" y="343.01" type="curve" smooth="yes"/>
      <point x="233.706" y="303.756"/>
      <point x="189.861" y="307"/>
      <point x="163" y="307" type="curve"/>
      <point x="139" y="57" type="line"/>
      <point x="420" y="57" type="line" smooth="yes"/>
      <point x="448.338" y="57"/>
      <point x="463" y="44.7246"/>
      <point x="463" y="21" type="curve" smooth="yes"/>
      <point x="463" y="-2.72464"/>
      <point x="448.338" y="-15"/>
      <point x="420" y="-15" type="curve" smooth="yes"/>
      <point x="97" y="-15" type="line" smooth="yes"/>
      <point x="76.5189" y="-15"/>
      <point x="65" y="-1.64128"/>
      <point x="65" y="22.1111" type="curve" smooth="yes"/>
      <point x="65" y="28.0895"/>
      <point x="65.7342" y="30.9645"/>
      <point x="66" y="34" type="curve" smooth="yes"/>
      <point x="104" y="468" type="line" smooth="yes"/>
      <point x="115.674" y="601.333"/>
      <point x="173.47" y="658"/>
    </contour>
  </outline>
</glyph>
<glyph name="currency" format="1">
  <advance width="521"/>
  <unicode hex="00A4"/>
  <outline>
    <contour>
      <point x="260.5" y="325" type="curve" smooth="yes"/>
      <point x="209.319" y="325"/>
      <point x="166" y="281.681"/>
      <point x="166" y="230.5" type="curve" smooth="yes"/>
      <point x="166" y="179.319"/>
      <point x="209.319" y="136"/>
      <point x="260.5" y="136" type="curve" smooth="yes"/>
      <point x="311.681" y="136"/>
      <point x="355" y="179.319"/>
      <point x="355" y="230.5" type="curve" smooth="yes"/>
      <point x="355" y="281.681"/>
      <point x="311.681" y="325"/>
    </contour>
    <contour>
      <point x="71.8551" y="385.322" type="curve" smooth="yes"/>
      <point x="71.8551" y="403.122"/>
      <point x="86.753" y="417.598"/>
      <point x="105.071" y="417.598" type="curve" smooth="yes"/>
      <point x="133.849" y="417.598"/>
      <point x="159.725" y="381.275"/>
      <point x="177" y="364" type="curve"/>
      <point x="202.375" y="380.265"/>
      <point x="231.883" y="389.001"/>
      <point x="261.452" y="389.001" type="curve" smooth="yes"/>
      <point x="290.435" y="389.001"/>
      <point x="319.274" y="380.615"/>
      <point x="344" y="365" type="curve"/>
      <point x="361.642" y="382.642"/>
      <point x="385.699" y="417.594"/>
      <point x="414.809" y="417.594" type="curve" smooth="yes"/>
      <point x="433.871" y="417.594"/>
      <point x="450.34" y="403.59"/>
      <point x="450.34" y="387.38" type="curve" smooth="yes"/>
      <point x="450.34" y="360.952"/>
      <point x="409.269" y="328.762"/>
      <point x="395" y="314" type="curve"/>
      <point x="410.606" y="289.288"/>
      <point x="419" y="260.084"/>
      <point x="419" y="230.5" type="curve" smooth="yes"/>
      <point x="419" y="200.916"/>
      <point x="410.606" y="171.712"/>
      <point x="395" y="147" type="curve"/>
      <point x="412.304" y="129.879"/>
      <point x="448.288" y="103.635"/>
      <point x="448.288" y="74.9591" type="curve" smooth="yes"/>
      <point x="448.288" y="56.8058"/>
      <point x="434.235" y="41.6852"/>
      <point x="417.363" y="41.6852" type="curve" smooth="yes"/>
      <point x="389.953" y="41.6852"/>
      <point x="359.844" y="80.6002"/>
      <point x="344" y="96" type="curve"/>
      <point x="319.274" y="80.3844"/>
      <point x="290.435" y="71.9994"/>
      <point x="261.452" y="71.9994" type="curve" smooth="yes"/>
      <point x="231.883" y="71.9994"/>
      <point x="202.375" y="80.7347"/>
      <point x="177" y="97" type="curve"/>
      <point x="161.484" y="81.9806"/>
      <point x="129.812" y="41.0118"/>
      <point x="102.413" y="41.0118" type="curve" smooth="yes"/>
      <point x="85.7074" y="41.0118"/>
      <point x="71.3675" y="56.658"/>
      <point x="71.3675" y="74.8854" type="curve" smooth="yes"/>
      <point x="71.3675" y="103.896"/>
      <point x="108.709" y="130.709"/>
      <point x="126" y="148" type="curve"/>
      <point x="110.473" y="170.009"/>
      <point x="102" y="199.133"/>
      <point x="102" y="230.5" type="curve" smooth="yes"/>
      <point x="102" y="261.867"/>
      <point x="110.473" y="290.991"/>
      <point x="126" y="313" type="curve"/>
      <point x="109.137" y="329.863"/>
      <point x="71.8551" y="356.935"/>
    </contour>
  </outline>
</glyph>
<glyph name="yen" format="1">
  <advance width="560"/>
  <unicode hex="00A5"/>
  <outline>
    <contour>
      <point x="280" y="381" type="line"/>
      <point x="459" y="636" type="line" smooth="yes"/>
      <point x="468.718" y="649.844"/>
      <point x="481.342" y="657.762"/>
      <point x="493.699" y="657.762" type="curve" smooth="yes"/>
      <point x="512.472" y="657.762"/>
      <point x="528.624" y="639.884"/>
      <point x="528.624" y="619.105" type="curve" smooth="yes"/>
      <point x="528.624" y="608.42"/>
      <point x="524.192" y="603.921"/>
      <point x="518" y="595" type="curve" smooth="yes"/>
      <point x="316" y="304" type="line"/>
      <point x="316" y="287" type="line"/>
      <point x="400" y="287" type="line" smooth="yes"/>
      <point x="425.297" y="287"/>
      <point x="443.529" y="271.922"/>
      <point x="443.529" y="251" type="curve" smooth="yes"/>
      <point x="443.529" y="230.078"/>
      <point x="425.297" y="215"/>
      <point x="400" y="215" type="curve" smooth="yes"/>
      <point x="316" y="215" type="line"/>
      <point x="316" y="198" type="line"/>
      <point x="400" y="198" type="line" smooth="yes"/>
      <point x="426.332" y="198"/>
      <point x="443" y="183.259"/>
      <point x="443" y="159.971" type="curve" smooth="yes"/>
      <point x="443" y="137.732"/>
      <point x="428.15" y="126"/>
      <point x="400" y="126" type="curve" smooth="yes"/>
      <point x="316" y="126" type="line"/>
      <point x="316" y="20" type="line" smooth="yes"/>
      <point x="316" y="-7.49003"/>
      <point x="304.024" y="-22"/>
      <point x="281.335" y="-22" type="curve" smooth="yes"/>
      <point x="258.294" y="-22"/>
      <point x="245" y="-6.6333"/>
      <point x="245" y="20" type="curve" smooth="yes"/>
      <point x="245" y="126" type="line"/>
      <point x="155" y="126" type="line" smooth="yes"/>
      <point x="127.298" y="126"/>
      <point x="113" y="138.255"/>
      <point x="113" y="162" type="curve" smooth="yes"/>
      <point x="113" y="185.745"/>
      <point x="127.298" y="198"/>
      <point x="155" y="198" type="curve" smooth="yes"/>
      <point x="245" y="198" type="line"/>
      <point x="245" y="215" type="line"/>
      <point x="155" y="215" type="line" smooth="yes"/>
      <point x="128.937" y="215"/>
      <point x="113" y="229.327"/>
      <point x="113" y="252.757" type="curve" smooth="yes"/>
      <point x="113" y="275.225"/>
      <point x="127.442" y="287"/>
      <point x="155" y="287" type="curve" smooth="yes"/>
      <point x="245" y="287" type="line"/>
      <point x="245" y="304" type="line"/>
      <point x="42" y="595" type="line" smooth="yes"/>
      <point x="33.8071" y="606.745"/>
      <point x="31.6732" y="612.01"/>
      <point x="31.6732" y="620.481" type="curve" smooth="yes"/>
      <point x="31.6732" y="640.798"/>
      <point x="46.2214" y="657.587"/>
      <point x="63.8272" y="657.587" type="curve" smooth="yes"/>
      <point x="76.321" y="657.587"/>
      <point x="90.9063" y="648.883"/>
      <point x="100" y="636" type="curve" smooth="yes"/>
    </contour>
  </outline>
</glyph>
<glyph name="section" format="1">
  <advance width="539"/>
  <unicode hex="00A7"/>
  <outline>
    <contour>
      <point x="349" y="-15" type="curve" smooth="yes"/>
      <point x="165" y="-15" type="line" smooth="yes"/>
      <point x="105.033" y="-15"/>
      <point x="74" y="13.2855"/>
      <point x="74" y="67.9445" type="curve" smooth="yes"/>
      <point x="74" y="105.616"/>
      <point x="88.5686" y="126.46"/>
      <point x="114.9" y="126.46" type="curve" smooth="yes"/>
      <point x="163.32" y="126.46"/>
      <point x="130.124" y="55.6098"/>
      <point x="217.059" y="55.6098" type="curve" smooth="yes"/>
      <point x="229.237" y="55.6098"/>
      <point x="294.824" y="57"/>
      <point x="316.757" y="57" type="curve" smooth="yes"/>
      <point x="375.266" y="57"/>
      <point x="392" y="65.2442"/>
      <point x="392" y="94.0701" type="curve" smooth="yes"/>
      <point x="392" y="134.819"/>
      <point x="381.879" y="156.017"/>
      <point x="361" y="159" type="curve" smooth="yes"/>
      <point x="186" y="184" type="line" smooth="yes"/>
      <point x="109.83" y="194.881"/>
      <point x="74" y="233.975"/>
      <point x="74" y="306.219" type="curve" smooth="yes"/>
      <point x="74" y="348.697"/>
      <point x="86.7433" y="380.997"/>
      <point x="111" y="400" type="curve"/>
      <point x="86.5749" y="421.116"/>
      <point x="74" y="453.781"/>
      <point x="74" y="496.115" type="curve" smooth="yes"/>
      <point x="74" y="570.957"/>
      <point x="112.755" y="609"/>
      <point x="189" y="609" type="curve" smooth="yes"/>
      <point x="374" y="609" type="line" smooth="yes"/>
      <point x="434.414" y="609"/>
      <point x="464" y="579.696"/>
      <point x="464" y="519.857" type="curve" smooth="yes"/>
      <point x="464" y="484.092"/>
      <point x="453.346" y="468"/>
      <point x="429.667" y="468" type="curve" smooth="yes"/>
      <point x="405.129" y="468"/>
      <point x="392" y="485.547"/>
      <point x="392" y="518.341" type="curve" smooth="yes"/>
      <point x="392" y="535.188"/>
      <point x="389.086" y="537"/>
      <point x="362" y="537" type="curve" smooth="yes"/>
      <point x="178" y="537" type="line" smooth="yes"/>
      <point x="153.948" y="537"/>
      <point x="146" y="527.35"/>
      <point x="146" y="498.145" type="curve" smooth="yes"/>
      <point x="146" y="459.088"/>
      <point x="156.38" y="437.946"/>
      <point x="177" y="435" type="curve" smooth="yes"/>
      <point x="352" y="410" type="line" smooth="yes"/>
      <point x="428.403" y="399.085"/>
      <point x="464" y="360.062"/>
      <point x="464" y="287.201" type="curve" smooth="yes"/>
      <point x="464" y="244.177"/>
      <point x="451.043" y="211.539"/>
      <point x="427" y="194" type="curve"/>
      <point x="451.425" y="172.885"/>
      <point x="464" y="140.219"/>
      <point x="464" y="97.8853" type="curve" smooth="yes"/>
      <point x="464" y="23.0426"/>
      <point x="425.245" y="-15"/>
    </contour>
    <contour>
      <point x="221.274" y="358" type="curve" smooth="yes"/>
      <point x="175.019" y="358"/>
      <point x="146" y="367.054"/>
      <point x="146" y="327.002" type="curve" smooth="yes"/>
      <point x="146" y="273.42"/>
      <point x="214.133" y="236"/>
      <point x="311.69" y="236" type="curve" smooth="yes"/>
      <point x="361.523" y="236"/>
      <point x="392" y="224.917"/>
      <point x="392" y="265.95" type="curve" smooth="yes"/>
      <point x="392" y="319.999"/>
      <point x="321.519" y="358"/>
    </contour>
  </outline>
</glyph>
<glyph name="dieresis" format="1">
  <advance width="392"/>
  <unicode hex="00A8"/>
  <outline>
    <contour>
      <point x="172" y="630" type="curve" smooth="yes"/>
      <point x="172" y="602.965"/>
      <point x="144.139" y="580.235"/>
      <point x="111" y="580.235" type="curve" smooth="yes"/>
      <point x="77.861" y="580.235"/>
      <point x="50" y="602.965"/>
      <point x="50" y="630" type="curve" smooth="yes"/>
      <point x="50" y="657.035"/>
      <point x="77.861" y="679.765"/>
      <point x="111" y="679.765" type="curve" smooth="yes"/>
      <point x="144.139" y="679.765"/>
      <point x="172" y="657.035"/>
    </contour>
    <contour>
      <point x="342" y="630" type="curve" smooth="yes"/>
      <point x="342" y="602.965"/>
      <point x="314.139" y="580.235"/>
      <point x="281" y="580.235" type="curve" smooth="yes"/>
      <point x="247.861" y="580.235"/>
      <point x="220" y="602.965"/>
      <point x="220" y="630" type="curve" smooth="yes"/>
      <point x="220" y="657.035"/>
      <point x="247.861" y="679.765"/>
      <point x="281" y="679.765" type="curve" smooth="yes"/>
      <point x="314.139" y="679.765"/>
      <point x="342" y="657.035"/>
    </contour>
  </outline>
</glyph>
<glyph name="copyright" format="1">
  <advance width="630"/>
  <unicode hex="00A9"/>
  <outline>
    <contour>
      <point x="345.594" y="144" type="curve" smooth="yes"/>
      <point x="451.664" y="144"/>
      <point x="480" y="168.878"/>
      <point x="480" y="262" type="curve" smooth="yes"/>
      <point x="480" y="373" type="line" smooth="yes"/>
      <point x="480" y="502.06"/>
      <point x="406.252" y="491"/>
      <point x="281.007" y="491" type="curve" smooth="yes"/>
      <point x="177.638" y="491"/>
      <point x="150" y="466.106"/>
      <point x="150" y="373" type="curve" smooth="yes"/>
      <point x="150" y="262" type="line" smooth="yes"/>
      <point x="150" y="132.099"/>
      <point x="223.716" y="144"/>
    </contour>
    <contour>
      <point x="78" y="373" type="line" smooth="yes"/>
      <point x="78" y="510.597"/>
      <point x="136.937" y="563"/>
      <point x="291.69" y="563" type="curve" smooth="yes"/>
      <point x="487.896" y="563"/>
      <point x="552" y="516.21"/>
      <point x="552" y="373" type="curve" smooth="yes"/>
      <point x="552" y="262" type="line" smooth="yes"/>
      <point x="552" y="124.076"/>
      <point x="493.04" y="72"/>
      <point x="336.884" y="72" type="curve" smooth="yes"/>
      <point x="141.808" y="72"/>
      <point x="78" y="118.83"/>
      <point x="78" y="262" type="curve" smooth="yes"/>
    </contour>
    <contour>
      <point x="391.837" y="336" type="curve" smooth="yes"/>
      <point x="373.33" y="336"/>
      <point x="367.117" y="343.64"/>
      <point x="365" y="369" type="curve"/>
      <point x="363.12" y="369.648"/>
      <point x="360.657" y="370"/>
      <point x="358" y="370" type="curve" smooth="yes"/>
      <point x="310" y="370" type="line" smooth="yes"/>
      <point x="282.925" y="370"/>
      <point x="265" y="356.855"/>
      <point x="265" y="337" type="curve" smooth="yes"/>
      <point x="265" y="298" type="line" smooth="yes"/>
      <point x="265" y="278.145"/>
      <point x="282.925" y="265"/>
      <point x="310" y="265" type="curve" smooth="yes"/>
      <point x="358" y="265" type="line" smooth="yes"/>
      <point x="361.112" y="265"/>
      <point x="363.475" y="265.338"/>
      <point x="365" y="266" type="curve"/>
      <point x="367.905" y="287.602"/>
      <point x="379.349" y="299.99"/>
      <point x="396.401" y="299.99" type="curve" smooth="yes"/>
      <point x="414.147" y="299.99"/>
      <point x="423.715" y="287.316"/>
      <point x="423.715" y="263.809" type="curve" smooth="yes"/>
      <point x="423.715" y="226.746"/>
      <point x="399.483" y="204"/>
      <point x="360" y="204" type="curve" smooth="yes"/>
      <point x="310" y="204" type="line" smooth="yes"/>
      <point x="247.439" y="204"/>
      <point x="205" y="241.993"/>
      <point x="205" y="298" type="curve" smooth="yes"/>
      <point x="205" y="337" type="line" smooth="yes"/>
      <point x="205" y="393.007"/>
      <point x="247.439" y="431"/>
      <point x="310" y="431" type="curve" smooth="yes"/>
      <point x="360" y="431" type="line" smooth="yes"/>
      <point x="396.061" y="431"/>
      <point x="425" y="403.817"/>
      <point x="425" y="369.942" type="curve" smooth="yes"/>
      <point x="425" y="347.999"/>
      <point x="413.277" y="336"/>
    </contour>
  </outline>
</glyph>
<glyph name="logicalnot" format="1">
  <advance width="543"/>
  <unicode hex="00AC"/>
  <outline>
    <contour>
      <point x="389" y="194" type="curve"/>
      <point x="120" y="194" type="line" smooth="yes"/>
      <point x="93.3145" y="194"/>
      <point x="79" y="206.102"/>
      <point x="79" y="228.664" type="curve" smooth="yes"/>
      <point x="79" y="252.04"/>
      <point x="94.9999" y="267"/>
      <point x="120" y="267" type="curve" smooth="yes"/>
      <point x="418" y="267" type="line" smooth="yes"/>
      <point x="447.091" y="267"/>
      <point x="462" y="252.769"/>
      <point x="462" y="225" type="curve" smooth="yes"/>
      <point x="462" y="141" type="line" smooth="yes"/>
      <point x="462" y="113.104"/>
      <point x="449.671" y="98"/>
      <point x="426.899" y="98" type="curve" smooth="yes"/>
      <point x="377.848" y="98"/>
      <point x="389" y="166.977"/>
    </contour>
  </outline>
</glyph>
<glyph name="uni00AD" format="1">
  <advance width="476"/>
  <unicode hex="00AD"/>
  <outline>
    <contour>
      <point x="359" y="267" type="line" smooth="yes"/>
      <point x="387.458" y="267"/>
      <point x="403" y="254.769"/>
      <point x="403" y="232.375" type="curve" smooth="yes"/>
      <point x="403" y="209.424"/>
      <point x="385.315" y="194"/>
      <point x="359" y="194" type="curve" smooth="yes"/>
      <point x="114" y="194" type="line" smooth="yes"/>
      <point x="87.3145" y="194"/>
      <point x="73" y="206.102"/>
      <point x="73" y="228.664" type="curve" smooth="yes"/>
      <point x="73" y="252.04"/>
      <point x="88.9999" y="267"/>
      <point x="114" y="267" type="curve" smooth="yes"/>
    </contour>
  </outline>
</glyph>
<glyph name="macron" format="1">
  <advance width="429"/>
  <unicode hex="00AF"/>
  <outline>
    <contour>
      <point x="336" y="736" type="line" smooth="yes"/>
      <point x="364.458" y="736"/>
      <point x="380" y="723.769"/>
      <point x="380" y="701.375" type="curve" smooth="yes"/>
      <point x="380" y="678.424"/>
      <point x="362.315" y="663"/>
      <point x="336" y="663" type="curve" smooth="yes"/>
      <point x="91" y="663" type="line" smooth="yes"/>
      <point x="64.3145" y="663"/>
      <point x="50" y="675.102"/>
      <point x="50" y="697.664" type="curve" smooth="yes"/>
      <point x="50" y="721.04"/>
      <point x="65.9999" y="736"/>
      <point x="91" y="736" type="curve" smooth="yes"/>
    </contour>
  </outline>
</glyph>
<glyph name="threesuperior" format="1">
  <advance width="325"/>
  <unicode hex="00B3"/>
  <outline>
    <contour>
      <point x="73.8067" y="673.521" type="curve" smooth="yes"/>
      <point x="51.0786" y="673.521"/>
      <point x="37" y="686.553"/>
      <point x="37" y="707.593" type="curve" smooth="yes"/>
      <point x="37" y="750.559"/>
      <point x="96.8656" y="782"/>
      <point x="178.674" y="782" type="curve" smooth="yes"/>
      <point x="245.46" y="782"/>
      <point x="280" y="753.679"/>
      <point x="280" y="698.918" type="curve" smooth="yes"/>
      <point x="280" y="661.542"/>
      <point x="264.929" y="635.595"/>
      <point x="233" y="618" type="curve"/>
      <point x="264.475" y="595.95"/>
      <point x="280" y="567.229"/>
      <point x="280" y="531.052" type="curve" smooth="yes"/>
      <point x="280" y="476.227"/>
      <point x="243.566" y="445.352"/>
      <point x="178.869" y="445.352" type="curve" smooth="yes"/>
      <point x="100.884" y="445.352"/>
      <point x="36.4018" y="478.609"/>
      <point x="36.4018" y="518.832" type="curve" smooth="yes"/>
      <point x="36.4018" y="540.131"/>
      <point x="50.0313" y="555.466"/>
      <point x="68.9619" y="555.466" type="curve" smooth="yes"/>
      <point x="86.5768" y="555.466"/>
      <point x="101.517" y="542.094"/>
      <point x="103" y="525" type="curve"/>
      <point x="107.807" y="515.737"/>
      <point x="128.239" y="508.913"/>
      <point x="151.168" y="508.913" type="curve" smooth="yes"/>
      <point x="185.941" y="508.913"/>
      <point x="218" y="505.908"/>
      <point x="218" y="532.424" type="curve" smooth="yes"/>
      <point x="218" y="557.602"/>
      <point x="178.035" y="586"/>
      <point x="142.601" y="586" type="curve" smooth="yes"/>
      <point x="122.547" y="586"/>
      <point x="108.029" y="599.168"/>
      <point x="108.029" y="617.358" type="curve" smooth="yes"/>
      <point x="108.029" y="670.182"/>
      <point x="218.267" y="635.405"/>
      <point x="218.267" y="688.295" type="curve" smooth="yes"/>
      <point x="218.267" y="708.128"/>
      <point x="201.502" y="720.077"/>
      <point x="173.674" y="720.077" type="curve" smooth="yes"/>
      <point x="137.734" y="720.077"/>
      <point x="104.428" y="706.285"/>
      <point x="99.9004" y="689.528" type="curve" smooth="yes"/>
      <point x="97.1047" y="679.181"/>
      <point x="87.8774" y="673.521"/>
    </contour>
  </outline>
</glyph>
<glyph name="onesuperior" format="1">
  <advance width="182"/>
  <unicode hex="00B9"/>
  <outline>
    <contour>
      <point x="59" y="679" type="line"/>
      <point x="48.7671" y="668.702"/>
      <point x="37.1914" y="662.938"/>
      <point x="26.741" y="662.938" type="curve" smooth="yes"/>
      <point x="11.3539" y="662.938"/>
      <point x="-3.06737" y="675.652"/>
      <point x="-3.06737" y="689.217" type="curve" smooth="yes"/>
      <point x="-3.06737" y="718.162"/>
      <point x="66.091" y="784.187"/>
      <point x="96.4099" y="784.187" type="curve" smooth="yes"/>
      <point x="111.006" y="784.187"/>
      <point x="123" y="769.217"/>
      <point x="123" y="751" type="curve" smooth="yes"/>
      <point x="123" y="480" type="line" smooth="yes"/>
      <point x="123" y="455.925"/>
      <point x="111.821" y="443"/>
      <point x="90.9999" y="443" type="curve" smooth="yes"/>
      <point x="70.1785" y="443"/>
      <point x="59" y="455.925"/>
      <point x="59" y="480" type="curve" smooth="yes"/>
    </contour>
  </outline>
</glyph>
<glyph name="AE" format="1">
  <advance width="904"/>
  <unicode hex="00C6"/>
  <outline>
    <contour>
      <point x="482" y="317" type="line"/>
      <point x="482" y="72" type="line"/>
      <point x="813" y="72" type="line" smooth="yes"/>
      <point x="841.791" y="72"/>
      <point x="857" y="59.3777"/>
      <point x="857" y="35.4844" type="curve" smooth="yes"/>
      <point x="857" y="12.0261"/>
      <point x="842.088" y="-0"/>
      <point x="813" y="0" type="curve" smooth="yes"/>
      <point x="442" y="0" type="line" smooth="yes"/>
      <point x="419.676" y="0"/>
      <point x="408" y="15.11"/>
      <point x="408" y="44" type="curve" smooth="yes"/>
      <point x="408" y="184" type="line"/>
      <point x="201" y="184" type="line"/>
      <point x="81" y="11" type="line" smooth="yes"/>
      <point x="68.4862" y="-7.04067"/>
      <point x="55.3706" y="-16"/>
      <point x="41.4746" y="-16" type="curve" smooth="yes"/>
      <point x="24.178" y="-16"/>
      <point x="10.2255" y="-2.40888"/>
      <point x="10.2255" y="14.4398" type="curve" smooth="yes"/>
      <point x="10.2255" y="21.8903"/>
      <point x="12.6977" y="28.1022"/>
      <point x="20" y="39" type="curve" smooth="yes"/>
      <point x="414" y="627" type="line" smooth="yes"/>
      <point x="419.908" y="635.816"/>
      <point x="430.275" y="641"/>
      <point x="442" y="641" type="curve" smooth="yes"/>
      <point x="813" y="641" type="line" smooth="yes"/>
      <point x="841.791" y="641"/>
      <point x="857" y="628.378"/>
      <point x="857" y="604.484" type="curve" smooth="yes"/>
      <point x="857" y="581.026"/>
      <point x="842.088" y="569"/>
      <point x="813" y="569" type="curve" smooth="yes"/>
      <point x="482" y="569" type="line"/>
      <point x="482" y="389" type="line"/>
      <point x="692" y="389" type="line" smooth="yes"/>
      <point x="723.322" y="389"/>
      <point x="740" y="376.341"/>
      <point x="740" y="352.566" type="curve" smooth="yes"/>
      <point x="740" y="329.197"/>
      <point x="723.539" y="317"/>
      <point x="692" y="317" type="curve" smooth="yes"/>
    </contour>
    <contour>
      <point x="408" y="494" type="line"/>
      <point x="249" y="256" type="line"/>
      <point x="408" y="256" type="line"/>
    </contour>
  </outline>
</glyph>
<glyph name="Eth" format="1">
  <advance width="659"/>
  <unicode hex="00D0"/>
  <outline>
    <contour>
      <point x="516" y="186" type="curve" smooth="yes"/>
      <point x="516" y="450" type="line" smooth="yes"/>
      <point x="516" y="540.894"/>
      <point x="485.384" y="564.003"/>
      <point x="364.961" y="564.003" type="curve"/>
      <point x="156" y="564" type="line"/>
      <point x="156" y="361" type="line"/>
      <point x="240" y="361" type="line" smooth="yes"/>
      <point x="268.387" y="361"/>
      <point x="284" y="348.778"/>
      <point x="284" y="326.558" type="curve" smooth="yes"/>
      <point x="284" y="303.555"/>
      <point x="266.249" y="288"/>
      <point x="240" y="288" type="curve" smooth="yes"/>
      <point x="156" y="288" type="line"/>
      <point x="156" y="72" type="line"/>
      <point x="375.834" y="71.8263" type="line"/>
      <point x="483.176" y="71.8263"/>
      <point x="516" y="98.5632"/>
    </contour>
    <contour>
      <point x="588" y="452" type="curve" smooth="yes"/>
      <point x="588" y="184" type="line" smooth="yes"/>
      <point x="588" y="48.4227"/>
      <point x="521.682" y="-0"/>
      <point x="336" y="0" type="curve" smooth="yes"/>
      <point x="118" y="0" type="line" smooth="yes"/>
      <point x="95.8101" y="0"/>
      <point x="84" y="15.2837"/>
      <point x="84" y="44" type="curve" smooth="yes"/>
      <point x="84" y="288" type="line"/>
      <point x="57.6627" y="287.239"/>
      <point x="42" y="300.745"/>
      <point x="42" y="324.215" type="curve" smooth="yes"/>
      <point x="42" y="347.475"/>
      <point x="58.0445" y="361.527"/>
      <point x="84" y="361" type="curve"/>
      <point x="84" y="592" type="line" smooth="yes"/>
      <point x="84" y="620.716"/>
      <point x="95.8102" y="636"/>
      <point x="118" y="636" type="curve" smooth="yes"/>
      <point x="354" y="636" type="line" smooth="yes"/>
      <point x="524.473" y="636"/>
      <point x="588" y="586.047"/>
    </contour>
  </outline>
</glyph>
<glyph name="divide" format="1">
  <advance width="440"/>
  <unicode hex="00F7"/>
  <outline>
    <contour>
      <point x="341" y="267" type="line" smooth="yes"/>
      <point x="369.458" y="267"/>
      <point x="385" y="254.769"/>
      <point x="385" y="232.375" type="curve" smooth="yes"/>
      <point x="385" y="209.424"/>
      <point x="367.315" y="194"/>
      <point x="341" y="194" type="curve" smooth="yes"/>
      <point x="96" y="194" type="line" smooth="yes"/>
      <point x="69.3145" y="194"/>
      <point x="55" y="206.102"/>
      <point x="55" y="228.664" type="curve" smooth="yes"/>
      <point x="55" y="252.04"/>
      <point x="70.9999" y="267"/>
      <point x="96" y="267" type="curve" smooth="yes"/>
    </contour>
    <contour>
      <point x="277" y="118" type="curve" smooth="yes"/>
      <point x="277" y="89.1962"/>
      <point x="251.307" y="68.2353"/>
      <point x="216" y="68.2353" type="curve" smooth="yes"/>
      <point x="180.693" y="68.2353"/>
      <point x="155" y="89.1962"/>
      <point x="155" y="118" type="curve" smooth="yes"/>
      <point x="155" y="146.804"/>
      <point x="180.693" y="167.765"/>
      <point x="216" y="167.765" type="curve" smooth="yes"/>
      <point x="251.307" y="167.765"/>
      <point x="277" y="146.804"/>
    </contour>
    <contour>
      <point x="277" y="343" type="curve" smooth="yes"/>
      <point x="277" y="314.196"/>
      <point x="251.307" y="293.235"/>
      <point x="216" y="293.235" type="curve" smooth="yes"/>
      <point x="180.693" y="293.235"/>
      <point x="155" y="314.196"/>
      <point x="155" y="343" type="curve" smooth="yes"/>
      <point x="155" y="371.804"/>
      <point x="180.693" y="392.765"/>
      <point x="216" y="392.765" type="curve" smooth="yes"/>
      <point x="251.307" y="392.765"/>
      <point x="277" y="371.804"/>
    </contour>
  </outline>
</glyph>
<glyph name="thorn" format="1">
  <advance width="671"/>
  <unicode hex="00FE"/>
  <outline>
    <contour>
      <point x="538" y="280" type="line" smooth="yes"/>
      <point x="538" y="399.946"/>
      <point x="457.681" y="389"/>
      <point x="358" y="389" type="curve" smooth="yes"/>
      <point x="329" y="389" type="line" smooth="yes"/>
      <point x="205.809" y="389"/>
      <point x="148" y="338.856"/>
      <point x="148" y="232" type="curve" smooth="yes"/>
      <point x="148" y="72" type="line"/>
      <point x="361" y="72" type="line" smooth="yes"/>
      <point x="458.986" y="72"/>
      <point x="538" y="61.3887"/>
      <point x="538" y="181" type="curve" smooth="yes"/>
    </contour>
    <contour>
      <point x="610" y="178" type="line" smooth="yes"/>
      <point x="610" y="47.1785"/>
      <point x="544.003" y="-0"/>
      <point x="361" y="0" type="curve" smooth="yes"/>
      <point x="148" y="0" type="line"/>
      <point x="148" y="-137" type="line" smooth="yes"/>
      <point x="148" y="-166.43"/>
      <point x="135.374" y="-182"/>
      <point x="111.508" y="-182" type="curve" smooth="yes"/>
      <point x="88.0706" y="-182"/>
      <point x="76" y="-166.703"/>
      <point x="76" y="-137" type="curve" smooth="yes"/>
      <point x="76" y="598" type="line" smooth="yes"/>
      <point x="76" y="627.598"/>
      <point x="88.3214" y="643"/>
      <point x="112" y="643" type="curve" smooth="yes"/>
      <point x="135.679" y="643"/>
      <point x="148" y="627.598"/>
      <point x="148" y="598" type="curve" smooth="yes"/>
      <point x="148" y="411" type="line"/>
      <point x="191.477" y="446.043"/>
      <point x="250.933" y="461"/>
      <point x="346.75" y="461" type="curve" smooth="yes"/>
      <point x="542.857" y="461"/>
      <point x="610" y="415.6"/>
      <point x="610" y="283" type="curve" smooth="yes"/>
    </contour>
  </outline>
</glyph>
<glyph name="Aogonek" format="1">
  <advance width="609"/>
  <unicode hex="0104"/>
  <outline>
    <contour>
      <point x="195" y="261" type="line"/>
      <point x="415" y="261" type="line"/>
      <point x="304" y="532" type="line"/>
    </contour>
    <contour>
      <point x="504" y="-99.6145" type="curve" smooth="yes"/>
      <point x="504" y="-120.605"/>
      <point x="517.026" y="-135"/>
      <point x="536.022" y="-135" type="curve" smooth="yes"/>
      <point x="558.795" y="-135"/>
      <point x="580.638" y="-118"/>
      <point x="602.21" y="-118" type="curve" smooth="yes"/>
      <point x="618.267" y="-118"/>
      <point x="627" y="-127.709"/>
      <point x="627" y="-145.559" type="curve" smooth="yes"/>
      <point x="627" y="-179.226"/>
      <point x="587.964" y="-206"/>
      <point x="538.879" y="-206" type="curve" smooth="yes"/>
      <point x="481.143" y="-206"/>
      <point x="431.426" y="-158.821"/>
      <point x="431.426" y="-104.032" type="curve" smooth="yes"/>
      <point x="431.426" y="-66.1616"/>
      <point x="456.483" y="-19.4933"/>
      <point x="505" y="33" type="curve"/>
      <point x="444" y="189" type="line"/>
      <point x="166" y="189" type="line"/>
      <point x="97" y="12" type="line" smooth="yes"/>
      <point x="90.1015" y="-5.69622"/>
      <point x="76.2426" y="-16"/>
      <point x="59.3393" y="-16" type="curve" smooth="yes"/>
      <point x="42.4958" y="-16"/>
      <point x="24.5415" y="-3.12042"/>
      <point x="24.5415" y="8.96233" type="curve" smooth="yes"/>
      <point x="24.5415" y="44.447"/>
      <point x="244.528" y="586.686"/>
      <point x="268" y="646" type="curve"/>
      <point x="342" y="646" type="line"/>
      <point x="365.938" y="585.51"/>
      <point x="585.628" y="44.8616"/>
      <point x="585.628" y="9.19415" type="curve" smooth="yes"/>
      <point x="585.628" y="-2.10974"/>
      <point x="569.816" y="-14.7056"/>
      <point x="554" y="-16" type="curve"/>
      <point x="526.874" y="-38.8824"/>
      <point x="504" y="-77.1351"/>
    </contour>
  </outline>
</glyph>
<glyph name="Eogonek" format="1">
  <advance width="636"/>
  <unicode hex="0118"/>
  <outline>
    <contour>
      <point x="313" y="-98.9046" type="curve" smooth="yes"/>
      <point x="313" y="-120.537"/>
      <point x="325.831" y="-135"/>
      <point x="345.023" y="-135" type="curve" smooth="yes"/>
      <point x="367.796" y="-135"/>
      <point x="389.636" y="-118"/>
      <point x="411.531" y="-118" type="curve" smooth="yes"/>
      <point x="427.571" y="-118"/>
      <point x="436" y="-127.198"/>
      <point x="436" y="-144.703" type="curve" smooth="yes"/>
      <point x="436" y="-179.136"/>
      <point x="396.441" y="-206"/>
      <point x="345.736" y="-206" type="curve" smooth="yes"/>
      <point x="287.866" y="-206"/>
      <point x="241" y="-158.838"/>
      <point x="241" y="-100.602" type="curve" smooth="yes"/>
      <point x="241" y="-70.6545"/>
      <point x="255.47" y="-37.5697"/>
      <point x="285" y="0" type="curve"/>
      <point x="118" y="0" type="line" smooth="yes"/>
      <point x="95.6763" y="0"/>
      <point x="84" y="15.1105"/>
      <point x="84" y="44" type="curve" smooth="yes"/>
      <point x="84" y="597" type="line" smooth="yes"/>
      <point x="84" y="625.889"/>
      <point x="95.6764" y="641"/>
      <point x="118" y="641" type="curve" smooth="yes"/>
      <point x="544" y="641" type="line" smooth="yes"/>
      <point x="572.79" y="641"/>
      <point x="588" y="628.377"/>
      <point x="588" y="604.484" type="curve" smooth="yes"/>
      <point x="588" y="581.026"/>
      <point x="573.088" y="569"/>
      <point x="544" y="569" type="curve" smooth="yes"/>
      <point x="156" y="569" type="line"/>
      <point x="156" y="394" type="line"/>
      <point x="421" y="394" type="line" smooth="yes"/>
      <point x="453.57" y="394"/>
      <point x="471" y="381.312"/>
      <point x="471" y="357.604" type="curve" smooth="yes"/>
      <point x="471" y="334.286"/>
      <point x="453.746" y="322"/>
      <point x="421" y="322" type="curve" smooth="yes"/>
      <point x="156" y="322" type="line"/>
      <point x="156" y="72" type="line"/>
      <point x="544" y="72" type="line" smooth="yes"/>
      <point x="572.791" y="72"/>
      <point x="588" y="59.3777"/>
      <point x="588" y="35.4845" type="curve" smooth="yes"/>
      <point x="588" y="12.0264"/>
      <point x="573.087" y="-0"/>
      <point x="544" y="0" type="curve" smooth="yes"/>
      <point x="385" y="0" type="line"/>
      <point x="346.775" y="-23.5178"/>
      <point x="313" y="-69.9141"/>
    </contour>
  </outline>
</glyph>
<glyph name="eogonek" format="1">
  <advance width="651"/>
  <unicode hex="0119"/>
  <outline>
    <contour>
      <point x="330" y="-98.8847" type="curve" smooth="yes"/>
      <point x="330" y="-120.53"/>
      <point x="342.833" y="-135"/>
      <point x="362.03" y="-135" type="curve" smooth="yes"/>
      <point x="384.811" y="-135"/>
      <point x="406.621" y="-118"/>
      <point x="428.208" y="-118" type="curve" smooth="yes"/>
      <point x="444.27" y="-118"/>
      <point x="453" y="-127.704"/>
      <point x="453" y="-145.557" type="curve" smooth="yes"/>
      <point x="453" y="-179.715"/>
      <point x="413.666" y="-206"/>
      <point x="362.551" y="-206" type="curve" smooth="yes"/>
      <point x="304.298" y="-206"/>
      <point x="258" y="-159.538"/>
      <point x="258" y="-101.079" type="curve" smooth="yes"/>
      <point x="258" y="-70.7915"/>
      <point x="272.49" y="-37.5054"/>
      <point x="302" y="0" type="curve"/>
      <point x="125.961" y="1.29013"/>
      <point x="61" y="49.2696"/>
      <point x="61" y="178" type="curve" smooth="yes"/>
      <point x="61" y="283" type="line" smooth="yes"/>
      <point x="61" y="463.579"/>
      <point x="200.06" y="461"/>
      <point x="285.315" y="461" type="curve" smooth="yes"/>
      <point x="526.089" y="461"/>
      <point x="595" y="421.391"/>
      <point x="595" y="283" type="curve" smooth="yes"/>
      <point x="595" y="235" type="line"/>
      <point x="133" y="235" type="line"/>
      <point x="133" y="181" type="line" smooth="yes"/>
      <point x="133" y="133.996"/>
      <point x="144.441" y="103.55"/>
      <point x="166.875" y="90.8535" type="curve" smooth="yes"/>
      <point x="187.867" y="78.9736"/>
      <point x="242.286" y="72"/>
      <point x="314" y="72" type="curve" smooth="yes"/>
      <point x="468" y="72" type="line" smooth="yes"/>
      <point x="550.276" y="72"/>
      <point x="481.329" y="167"/>
      <point x="545.17" y="167" type="curve" smooth="yes"/>
      <point x="573.083" y="167"/>
      <point x="585" y="149.198"/>
      <point x="585" y="107.498" type="curve" smooth="yes"/>
      <point x="585" y="-11.4994"/>
      <point x="503.494" y="0"/>
      <point x="402" y="0" type="curve"/>
      <point x="363.722" y="-23.5371"/>
      <point x="330" y="-69.8509"/>
    </contour>
    <contour>
      <point x="314" y="389" type="line" smooth="yes"/>
      <point x="272.497" y="389"/>
      <point x="247.936" y="388.122"/>
      <point x="223.933" y="385.782" type="curve" smooth="yes"/>
      <point x="158.118" y="379.363"/>
      <point x="135.71" y="359.95"/>
      <point x="133" y="307" type="curve"/>
      <point x="523" y="307" type="line"/>
      <point x="516.538" y="401.559"/>
      <point x="414.247" y="389"/>
      <point x="343" y="389" type="curve" smooth="yes"/>
    </contour>
  </outline>
</glyph>
<glyph name="Hbar" format="1">
  <advance width="676"/>
  <unicode hex="0126"/>
  <outline>
    <contour>
      <point x="28" y="529.32" type="curve" smooth="yes"/>
      <point x="28" y="558.679"/>
      <point x="67.8051" y="551"/>
      <point x="86" y="551" type="curve"/>
      <point x="86" y="579.421"/>
      <point x="74.1967" y="643"/>
      <point x="123.035" y="643" type="curve" smooth="yes"/>
      <point x="169.99" y="643"/>
      <point x="158" y="584.228"/>
      <point x="158" y="551" type="curve"/>
      <point x="518" y="551" type="line"/>
      <point x="518" y="581.845"/>
      <point x="506.071" y="643"/>
      <point x="554" y="643" type="curve" smooth="yes"/>
      <point x="601.929" y="643"/>
      <point x="590" y="581.845"/>
      <point x="590" y="551" type="curve"/>
      <point x="609.361" y="551"/>
      <point x="648" y="557.861"/>
      <point x="648" y="530.191" type="curve" smooth="yes"/>
      <point x="648" y="501.423"/>
      <point x="606.231" y="508"/>
      <point x="590" y="508" type="curve"/>
      <point x="590" y="35" type="line" smooth="yes"/>
      <point x="590" y="7.29752"/>
      <point x="577.745" y="-7"/>
      <point x="554" y="-7" type="curve" smooth="yes"/>
      <point x="530.255" y="-7"/>
      <point x="518" y="7.29752"/>
      <point x="518" y="35" type="curve" smooth="yes"/>
      <point x="518" y="307" type="line"/>
      <point x="158" y="307" type="line"/>
      <point x="158" y="35" type="line" smooth="yes"/>
      <point x="158" y="7.29752"/>
      <point x="145.745" y="-7"/>
      <point x="122" y="-7" type="curve" smooth="yes"/>
      <point x="98.255" y="-7"/>
      <point x="86" y="7.29752"/>
      <point x="86" y="35" type="curve" smooth="yes"/>
      <point x="86" y="508" type="line"/>
      <point x="66.8353" y="508"/>
      <point x="28" y="500.322"/>
    </contour>
    <contour>
      <point x="518" y="508" type="line"/>
      <point x="158" y="508" type="line"/>
      <point x="158" y="379" type="line"/>
      <point x="518" y="379" type="line"/>
    </contour>
  </outline>
</glyph>
<glyph name="Iogonek" format="1">
  <advance width="246"/>
  <unicode hex="012E"/>
  <outline>
    <contour>
      <point x="76" y="-100.161" type="curve" smooth="yes"/>
      <point x="76" y="-120.656"/>
      <point x="89.1844" y="-135"/>
      <point x="108.023" y="-135" type="curve" smooth="yes"/>
      <point x="130.796" y="-135"/>
      <point x="152.636" y="-118"/>
      <point x="174.21" y="-118" type="curve" smooth="yes"/>
      <point x="190.266" y="-118"/>
      <point x="199" y="-127.708"/>
      <point x="199" y="-145.555" type="curve" smooth="yes"/>
      <point x="199" y="-179.751"/>
      <point x="159.621" y="-206"/>
      <point x="108.319" y="-206" type="curve" smooth="yes"/>
      <point x="50.3682" y="-206"/>
      <point x="4" y="-160.252"/>
      <point x="4" y="-103.077" type="curve" smooth="yes"/>
      <point x="4" y="-62.002"/>
      <point x="34.0151" y="-9.62338"/>
      <point x="90" y="47" type="curve"/>
      <point x="90" y="602" type="line" smooth="yes"/>
      <point x="90" y="629.063"/>
      <point x="102.237" y="643"/>
      <point x="126" y="643" type="curve" smooth="yes"/>
      <point x="149.763" y="643"/>
      <point x="162" y="629.063"/>
      <point x="162" y="602" type="curve" smooth="yes"/>
      <point x="162" y="33" type="line" smooth="yes"/>
      <point x="162" y="13.5748"/>
      <point x="157.799" y="4.8362"/>
      <point x="145.025" y="-2.30818" type="curve" smooth="yes"/>
      <point x="112.56" y="-20.4656"/>
      <point x="76" y="-72.2952"/>
    </contour>
  </outline>
</glyph>
<glyph name="iogonek" format="1">
  <advance width="227"/>
  <unicode hex="012F"/>
  <outline>
    <contour>
      <point x="75" y="-97.5568" type="curve" smooth="yes"/>
      <point x="75" y="-119.505"/>
      <point x="87.7368" y="-134"/>
      <point x="107.022" y="-134" type="curve" smooth="yes"/>
      <point x="129.796" y="-134"/>
      <point x="151.636" y="-117"/>
      <point x="173.531" y="-117" type="curve" smooth="yes"/>
      <point x="189.439" y="-117"/>
      <point x="198" y="-126.085"/>
      <point x="198" y="-142.967" type="curve" smooth="yes"/>
      <point x="198" y="-176.218"/>
      <point x="157.356" y="-204.032"/>
      <point x="108.767" y="-204.032" type="curve" smooth="yes"/>
      <point x="51.3883" y="-204.032"/>
      <point x="2.31588" y="-157.197"/>
      <point x="2.31588" y="-102.434" type="curve" smooth="yes"/>
      <point x="2.31588" y="-62.5122"/>
      <point x="29.2855" y="-13.6916"/>
      <point x="81" y="40" type="curve"/>
      <point x="81" y="440" type="line" smooth="yes"/>
      <point x="81" y="465.297"/>
      <point x="96.0783" y="483.529"/>
      <point x="117" y="483.529" type="curve" smooth="yes"/>
      <point x="137.922" y="483.529"/>
      <point x="153" y="465.297"/>
      <point x="153" y="440" type="curve" smooth="yes"/>
      <point x="153" y="20" type="line" smooth="yes"/>
      <point x="153" y="-7.69353"/>
      <point x="140.674" y="-22.0743"/>
      <point x="117" y="-22" type="curve"/>
      <point x="91.9351" y="-45.3817"/>
      <point x="75" y="-75.8475"/>
    </contour>
    <contour>
      <point x="118.756" y="548.972" type="curve" smooth="yes"/>
      <point x="88.3904" y="548.972"/>
      <point x="55.8191" y="576.468"/>
      <point x="55.8191" y="602.102" type="curve" smooth="yes"/>
      <point x="55.8191" y="627.228"/>
      <point x="85.2846" y="653.028"/>
      <point x="113.98" y="653.028" type="curve" smooth="yes"/>
      <point x="144.863" y="653.028"/>
      <point x="178.271" y="625.741"/>
      <point x="178.271" y="600.515" type="curve" smooth="yes"/>
      <point x="178.271" y="575.547"/>
      <point x="147.586" y="548.972"/>
    </contour>
  </outline>
</glyph>
<glyph name="dotlessi" format="1">
  <advance width="218"/>
  <unicode hex="0131"/>
  <outline>
    <contour>
      <point x="73" y="440" type="line" smooth="yes"/>
      <point x="73" y="464.274"/>
      <point x="88.9245" y="483.529"/>
      <point x="109" y="483.529" type="curve" smooth="yes"/>
      <point x="129.076" y="483.529"/>
      <point x="145" y="464.274"/>
      <point x="145" y="440" type="curve" smooth="yes"/>
      <point x="145" y="20" type="line" smooth="yes"/>
      <point x="145" y="-6.12972"/>
      <point x="131.489" y="-22"/>
      <point x="109.243" y="-22" type="curve" smooth="yes"/>
      <point x="87.0578" y="-22"/>
      <point x="73" y="-5.70903"/>
      <point x="73" y="20" type="curve" smooth="yes"/>
    </contour>
  </outline>
</glyph>
<glyph name="Lslash" format="1">
  <advance width="562"/>
  <unicode hex="0141"/>
  <outline>
    <contour>
      <point x="126" y="0" type="line" smooth="yes"/>
      <point x="103.649" y="0"/>
      <point x="92" y="14.7329"/>
      <point x="92" y="43" type="curve" smooth="yes"/>
      <point x="92" y="290" type="line"/>
      <point x="74.32" y="280.921"/>
      <point x="56.6978" y="267.823"/>
      <point x="37.2757" y="267.823" type="curve" smooth="yes"/>
      <point x="16.2034" y="267.823"/>
      <point x="-0.315776" y="283.863"/>
      <point x="-0.315776" y="304.325" type="curve" smooth="yes"/>
      <point x="-0.315776" y="318.492"/>
      <point x="7.54555" y="327.773"/>
      <point x="28" y="338" type="curve" smooth="yes"/>
      <point x="92" y="370" type="line"/>
      <point x="92" y="603" type="line" smooth="yes"/>
      <point x="92" y="626.517"/>
      <point x="107.02" y="643.353"/>
      <point x="128" y="643.353" type="curve" smooth="yes"/>
      <point x="148.98" y="643.353"/>
      <point x="164" y="626.517"/>
      <point x="164" y="603" type="curve" smooth="yes"/>
      <point x="164" y="407" type="line"/>
      <point x="182.862" y="416.431"/>
      <point x="198.602" y="428"/>
      <point x="215.749" y="428" type="curve" smooth="yes"/>
      <point x="236.57" y="428"/>
      <point x="257.33" y="410.775"/>
      <point x="257.33" y="393.501" type="curve" smooth="yes"/>
      <point x="257.33" y="360.669"/>
      <point x="181.601" y="334.605"/>
      <point x="164" y="326" type="curve"/>
      <point x="164" y="72" type="line"/>
      <point x="497" y="72" type="line" smooth="yes"/>
      <point x="525.338" y="72"/>
      <point x="540" y="59.725"/>
      <point x="540" y="36" type="curve" smooth="yes"/>
      <point x="540" y="12.275"/>
      <point x="525.338" y="-0"/>
      <point x="497" y="0" type="curve" smooth="yes"/>
    </contour>
  </outline>
</glyph>
<glyph name="Eng" format="1">
  <advance width="673"/>
  <unicode hex="014A"/>
  <outline>
    <contour>
      <point x="516" y="118" type="line"/>
      <point x="516" y="597" type="line" smooth="yes"/>
      <point x="516" y="627.284"/>
      <point x="528.451" y="643"/>
      <point x="552.444" y="643" type="curve" smooth="yes"/>
      <point x="575.82" y="643"/>
      <point x="588" y="628.27"/>
      <point x="588" y="600" type="curve" smooth="yes"/>
      <point x="588" y="0" type="line" smooth="yes"/>
      <point x="588" y="-122.248"/>
      <point x="531.134" y="-175"/>
      <point x="399.351" y="-175" type="curve" smooth="yes"/>
      <point x="338.197" y="-175"/>
      <point x="319" y="-166.024"/>
      <point x="319" y="-137.431" type="curve" smooth="yes"/>
      <point x="319" y="-47.5552"/>
      <point x="516" y="-178.836"/>
      <point x="516" y="0" type="curve" smooth="yes"/>
      <point x="516" y="13" type="line"/>
      <point x="156" y="517" type="line"/>
      <point x="156" y="32" type="line" smooth="yes"/>
      <point x="156" y="6.3015"/>
      <point x="143.878" y="-7"/>
      <point x="120.457" y="-7" type="curve" smooth="yes"/>
      <point x="96.3509" y="-7"/>
      <point x="84" y="7.22859"/>
      <point x="84" y="35" type="curve" smooth="yes"/>
      <point x="84" y="600" type="line" smooth="yes"/>
      <point x="84" y="628.082"/>
      <point x="95.3631" y="643"/>
      <point x="116.753" y="643" type="curve" smooth="yes"/>
      <point x="132.1" y="643"/>
      <point x="144.874" y="635.514"/>
      <point x="156" y="620" type="curve" smooth="yes"/>
    </contour>
  </outline>
</glyph>
<glyph name="eng" format="1">
  <advance width="679"/>
  <unicode hex="014B"/>
  <outline>
    <contour>
      <point x="608" y="0" type="line" smooth="yes"/>
      <point x="608" y="-122.258"/>
      <point x="551.131" y="-175"/>
      <point x="419.308" y="-175" type="curve" smooth="yes"/>
      <point x="358.18" y="-175"/>
      <point x="339" y="-166.027"/>
      <point x="339" y="-137.43" type="curve" smooth="yes"/>
      <point x="339" y="-47.5421"/>
      <point x="536" y="-178.814"/>
      <point x="536" y="0" type="curve" smooth="yes"/>
      <point x="536" y="280" type="line" smooth="yes"/>
      <point x="536" y="399.931"/>
      <point x="455.718" y="389"/>
      <point x="356" y="389" type="curve" smooth="yes"/>
      <point x="327" y="389" type="line" smooth="yes"/>
      <point x="204.692" y="389"/>
      <point x="146" y="337.117"/>
      <point x="146" y="229" type="curve" smooth="yes"/>
      <point x="146" y="35" type="line" smooth="yes"/>
      <point x="146" y="7.29544"/>
      <point x="133.747" y="-7"/>
      <point x="110" y="-7" type="curve" smooth="yes"/>
      <point x="86.2532" y="-7"/>
      <point x="74" y="7.29544"/>
      <point x="74" y="35" type="curve" smooth="yes"/>
      <point x="74" y="425" type="line" smooth="yes"/>
      <point x="74" y="453.536"/>
      <point x="86.1087" y="468"/>
      <point x="109.998" y="468" type="curve" smooth="yes"/>
      <point x="136.006" y="468"/>
      <point x="146" y="452.177"/>
      <point x="146" y="411" type="curve"/>
      <point x="189.477" y="446.043"/>
      <point x="248.933" y="461"/>
      <point x="344.75" y="461" type="curve" smooth="yes"/>
      <point x="540.857" y="461"/>
      <point x="608" y="415.6"/>
      <point x="608" y="283" type="curve" smooth="yes"/>
    </contour>
  </outline>
</glyph>
<glyph name="Scedilla" format="1">
  <advance width="658"/>
  <unicode hex="015E"/>
  <outline>
    <contour>
      <point x="597" y="161.114" type="curve" smooth="yes"/>
      <point x="597" y="49.8969"/>
      <point x="527.16" y="-8"/>
      <point x="393" y="-8" type="curve"/>
      <point x="414.318" y="-40.6079"/>
      <point x="459.001" y="-42.7314"/>
      <point x="459.001" y="-95.5908" type="curve" smooth="yes"/>
      <point x="459.001" y="-149.122"/>
      <point x="412.448" y="-190.529"/>
      <point x="352.264" y="-190.529" type="curve" smooth="yes"/>
      <point x="301.379" y="-190.529"/>
      <point x="265.388" y="-165.6"/>
      <point x="265.388" y="-130.355" type="curve" smooth="yes"/>
      <point x="265.388" y="-120.608"/>
      <point x="267.662" y="-113.263"/>
      <point x="272" y="-109" type="curve"/>
      <point x="273.692" y="-104.167"/>
      <point x="278.433" y="-101.833"/>
      <point x="286.562" y="-101.833" type="curve" smooth="yes"/>
      <point x="312.798" y="-101.833"/>
      <point x="339.978" y="-124.843"/>
      <point x="365.025" y="-124.843" type="curve" smooth="yes"/>
      <point x="370.31" y="-124.843"/>
      <point x="373.025" y="-123.68"/>
      <point x="374" y="-121" type="curve"/>
      <point x="380.052" y="-120.429"/>
      <point x="387.84" y="-112.355"/>
      <point x="387.84" y="-106.651" type="curve" smooth="yes"/>
      <point x="387.84" y="-94.0911"/>
      <point x="326.563" y="-58.2881"/>
      <point x="319" y="-8" type="curve"/>
      <point x="127.048" y="-8"/>
      <point x="61" y="35.0401"/>
      <point x="61" y="160.127" type="curve" smooth="yes"/>
      <point x="61" y="206.536"/>
      <point x="70.9063" y="225"/>
      <point x="95.8061" y="225" type="curve" smooth="yes"/>
      <point x="121.871" y="225"/>
      <point x="134" y="205.133"/>
      <point x="134" y="162.438" type="curve" smooth="yes"/>
      <point x="134" y="57.1853"/>
      <point x="207.081" y="64"/>
      <point x="312" y="64" type="curve" smooth="yes"/>
      <point x="430" y="64" type="line" smooth="yes"/>
      <point x="488.418" y="64"/>
      <point x="524.051" y="101.127"/>
      <point x="524.051" y="161.995" type="curve" smooth="yes"/>
      <point x="524.051" y="215.22"/>
      <point x="502.071" y="259.569"/>
      <point x="473" y="265" type="curve" smooth="yes"/>
      <point x="200" y="316" type="line" smooth="yes"/>
      <point x="104.185" y="333.9"/>
      <point x="61" y="382.14"/>
      <point x="61" y="470.95" type="curve" smooth="yes"/>
      <point x="61" y="583.355"/>
      <point x="133.543" y="644"/>
      <point x="268" y="644" type="curve" smooth="yes"/>
      <point x="344" y="644" type="line" smooth="yes"/>
      <point x="529.462" y="644"/>
      <point x="597" y="600.428"/>
      <point x="597" y="480.779" type="curve" smooth="yes"/>
      <point x="597" y="433.558"/>
      <point x="585.571" y="413.135"/>
      <point x="559.146" y="413.135" type="curve" smooth="yes"/>
      <point x="498.955" y="413.135"/>
      <point x="544.683" y="519.752"/>
      <point x="490.75" y="552.051" type="curve" smooth="yes"/>
      <point x="469.624" y="564.703"/>
      <point x="415.944" y="572"/>
      <point x="344" y="572" type="curve" smooth="yes"/>
      <point x="238" y="572" type="line" smooth="yes"/>
      <point x="176.155" y="572"/>
      <point x="132.715" y="532.476"/>
      <point x="132.715" y="476.205" type="curve" smooth="yes"/>
      <point x="132.715" y="430.322"/>
      <point x="155.704" y="390.22"/>
      <point x="185" y="385" type="curve" smooth="yes"/>
      <point x="460" y="336" type="line" smooth="yes"/>
      <point x="547.407" y="320.426"/>
      <point x="597" y="257.002"/>
    </contour>
  </outline>
</glyph>
<glyph name="scedilla" format="1">
  <advance width="625"/>
  <unicode hex="015F"/>
  <outline>
    <contour>
      <point x="60" y="107.525" type="curve" smooth="yes"/>
      <point x="60" y="149.317"/>
      <point x="72.1323" y="167"/>
      <point x="100.806" y="167" type="curve" smooth="yes"/>
      <point x="166.518" y="167"/>
      <point x="93.1564" y="72"/>
      <point x="177" y="72" type="curve" smooth="yes"/>
      <point x="445" y="72" type="line" smooth="yes"/>
      <point x="476.635" y="72"/>
      <point x="494" y="92.1078"/>
      <point x="494" y="128.74" type="curve" smooth="yes"/>
      <point x="494" y="170.654"/>
      <point x="473.821" y="200"/>
      <point x="445" y="200" type="curve" smooth="yes"/>
      <point x="199" y="200" type="line" smooth="yes"/>
      <point x="109.572" y="200"/>
      <point x="60" y="247.543"/>
      <point x="60" y="333.311" type="curve" smooth="yes"/>
      <point x="60" y="421.591"/>
      <point x="112.159" y="461"/>
      <point x="229" y="461" type="curve" smooth="yes"/>
      <point x="454" y="461" type="line" smooth="yes"/>
      <point x="528.067" y="461"/>
      <point x="564" y="425.166"/>
      <point x="564" y="351.304" type="curve" smooth="yes"/>
      <point x="564" y="311.491"/>
      <point x="551.88" y="294"/>
      <point x="524.294" y="294" type="curve" smooth="yes"/>
      <point x="460.347" y="294"/>
      <point x="529.255" y="389"/>
      <point x="447" y="389" type="curve" smooth="yes"/>
      <point x="181" y="389" type="line" smooth="yes"/>
      <point x="148.913" y="389"/>
      <point x="132" y="370.527"/>
      <point x="132" y="335.479" type="curve" smooth="yes"/>
      <point x="132" y="296.885"/>
      <point x="151.209" y="272"/>
      <point x="181" y="272" type="curve" smooth="yes"/>
      <point x="428" y="272" type="line" smooth="yes"/>
      <point x="516.719" y="272"/>
      <point x="566" y="222.761"/>
      <point x="566" y="134.118" type="curve" smooth="yes"/>
      <point x="566" y="-16.0724"/>
      <point x="423.673" y="0"/>
      <point x="318" y="0" type="curve"/>
      <point x="322.494" y="-27.4205"/>
      <point x="387" y="-42.9183"/>
      <point x="387" y="-103.378" type="curve" smooth="yes"/>
      <point x="387" y="-152.85"/>
      <point x="340.947" y="-190"/>
      <point x="279.621" y="-190" type="curve" smooth="yes"/>
      <point x="228.386" y="-190"/>
      <point x="193.388" y="-165.729"/>
      <point x="193.388" y="-130.199" type="curve" smooth="yes"/>
      <point x="193.388" y="-120.593"/>
      <point x="195.679" y="-113.246"/>
      <point x="200" y="-109" type="curve"/>
      <point x="201.692" y="-104.167"/>
      <point x="206.433" y="-101.833"/>
      <point x="214.561" y="-101.833" type="curve" smooth="yes"/>
      <point x="240.794" y="-101.833"/>
      <point x="267.982" y="-124.843"/>
      <point x="293.026" y="-124.843" type="curve" smooth="yes"/>
      <point x="298.31" y="-124.843"/>
      <point x="301.026" y="-123.68"/>
      <point x="302" y="-121" type="curve"/>
      <point x="308.668" y="-120.37"/>
      <point x="315.111" y="-113.112"/>
      <point x="315.111" y="-106.231" type="curve" smooth="yes"/>
      <point x="315.111" y="-87.2117"/>
      <point x="248.171" y="-60.1085"/>
      <point x="246" y="0" type="curve"/>
      <point x="143.317" y="0"/>
      <point x="60" y="-12.6553"/>
    </contour>
  </outline>
</glyph>
<glyph name="tbar" format="1">
  <advance width="378"/>
  <unicode hex="0167"/>
  <outline>
    <contour>
      <point x="152" y="181" type="line" smooth="yes"/>
      <point x="152" y="71.5225"/>
      <point x="208.674" y="72"/>
      <point x="233.049" y="72" type="curve" smooth="yes"/>
      <point x="325.827" y="72"/>
      <point x="348" y="65.1513"/>
      <point x="348" y="36.4939" type="curve" smooth="yes"/>
      <point x="348" y="9.34535"/>
      <point x="328.055" y="-0"/>
      <point x="270.113" y="-0" type="curve" smooth="yes"/>
      <point x="140.168" y="-0"/>
      <point x="80" y="56.3343"/>
      <point x="80" y="178" type="curve" smooth="yes"/>
      <point x="80" y="261" type="line"/>
      <point x="61.581" y="263.947"/>
      <point x="49" y="278.16"/>
      <point x="49" y="296.022" type="curve" smooth="yes"/>
      <point x="49" y="313.861"/>
      <point x="61.5714" y="328.451"/>
      <point x="80" y="332" type="curve"/>
      <point x="80" y="394" type="line"/>
      <point x="61.6175" y="396.933"/>
      <point x="49" y="410.365"/>
      <point x="49" y="427" type="curve" smooth="yes"/>
      <point x="49" y="443.635"/>
      <point x="61.6175" y="457.067"/>
      <point x="80" y="460" type="curve"/>
      <point x="80" y="555" type="line" smooth="yes"/>
      <point x="80" y="585.319"/>
      <point x="92.1108" y="601"/>
      <point x="115.527" y="601" type="curve" smooth="yes"/>
      <point x="139.363" y="601"/>
      <point x="152" y="585.062"/>
      <point x="152" y="555" type="curve" smooth="yes"/>
      <point x="152" y="461" type="line"/>
      <point x="280" y="461" type="line" smooth="yes"/>
      <point x="310.062" y="461"/>
      <point x="326" y="448.363"/>
      <point x="326" y="424.527" type="curve" smooth="yes"/>
      <point x="326" y="401.111"/>
      <point x="310.319" y="389"/>
      <point x="280" y="389" type="curve" smooth="yes"/>
      <point x="152" y="389" type="line"/>
      <point x="152" y="333" type="line"/>
      <point x="308" y="333" type="line" smooth="yes"/>
      <point x="336.458" y="333"/>
      <point x="352" y="320.769"/>
      <point x="352" y="298.375" type="curve" smooth="yes"/>
      <point x="352" y="275.424"/>
      <point x="334.315" y="260"/>
      <point x="308" y="260" type="curve" smooth="yes"/>
      <point x="152" y="260" type="line"/>
    </contour>
  </outline>
</glyph>
<glyph name="Uogonek" format="1">
  <advance width="661"/>
  <unicode hex="0172"/>
  <outline>
    <contour>
      <point x="312" y="-97.9359" type="curve" smooth="yes"/>
      <point x="312" y="-119.537"/>
      <point x="324.845" y="-134"/>
      <point x="344.028" y="-134" type="curve" smooth="yes"/>
      <point x="366.807" y="-134"/>
      <point x="388.625" y="-117"/>
      <point x="410.21" y="-117" type="curve" smooth="yes"/>
      <point x="426.125" y="-117"/>
      <point x="435" y="-126.609"/>
      <point x="435" y="-143.839" type="curve" smooth="yes"/>
      <point x="435" y="-177.123"/>
      <point x="395.398" y="-204.182"/>
      <point x="346.686" y="-204.182" type="curve" smooth="yes"/>
      <point x="287.139" y="-204.182"/>
      <point x="239.632" y="-157.785"/>
      <point x="239.632" y="-99.6293" type="curve" smooth="yes"/>
      <point x="239.632" y="-70.0767"/>
      <point x="250.755" y="-43.3394"/>
      <point x="279" y="-5" type="curve"/>
      <point x="153.689" y="14.0377"/>
      <point x="78" y="102.53"/>
      <point x="78" y="230" type="curve" smooth="yes"/>
      <point x="78" y="602" type="line" smooth="yes"/>
      <point x="78" y="628.803"/>
      <point x="89.9128" y="643"/>
      <point x="112.403" y="643" type="curve" smooth="yes"/>
      <point x="135.549" y="643"/>
      <point x="150" y="627.626"/>
      <point x="150" y="603" type="curve" smooth="yes"/>
      <point x="150" y="233" type="line" smooth="yes"/>
      <point x="150" y="123.083"/>
      <point x="213.617" y="63"/>
      <point x="330" y="63" type="curve" smooth="yes"/>
      <point x="446.383" y="63"/>
      <point x="510" y="123.083"/>
      <point x="510" y="233" type="curve" smooth="yes"/>
      <point x="510" y="603" type="line" smooth="yes"/>
      <point x="510" y="629.396"/>
      <point x="522.191" y="643"/>
      <point x="545.847" y="643" type="curve" smooth="yes"/>
      <point x="569.732" y="643"/>
      <point x="582" y="629.087"/>
      <point x="582" y="602" type="curve" smooth="yes"/>
      <point x="582" y="230" type="line" smooth="yes"/>
      <point x="582" y="98.6445"/>
      <point x="502.432" y="8.79792"/>
      <point x="373" y="-6" type="curve"/>
      <point x="340.602" y="-28.0679"/>
      <point x="312" y="-71.175"/>
    </contour>
  </outline>
</glyph>
<glyph name="florin" format="1">
  <advance width="375"/>
  <unicode hex="0192"/>
  <outline>
    <contour>
      <point x="22.0433" y="-105" type="curve" smooth="yes"/>
      <point x="-29.7568" y="-105"/>
      <point x="-48" y="-95.3924"/>
      <point x="-48" y="-68.1121" type="curve" smooth="yes"/>
      <point x="-48" y="-8.02834"/>
      <point x="44.2358" y="-49.9705"/>
      <point x="66.945" y="-20.7838" type="curve" smooth="yes"/>
      <point x="81.192" y="-2.47297"/>
      <point x="81" y="60.4464"/>
      <point x="81" y="79" type="curve" smooth="yes"/>
      <point x="81" y="394" type="line"/>
      <point x="62.6421" y="396.922"/>
      <point x="49.9995" y="410.32"/>
      <point x="49.9995" y="426.852" type="curve" smooth="yes"/>
      <point x="49.9995" y="443.583"/>
      <point x="63.0312" y="457.082"/>
      <point x="82" y="460" type="curve"/>
      <point x="88.4261" y="578.482"/>
      <point x="158.383" y="636"/>
      <point x="296.062" y="636" type="curve" smooth="yes"/>
      <point x="359.278" y="636"/>
      <point x="380" y="626.946"/>
      <point x="380" y="599.328" type="curve" smooth="yes"/>
      <point x="380" y="512.517"/>
      <point x="177.342" y="634.951"/>
      <point x="167" y="461" type="curve"/>
      <point x="311" y="461" type="line" smooth="yes"/>
      <point x="341.062" y="461"/>
      <point x="357" y="448.363"/>
      <point x="357" y="424.527" type="curve" smooth="yes"/>
      <point x="357" y="401.111"/>
      <point x="341.318" y="389"/>
      <point x="311" y="389" type="curve" smooth="yes"/>
      <point x="167" y="389" type="line"/>
      <point x="167" y="50" type="line" smooth="yes"/>
      <point x="167" y="-62.9801"/>
      <point x="127.703" y="-105"/>
    </contour>
  </outline>
</glyph>
<glyph name="ohorn" format="1">
  <advance width="700"/>
  <unicode hex="01A1"/>
  <outline>
    <contour>
      <point x="523" y="181" type="curve" smooth="yes"/>
      <point x="523" y="280" type="line" smooth="yes"/>
      <point x="523" y="363.644"/>
      <point x="487.334" y="390.259"/>
      <point x="375.242" y="390.259" type="curve" smooth="yes"/>
      <point x="329.569" y="390.259"/>
      <point x="198.212" y="391.855"/>
      <point x="159.406" y="364.872" type="curve" smooth="yes"/>
      <point x="141.167" y="352.19"/>
      <point x="133" y="325.939"/>
      <point x="133" y="280" type="curve" smooth="yes"/>
      <point x="133" y="181" type="line" smooth="yes"/>
      <point x="133" y="135.269"/>
      <point x="141.279" y="108.751"/>
      <point x="159.521" y="96.0535" type="curve" smooth="yes"/>
      <point x="198.483" y="68.9346"/>
      <point x="331.011" y="70.7421"/>
      <point x="375.557" y="70.7421" type="curve" smooth="yes"/>
      <point x="487.298" y="70.7421"/>
      <point x="523" y="97.4398"/>
    </contour>
    <contour>
      <point x="61" y="178" type="curve" smooth="yes"/>
      <point x="61" y="283" type="line" smooth="yes"/>
      <point x="61" y="413.91"/>
      <point x="129.443" y="461.02"/>
      <point x="319.633" y="461.02" type="curve" smooth="yes"/>
      <point x="418.465" y="461.02"/>
      <point x="549.018" y="463.468"/>
      <point x="584" y="359" type="curve"/>
      <point x="614.822" y="360.913"/>
      <point x="638.218" y="376.071"/>
      <point x="638.218" y="394.127" type="curve" smooth="yes"/>
      <point x="638.218" y="421.06"/>
      <point x="597.737" y="426.211"/>
      <point x="597.737" y="454.326" type="curve" smooth="yes"/>
      <point x="597.737" y="473.062"/>
      <point x="617.35" y="492"/>
      <point x="636.754" y="492" type="curve" smooth="yes"/>
      <point x="669.235" y="492"/>
      <point x="711" y="428.021"/>
      <point x="711" y="378.264" type="curve" smooth="yes"/>
      <point x="711" y="330.914"/>
      <point x="666.751" y="297.245"/>
      <point x="595" y="290" type="curve"/>
      <point x="595" y="178" type="line" smooth="yes"/>
      <point x="595" y="51.9906"/>
      <point x="526.672" y="-0.00116888"/>
      <point x="361.069" y="-0.00116888" type="curve" smooth="yes"/>
      <point x="129.897" y="-0.00116888"/>
      <point x="61" y="40.8685"/>
    </contour>
  </outline>
</glyph>
<glyph name="Uhorn" format="1">
  <advance width="699"/>
  <unicode hex="01AF"/>
  <outline>
    <contour>
      <point x="544.357" y="643" type="curve" smooth="yes"/>
      <point x="569.993" y="643"/>
      <point x="583.036" y="623.257"/>
      <point x="583.036" y="584.452" type="curve" smooth="yes"/>
      <point x="583.036" y="570.991"/>
      <point x="581.759" y="556.994"/>
      <point x="581" y="543" type="curve"/>
      <point x="614.366" y="545.41"/>
      <point x="638.509" y="560.229"/>
      <point x="638.509" y="578.3" type="curve" smooth="yes"/>
      <point x="638.509" y="604.983"/>
      <point x="597.737" y="610.122"/>
      <point x="597.737" y="638.322" type="curve" smooth="yes"/>
      <point x="597.737" y="657.014"/>
      <point x="617.303" y="676"/>
      <point x="636.566" y="676" type="curve" smooth="yes"/>
      <point x="669.076" y="676"/>
      <point x="711" y="611.326"/>
      <point x="711" y="561.176" type="curve" smooth="yes"/>
      <point x="711" y="511.262"/>
      <point x="662.082" y="477.706"/>
      <point x="581" y="472" type="curve"/>
      <point x="581" y="230" type="line" smooth="yes"/>
      <point x="581" y="85.5872"/>
      <point x="480.837" y="-9"/>
      <point x="327.912" y="-9" type="curve" smooth="yes"/>
      <point x="175.62" y="-9"/>
      <point x="77" y="84.9374"/>
      <point x="77" y="230" type="curve" smooth="yes"/>
      <point x="77" y="602" type="line" smooth="yes"/>
      <point x="77" y="627.864"/>
      <point x="89.6036" y="643"/>
      <point x="111.14" y="643" type="curve" smooth="yes"/>
      <point x="133.356" y="643"/>
      <point x="149" y="626.471"/>
      <point x="149" y="603" type="curve" smooth="yes"/>
      <point x="149" y="233" type="line" smooth="yes"/>
      <point x="149" y="124.426"/>
      <point x="214.04" y="63"/>
      <point x="329" y="63" type="curve" smooth="yes"/>
      <point x="443.96" y="63"/>
      <point x="509" y="124.426"/>
      <point x="509" y="233" type="curve" smooth="yes"/>
      <point x="509" y="603" type="line" smooth="yes"/>
      <point x="509" y="628.437"/>
      <point x="521.872" y="643"/>
    </contour>
  </outline>
</glyph>
<glyph name="uni0237" format="1">
  <advance width="222"/>
  <unicode hex="0237"/>
  <outline>
    <contour>
      <point x="147" y="0" type="line" smooth="yes"/>
      <point x="147" y="-121.791"/>
      <point x="89.7186" y="-175"/>
      <point x="-41.3938" y="-175" type="curve" smooth="yes"/>
      <point x="-102.248" y="-175"/>
      <point x="-122" y="-166.136"/>
      <point x="-122" y="-138.827" type="curve" smooth="yes"/>
      <point x="-122" y="-92.1777"/>
      <point x="-62.5138" y="-102.321"/>
      <point x="-22.0674" y="-102.321" type="curve" smooth="yes"/>
      <point x="46.358" y="-102.321"/>
      <point x="75" y="-72.1285"/>
      <point x="75" y="0" type="curve" smooth="yes"/>
      <point x="75" y="422" type="line" smooth="yes"/>
      <point x="75" y="452.037"/>
      <point x="87.4926" y="468"/>
      <point x="111" y="468" type="curve" smooth="yes"/>
      <point x="134.507" y="468"/>
      <point x="147" y="452.037"/>
      <point x="147" y="422" type="curve" smooth="yes"/>
    </contour>
  </outline>
</glyph>
<glyph name="circumflex" format="1">
  <advance width="402"/>
  <unicode hex="02C6"/>
  <outline>
    <contour>
      <point x="167" y="678" type="line"/>
      <point x="234" y="678" type="line"/>
      <point x="345" y="562" type="line" smooth="yes"/>
      <point x="349.974" y="556.802"/>
      <point x="353" y="548.422"/>
      <point x="353" y="539.846" type="curve" smooth="yes"/>
      <point x="353" y="522.886"/>
      <point x="339.199" y="510"/>
      <point x="321.034" y="510" type="curve" smooth="yes"/>
      <point x="306.131" y="510"/>
      <point x="295.104" y="519.7"/>
      <point x="285" y="528" type="curve" smooth="yes"/>
      <point x="201" y="597" type="line"/>
      <point x="118" y="528" type="line" smooth="yes"/>
      <point x="107.94" y="519.637"/>
      <point x="96.8641" y="510"/>
      <point x="81.9878" y="510" type="curve" smooth="yes"/>
      <point x="63.8202" y="510"/>
      <point x="50" y="522.858"/>
      <point x="50" y="539.76" type="curve" smooth="yes"/>
      <point x="50" y="548.295"/>
      <point x="53.0253" y="556.706"/>
      <point x="58" y="562" type="curve" smooth="yes"/>
    </contour>
  </outline>
</glyph>
<glyph name="caron" format="1">
  <advance width="373"/>
  <unicode hex="02C7"/>
  <outline>
    <contour>
      <point x="221" y="507" type="line"/>
      <point x="157" y="507" type="line"/>
      <point x="49" y="620" type="line" smooth="yes"/>
      <point x="44.1944" y="625.028"/>
      <point x="41.3736" y="632.495"/>
      <point x="41.3736" y="640.188" type="curve" smooth="yes"/>
      <point x="41.3736" y="657.35"/>
      <point x="54.6584" y="671.562"/>
      <point x="70.7009" y="671.562" type="curve" smooth="yes"/>
      <point x="105.176" y="671.562"/>
      <point x="161.919" y="610.527"/>
      <point x="189" y="587" type="curve"/>
      <point x="216.081" y="610.527"/>
      <point x="272.824" y="671.562"/>
      <point x="307.299" y="671.562" type="curve" smooth="yes"/>
      <point x="323.342" y="671.562"/>
      <point x="336.626" y="657.35"/>
      <point x="336.626" y="640.188" type="curve" smooth="yes"/>
      <point x="336.626" y="632.495"/>
      <point x="333.805" y="625.028"/>
      <point x="329" y="620" type="curve" smooth="yes"/>
    </contour>
  </outline>
</glyph>
<glyph name="breve" format="1">
  <advance width="428"/>
  <unicode hex="02D8"/>
  <outline>
    <contour>
      <point x="344" y="720" type="line"/>
      <point x="344.159" y="648.433"/>
      <point x="288.083" y="594"/>
      <point x="214.195" y="594" type="curve" smooth="yes"/>
      <point x="140.255" y="594"/>
      <point x="83.8758" y="648.562"/>
      <point x="84" y="720" type="curve"/>
      <point x="157" y="720" type="line"/>
      <point x="155.293" y="689.001"/>
      <point x="178.314" y="668"/>
      <point x="214" y="668" type="curve" smooth="yes"/>
      <point x="249.686" y="668"/>
      <point x="272.707" y="689.001"/>
      <point x="271" y="720" type="curve"/>
    </contour>
  </outline>
</glyph>
<glyph name="dotaccent" format="1">
  <advance width="221"/>
  <unicode hex="02D9"/>
  <outline>
    <contour>
      <point x="172" y="630" type="curve" smooth="yes"/>
      <point x="172" y="602.965"/>
      <point x="144.139" y="580.235"/>
      <point x="111" y="580.235" type="curve" smooth="yes"/>
      <point x="77.861" y="580.235"/>
      <point x="50" y="602.965"/>
      <point x="50" y="630" type="curve" smooth="yes"/>
      <point x="50" y="657.035"/>
      <point x="77.861" y="679.765"/>
      <point x="111" y="679.765" type="curve" smooth="yes"/>
      <point x="144.139" y="679.765"/>
      <point x="172" y="657.035"/>
    </contour>
  </outline>
</glyph>
<glyph name="ring" format="1">
  <advance width="282"/>
  <unicode hex="02DA"/>
  <outline>
    <contour>
      <point x="107.587" y="594.83" type="curve" smooth="yes"/>
      <point x="107.587" y="577.482"/>
      <point x="124.114" y="561.412"/>
      <point x="141.954" y="561.412" type="curve" smooth="yes"/>
      <point x="159.099" y="561.412"/>
      <point x="174.413" y="576.395"/>
      <point x="174.413" y="593.17" type="curve" smooth="yes"/>
      <point x="174.413" y="610.518"/>
      <point x="157.886" y="626.588"/>
      <point x="140.046" y="626.588" type="curve" smooth="yes"/>
      <point x="122.901" y="626.588"/>
      <point x="107.587" y="611.605"/>
    </contour>
    <contour>
      <point x="141" y="681" type="curve" smooth="yes"/>
      <point x="188.425" y="681"/>
      <point x="228" y="641.425"/>
      <point x="228" y="594" type="curve" smooth="yes"/>
      <point x="228" y="546.575"/>
      <point x="188.425" y="507"/>
      <point x="141" y="507" type="curve" smooth="yes"/>
      <point x="93.5754" y="507"/>
      <point x="54" y="546.575"/>
      <point x="54" y="594" type="curve" smooth="yes"/>
      <point x="54" y="641.425"/>
      <point x="93.5754" y="681"/>
    </contour>
  </outline>
</glyph>
<glyph name="acutecomb" format="1">
  <advance width="0"/>
  <unicode hex="0301"/>
  <outline>
    <contour>
      <point x="-268.668" y="640.076" type="curve" smooth="yes"/>
      <point x="-250.213" y="640.076"/>
      <point x="-234.544" y="624.206"/>
      <point x="-234.544" y="605.513" type="curve" smooth="yes"/>
      <point x="-234.544" y="594.827"/>
      <point x="-239.665" y="583.214"/>
      <point x="-248" y="575" type="curve" smooth="yes"/>
      <point x="-317" y="507" type="line" smooth="yes"/>
      <point x="-328.166" y="495.996"/>
      <point x="-339.423" y="490.319"/>
      <point x="-350.078" y="490.319" type="curve" smooth="yes"/>
      <point x="-368.588" y="490.319"/>
      <point x="-385.237" y="506.968"/>
      <point x="-385.237" y="525.48" type="curve" smooth="yes"/>
      <point x="-385.237" y="535.396"/>
      <point x="-380.237" y="545.763"/>
      <point x="-371" y="555" type="curve" smooth="yes"/>
      <point x="-301" y="625" type="line" smooth="yes"/>
      <point x="-291.527" y="634.473"/>
      <point x="-279.511" y="640.076"/>
    </contour>
  </outline>
</glyph>
<glyph name="uni0307" format="1">
  <advance width="0"/>
  <unicode hex="0307"/>
  <outline>
    <contour>
      <point x="-304.437" y="505.972" type="curve" smooth="yes"/>
      <point x="-337.739" y="505.972"/>
      <point x="-368.181" y="531.749"/>
      <point x="-368.181" y="559.947" type="curve" smooth="yes"/>
      <point x="-368.181" y="586.957"/>
      <point x="-341.616" y="610.028"/>
      <point x="-310.515" y="610.028" type="curve" smooth="yes"/>
      <point x="-276.615" y="610.028"/>
      <point x="-245.729" y="584.618"/>
      <point x="-245.729" y="556.729" type="curve" smooth="yes"/>
      <point x="-245.729" y="529.745"/>
      <point x="-273.226" y="505.972"/>
    </contour>
  </outline>
</glyph>
<glyph name="hookabovecomb" format="1">
  <advance width="0"/>
  <unicode hex="0309"/>
  <outline>
    <contour>
      <point x="-270" y="599.834" type="curve" smooth="yes"/>
      <point x="-270" y="607.585"/>
      <point x="-277.904" y="614.102"/>
      <point x="-287.304" y="614.102" type="curve" smooth="yes"/>
      <point x="-307.345" y="614.102"/>
      <point x="-293.579" y="580"/>
      <point x="-325.355" y="580" type="curve" smooth="yes"/>
      <point x="-345.025" y="580"/>
      <point x="-358" y="592.38"/>
      <point x="-358" y="611.149" type="curve" smooth="yes"/>
      <point x="-358" y="641.88"/>
      <point x="-324.275" y="669.961"/>
      <point x="-287.367" y="669.961" type="curve" smooth="yes"/>
      <point x="-249.152" y="669.961"/>
      <point x="-213.93" y="640.069"/>
      <point x="-213.93" y="607.635" type="curve" smooth="yes"/>
      <point x="-213.93" y="568.689"/>
      <point x="-263" y="546.212"/>
      <point x="-263" y="528.411" type="curve" smooth="yes"/>
      <point x="-263" y="517.272"/>
      <point x="-276.321" y="507"/>
      <point x="-290.765" y="507" type="curve" smooth="yes"/>
      <point x="-308.867" y="507"/>
      <point x="-323" y="520.876"/>
      <point x="-323" y="538.65" type="curve" smooth="yes"/>
      <point x="-323" y="570.928"/>
      <point x="-270" y="578.47"/>
    </contour>
  </outline>
</glyph>
<glyph name="uni030A" format="1">
  <advance width="0"/>
  <unicode hex="030A"/>
  <outline>
    <contour>
      <point x="-340.413" y="582.83" type="curve" smooth="yes"/>
      <point x="-340.413" y="565.482"/>
      <point x="-323.886" y="549.412"/>
      <point x="-306.046" y="549.412" type="curve" smooth="yes"/>
      <point x="-288.901" y="549.412"/>
      <point x="-273.587" y="564.395"/>
      <point x="-273.587" y="581.17" type="curve" smooth="yes"/>
      <point x="-273.587" y="598.518"/>
      <point x="-290.114" y="614.588"/>
      <point x="-307.954" y="614.588" type="curve" smooth="yes"/>
      <point x="-325.099" y="614.588"/>
      <point x="-340.413" y="599.605"/>
    </contour>
    <contour>
      <point x="-307" y="669" type="curve" smooth="yes"/>
      <point x="-259.575" y="669"/>
      <point x="-220" y="629.425"/>
      <point x="-220" y="582" type="curve" smooth="yes"/>
      <point x="-220" y="534.575"/>
      <point x="-259.575" y="495"/>
      <point x="-307" y="495" type="curve" smooth="yes"/>
      <point x="-354.425" y="495"/>
      <point x="-394" y="534.575"/>
      <point x="-394" y="582" type="curve" smooth="yes"/>
      <point x="-394" y="629.425"/>
      <point x="-354.425" y="669"/>
    </contour>
  </outline>
</glyph>
<glyph name="uni030C" format="1">
  <advance width="0"/>
  <unicode hex="030C"/>
  <outline>
    <contour>
      <point x="-267" y="507" type="line"/>
      <point x="-331" y="507" type="line"/>
      <point x="-439" y="620" type="line" smooth="yes"/>
      <point x="-443.93" y="625.158"/>
      <point x="-446.626" y="632.492"/>
      <point x="-446.626" y="640.745" type="curve" smooth="yes"/>
      <point x="-446.626" y="658.06"/>
      <point x="-435.212" y="671.562"/>
      <point x="-420.573" y="671.562" type="curve" smooth="yes"/>
      <point x="-386.121" y="671.562"/>
      <point x="-314.767" y="600.139"/>
      <point x="-299" y="587" type="curve"/>
      <point x="-283.233" y="600.139"/>
      <point x="-211.879" y="671.562"/>
      <point x="-177.427" y="671.562" type="curve" smooth="yes"/>
      <point x="-162.788" y="671.562"/>
      <point x="-151.374" y="658.06"/>
      <point x="-151.374" y="640.745" type="curve" smooth="yes"/>
      <point x="-151.374" y="632.492"/>
      <point x="-154.07" y="625.158"/>
      <point x="-159" y="620" type="curve" smooth="yes"/>
    </contour>
  </outline>
</glyph>
<glyph name="uni0313" format="1">
  <advance width="0"/>
  <unicode hex="0313"/>
  <outline>
    <contour>
      <point x="-286" y="510.114" type="curve" smooth="yes"/>
      <point x="-286" y="525.304"/>
      <point x="-265.846" y="551.288"/>
      <point x="-264" y="568" type="curve"/>
      <point x="-290.661" y="574.646"/>
      <point x="-308" y="595.793"/>
      <point x="-308" y="621.661" type="curve" smooth="yes"/>
      <point x="-308" y="652.261"/>
      <point x="-279.975" y="678"/>
      <point x="-246.656" y="678" type="curve" smooth="yes"/>
      <point x="-216.349" y="678"/>
      <point x="-190" y="650.569"/>
      <point x="-190" y="619.017" type="curve" smooth="yes"/>
      <point x="-190" y="572.325"/>
      <point x="-240.041" y="493.63"/>
      <point x="-269.731" y="493.63" type="curve" smooth="yes"/>
      <point x="-279.081" y="493.63"/>
      <point x="-286" y="500.641"/>
    </contour>
  </outline>
</glyph>
<glyph name="uni031B" format="1">
  <advance width="114"/>
  <unicode hex="031B"/>
  <outline>
    <contour>
      <point x="-62" y="562" type="line"/>
      <point x="-10.4371" y="561.979"/>
      <point x="26.7704" y="576.908"/>
      <point x="26.7704" y="597.618" type="curve" smooth="yes"/>
      <point x="26.7704" y="623.375"/>
      <point x="-14.2626" y="629.599"/>
      <point x="-14.2626" y="657.626" type="curve" smooth="yes"/>
      <point x="-14.2626" y="676.254"/>
      <point x="5.71903" y="696"/>
      <point x="24.5694" y="696" type="curve" smooth="yes"/>
      <point x="57.2894" y="696"/>
      <point x="99" y="631.804"/>
      <point x="99" y="581.446" type="curve" smooth="yes"/>
      <point x="99" y="523.765"/>
      <point x="40.6093" y="490.963"/>
      <point x="-62" y="491" type="curve"/>
    </contour>
  </outline>
</glyph>
<glyph name="uni0327" format="1">
  <advance width="0"/>
  <unicode hex="0327"/>
  <outline>
    <contour>
      <point x="-195" y="-99.6795" type="curve" smooth="yes"/>
      <point x="-195" y="-151.953"/>
      <point x="-240.233" y="-190"/>
      <point x="-302.38" y="-190" type="curve" smooth="yes"/>
      <point x="-353.638" y="-190"/>
      <point x="-388.612" y="-165.689"/>
      <point x="-388.612" y="-130.06" type="curve" smooth="yes"/>
      <point x="-388.612" y="-120.37"/>
      <point x="-386.283" y="-112.949"/>
      <point x="-382" y="-109" type="curve"/>
      <point x="-380.318" y="-104.177"/>
      <point x="-375.537" y="-101.833"/>
      <point x="-367.383" y="-101.833" type="curve" smooth="yes"/>
      <point x="-341.213" y="-101.833"/>
      <point x="-314.011" y="-124.843"/>
      <point x="-288.973" y="-124.843" type="curve" smooth="yes"/>
      <point x="-283.69" y="-124.843"/>
      <point x="-280.974" y="-123.68"/>
      <point x="-280" y="-121" type="curve"/>
      <point x="-275.05" y="-120.533"/>
      <point x="-271.22" y="-117.852"/>
      <point x="-270" y="-114" type="curve"/>
      <point x="-266.382" y="-110.974"/>
      <point x="-264.272" y="-107.71"/>
      <point x="-264.272" y="-105.137" type="curve" smooth="yes"/>
      <point x="-264.272" y="-89.0532"/>
      <point x="-339.927" y="-60.3244"/>
      <point x="-336" y="10" type="curve"/>
      <point x="-264" y="10" type="line"/>
      <point x="-264" y="-37.0918"/>
      <point x="-195" y="-32.8923"/>
    </contour>
  </outline>
</glyph>
<glyph name="uni0334" format="1">
  <advance width="401"/>
  <unicode hex="0334"/>
  <outline>
    <contour>
      <point x="-106" y="253.548" type="curve" smooth="yes"/>
      <point x="-106" y="218.192"/>
      <point x="-181.296" y="168"/>
      <point x="-234.336" y="168" type="curve" smooth="yes"/>
      <point x="-277.698" y="168"/>
      <point x="-339.036" y="208"/>
      <point x="-372.372" y="208" type="curve" smooth="yes"/>
      <point x="-406.122" y="208"/>
      <point x="-441.573" y="167"/>
      <point x="-472.179" y="167" type="curve" smooth="yes"/>
      <point x="-492.073" y="167"/>
      <point x="-509" y="181.373"/>
      <point x="-509" y="198.265" type="curve" smooth="yes"/>
      <point x="-509" y="233.583"/>
      <point x="-433.652" y="284"/>
      <point x="-380.87" y="284" type="curve" smooth="yes"/>
      <point x="-338.576" y="284"/>
      <point x="-277.064" y="244"/>
      <point x="-244.213" y="244" type="curve" smooth="yes"/>
      <point x="-210.954" y="244"/>
      <point x="-174.65" y="285"/>
      <point x="-145.401" y="285" type="curve" smooth="yes"/>
      <point x="-124.547" y="285"/>
      <point x="-106" y="270.194"/>
    </contour>
  </outline>
</glyph>
<glyph name="uni0337" format="1">
  <advance width="0"/>
  <unicode hex="0337"/>
  <outline>
    <contour>
      <point x="-398.712" y="158.419" type="curve" smooth="yes"/>
      <point x="-415.911" y="158.419"/>
      <point x="-428.017" y="175.607"/>
      <point x="-428" y="200" type="curve"/>
      <point x="-429" y="201" type="line"/>
      <point x="-429.013" y="216.355"/>
      <point x="-412.16" y="222.354"/>
      <point x="-397.206" y="229.919" type="curve" smooth="yes"/>
      <point x="-371.717" y="242.814"/>
      <point x="-237.092" y="318.257"/>
      <point x="-204.578" y="318.257" type="curve" smooth="yes"/>
      <point x="-188.04" y="318.257"/>
      <point x="-173.987" y="300.675"/>
      <point x="-174" y="280" type="curve"/>
      <point x="-173" y="279" type="line"/>
      <point x="-172.997" y="267.304"/>
      <point x="-183.239" y="256.38"/>
      <point x="-203.885" y="246.058" type="curve" smooth="yes"/>
      <point x="-236.148" y="229.926"/>
      <point x="-363.448" y="158.419"/>
    </contour>
  </outline>
</glyph>
<glyph name="uni037A" format="1">
  <advance width="286"/>
  <unicode hex="037A"/>
  <outline>
    <contour>
      <point x="189.226" y="-179" type="curve" smooth="yes"/>
      <point x="110.441" y="-179"/>
      <point x="85" y="-145.071"/>
      <point x="85" y="-40" type="curve" smooth="yes"/>
      <point x="85" y="-11" type="line" smooth="yes"/>
      <point x="85" y="8.73776"/>
      <point x="97.2598" y="19"/>
      <point x="120.84" y="19" type="curve" smooth="yes"/>
      <point x="168.93" y="19"/>
      <point x="157" y="-23.1555"/>
      <point x="157" y="-56.8732" type="curve" smooth="yes"/>
      <point x="157" y="-149.485"/>
      <point x="247" y="-72.2305"/>
      <point x="247" y="-138.924" type="curve" smooth="yes"/>
      <point x="247" y="-167.764"/>
      <point x="230.802" y="-179"/>
    </contour>
  </outline>
</glyph>
<glyph name="anoteleia" format="1">
  <advance width="252"/>
  <unicode hex="0387"/>
  <outline>
    <contour>
      <point x="187" y="387" type="curve" smooth="yes"/>
      <point x="187" y="358.196"/>
      <point x="161.307" y="337.235"/>
      <point x="126" y="337.235" type="curve" smooth="yes"/>
      <point x="90.6931" y="337.235"/>
      <point x="65" y="358.196"/>
      <point x="65" y="387" type="curve" smooth="yes"/>
      <point x="65" y="415.804"/>
      <point x="90.6933" y="436.765"/>
      <point x="126" y="436.765" type="curve" smooth="yes"/>
      <point x="161.307" y="436.765"/>
      <point x="187" y="415.804"/>
    </contour>
  </outline>
</glyph>
<glyph name="Delta" format="1">
  <advance width="592"/>
  <unicode hex="0394"/>
  <outline>
    <contour>
      <point x="530" y="0" type="curve" smooth="yes"/>
      <point x="62" y="0" type="line" smooth="yes"/>
      <point x="42.8185" y="0"/>
      <point x="25.536" y="11.1649"/>
      <point x="25.536" y="23.5566" type="curve" smooth="yes"/>
      <point x="25.536" y="62.5889"/>
      <point x="231.215" y="556.009"/>
      <point x="244.989" y="590.171" type="curve" smooth="yes"/>
      <point x="260.543" y="628.747"/>
      <point x="274.997" y="644"/>
      <point x="296" y="644" type="curve" smooth="yes"/>
      <point x="317.003" y="644"/>
      <point x="331.457" y="628.747"/>
      <point x="347.011" y="590.171" type="curve" smooth="yes"/>
      <point x="360.785" y="556.009"/>
      <point x="566.464" y="62.5889"/>
      <point x="566.464" y="23.5568" type="curve" smooth="yes"/>
      <point x="566.464" y="11.1651"/>
      <point x="549.181" y="-0"/>
    </contour>
    <contour>
      <point x="480" y="73" type="line"/>
      <point x="296" y="536" type="line"/>
      <point x="112" y="73" type="line"/>
    </contour>
  </outline>
</glyph>
<glyph name="Theta" format="1">
  <advance width="632"/>
  <unicode hex="0398"/>
  <outline>
    <contour>
      <point x="220" y="281" type="line" smooth="yes"/>
      <point x="193.905" y="281"/>
      <point x="176" y="296.927"/>
      <point x="176" y="320.139" type="curve" smooth="yes"/>
      <point x="176" y="342.175"/>
      <point x="191.365" y="354"/>
      <point x="220" y="354" type="curve" smooth="yes"/>
      <point x="409" y="354" type="line" smooth="yes"/>
      <point x="435.827" y="354"/>
      <point x="454.944" y="338.967"/>
      <point x="454.944" y="317.872" type="curve" smooth="yes"/>
      <point x="454.944" y="296.571"/>
      <point x="435.542" y="281"/>
      <point x="409" y="281" type="curve" smooth="yes"/>
    </contour>
    <contour>
      <point x="64" y="230" type="curve" smooth="yes"/>
      <point x="64" y="406" type="line" smooth="yes"/>
      <point x="64" y="552.306"/>
      <point x="161.287" y="645"/>
      <point x="314.842" y="645" type="curve" smooth="yes"/>
      <point x="469.076" y="645"/>
      <point x="568" y="551.608"/>
      <point x="568" y="406" type="curve" smooth="yes"/>
      <point x="568" y="230" type="line" smooth="yes"/>
      <point x="568" y="84.3915"/>
      <point x="469.076" y="-9"/>
      <point x="314.842" y="-9" type="curve" smooth="yes"/>
      <point x="161.286" y="-9"/>
      <point x="64" y="83.6937"/>
    </contour>
    <contour>
      <point x="136" y="403" type="curve" smooth="yes"/>
      <point x="136" y="233" type="line" smooth="yes"/>
      <point x="136" y="123.083"/>
      <point x="199.617" y="63"/>
      <point x="316" y="63" type="curve" smooth="yes"/>
      <point x="432.383" y="63"/>
      <point x="496" y="123.083"/>
      <point x="496" y="233" type="curve" smooth="yes"/>
      <point x="496" y="403" type="line" smooth="yes"/>
      <point x="496" y="512.889"/>
      <point x="432.353" y="573"/>
      <point x="316" y="573" type="curve" smooth="yes"/>
      <point x="199.647" y="573"/>
      <point x="136" y="512.889"/>
    </contour>
  </outline>
</glyph>
<glyph name="Lambda" format="1">
  <advance width="608"/>
  <unicode hex="039B"/>
  <outline>
    <contour>
      <point x="23" y="9.5475" type="curve" smooth="yes"/>
      <point x="23" y="15.6306"/>
      <point x="24.3233" y="23.77"/>
      <point x="26" y="28" type="curve" smooth="yes"/>
      <point x="267" y="636" type="line"/>
      <point x="341" y="636" type="line"/>
      <point x="582" y="28" type="line" smooth="yes"/>
      <point x="583.697" y="23.7187"/>
      <point x="585" y="15.6248"/>
      <point x="585" y="9.36461" type="curve" smooth="yes"/>
      <point x="585" y="-5.94284"/>
      <point x="572.559" y="-16"/>
      <point x="553.624" y="-16" type="curve" smooth="yes"/>
      <point x="534.252" y="-16"/>
      <point x="516.604" y="-7.52024"/>
      <point x="512" y="4" type="curve" smooth="yes"/>
      <point x="303" y="527" type="line"/>
      <point x="96" y="4" type="line" smooth="yes"/>
      <point x="91.3747" y="-7.68621"/>
      <point x="75.1356" y="-16"/>
      <point x="56.9348" y="-16" type="curve" smooth="yes"/>
      <point x="36.7396" y="-16"/>
      <point x="23" y="-5.65629"/>
    </contour>
  </outline>
</glyph>
<glyph name="Xi" format="1">
  <advance width="641"/>
  <unicode hex="039E"/>
  <outline>
    <contour>
      <point x="209" y="281" type="line" smooth="yes"/>
      <point x="182.971" y="281"/>
      <point x="165" y="296.836"/>
      <point x="165" y="319.771" type="curve" smooth="yes"/>
      <point x="165" y="341.419"/>
      <point x="180.335" y="353"/>
      <point x="209" y="353" type="curve" smooth="yes"/>
      <point x="428" y="353" type="line" smooth="yes"/>
      <point x="454.804" y="353"/>
      <point x="473.944" y="338.154"/>
      <point x="473.944" y="317.364" type="curve" smooth="yes"/>
      <point x="473.944" y="296.373"/>
      <point x="454.52" y="281"/>
      <point x="428" y="281" type="curve" smooth="yes"/>
    </contour>
    <contour>
      <point x="89" y="575" type="line" smooth="yes"/>
      <point x="62.2659" y="575"/>
      <point x="48" y="586.833"/>
      <point x="48" y="609.008" type="curve" smooth="yes"/>
      <point x="48" y="632.119"/>
      <point x="64.0595" y="647"/>
      <point x="89" y="647" type="curve" smooth="yes"/>
      <point x="549" y="647" type="line" smooth="yes"/>
      <point x="575.776" y="647"/>
      <point x="593.195" y="632.692"/>
      <point x="593.195" y="610.699" type="curve" smooth="yes"/>
      <point x="593.195" y="589.09"/>
      <point x="575.752" y="575"/>
      <point x="549" y="575" type="curve" smooth="yes"/>
    </contour>
    <contour>
      <point x="89" y="0" type="line" smooth="yes"/>
      <point x="62.2659" y="0"/>
      <point x="48" y="11.8331"/>
      <point x="48" y="34.008" type="curve" smooth="yes"/>
      <point x="48" y="57.1189"/>
      <point x="64.0593" y="72"/>
      <point x="89" y="72" type="curve" smooth="yes"/>
      <point x="549" y="72" type="line" smooth="yes"/>
      <point x="574.949" y="72"/>
      <point x="593.706" y="56.8955"/>
      <point x="593.706" y="36" type="curve" smooth="yes"/>
      <point x="593.706" y="15.1045"/>
      <point x="574.949" y="-0"/>
      <point x="549" y="0" type="curve" smooth="yes"/>
    </contour>
  </outline>
</glyph>
<glyph name="Sigma" format="1">
  <advance width="619"/>
  <unicode hex="03A3"/>
  <outline>
    <contour>
      <point x="32" y="614.201" type="curve" smooth="yes"/>
      <point x="32" y="635.512"/>
      <point x="46.3604" y="647"/>
      <point x="73" y="647" type="curve" smooth="yes"/>
      <point x="533" y="647" type="line" smooth="yes"/>
      <point x="558.788" y="647"/>
      <point x="577.706" y="631.766"/>
      <point x="577.706" y="611" type="curve" smooth="yes"/>
      <point x="577.706" y="590.234"/>
      <point x="558.788" y="575"/>
      <point x="533" y="575" type="curve" smooth="yes"/>
      <point x="147" y="575" type="line"/>
      <point x="369" y="351" type="line" smooth="yes"/>
      <point x="380.125" y="339.774"/>
      <point x="384.021" y="332.852"/>
      <point x="384.021" y="324.308" type="curve" smooth="yes"/>
      <point x="384.021" y="314.948"/>
      <point x="378.584" y="303.584"/>
      <point x="370" y="295" type="curve" smooth="yes"/>
      <point x="147" y="72" type="line"/>
      <point x="533" y="72" type="line" smooth="yes"/>
      <point x="558.788" y="72"/>
      <point x="577.706" y="56.766"/>
      <point x="577.706" y="36" type="curve" smooth="yes"/>
      <point x="577.706" y="15.234"/>
      <point x="558.788" y="-0"/>
      <point x="533" y="0" type="curve" smooth="yes"/>
      <point x="67" y="0" type="line" smooth="yes"/>
      <point x="47.4724" y="0"/>
      <point x="32.593" y="14.1823"/>
      <point x="32.593" y="32.7951" type="curve" smooth="yes"/>
      <point x="32.593" y="43.1976"/>
      <point x="37.0815" y="54.6894"/>
      <point x="44" y="62" type="curve" smooth="yes"/>
      <point x="291" y="323" type="line"/>
      <point x="44" y="584" type="line" smooth="yes"/>
      <point x="36.1004" y="592.347"/>
      <point x="32" y="602.667"/>
    </contour>
  </outline>
</glyph>
<glyph name="Phi" format="1">
  <advance width="588"/>
  <unicode hex="03A6"/>
  <outline>
    <contour>
      <point x="297.824" y="-7" type="curve" smooth="yes"/>
      <point x="249.625" y="-7"/>
      <point x="256.691" y="43.025"/>
      <point x="257" y="74" type="curve"/>
      <point x="120.005" y="89.117"/>
      <point x="42" y="176.918"/>
      <point x="42" y="316" type="curve" smooth="yes"/>
      <point x="42" y="455.672"/>
      <point x="121.883" y="547.072"/>
      <point x="257" y="562" type="curve"/>
      <point x="256.872" y="572.3"/>
      <point x="256.199" y="582.587"/>
      <point x="256.199" y="591.76" type="curve" smooth="yes"/>
      <point x="256.199" y="627.71"/>
      <point x="268.063" y="643"/>
      <point x="295.959" y="643" type="curve" smooth="yes"/>
      <point x="344.765" y="643"/>
      <point x="336.377" y="595.146"/>
      <point x="336" y="562" type="curve"/>
      <point x="469.455" y="545.415"/>
      <point x="546" y="457.181"/>
      <point x="546" y="319.933" type="curve" smooth="yes"/>
      <point x="546" y="182.134"/>
      <point x="467.651" y="90.3784"/>
      <point x="336" y="74" type="curve"/>
      <point x="336.111" y="63.9989"/>
      <point x="336.709" y="54.0074"/>
      <point x="336.709" y="45.2483" type="curve" smooth="yes"/>
      <point x="336.709" y="8.64392"/>
      <point x="325.066" y="-7"/>
    </contour>
    <contour>
      <point x="474" y="315.44" type="curve" smooth="yes"/>
      <point x="474" y="421.349"/>
      <point x="425.449" y="485.93"/>
      <point x="336" y="499" type="curve"/>
      <point x="336" y="137" type="line"/>
      <point x="425.972" y="148.778"/>
      <point x="474" y="210.88"/>
    </contour>
    <contour>
      <point x="114" y="317.752" type="curve" smooth="yes"/>
      <point x="114" y="208.954"/>
      <point x="161.758" y="148.254"/>
      <point x="257" y="136" type="curve"/>
      <point x="257" y="500" type="line"/>
      <point x="162.514" y="488.529"/>
      <point x="114" y="426.7"/>
    </contour>
  </outline>
</glyph>
<glyph name="alpha" format="1">
  <advance width="625"/>
  <unicode hex="03B1"/>
  <outline>
    <contour>
      <point x="543.795" y="-0" type="curve" smooth="yes"/>
      <point x="491.17" y="-0"/>
      <point x="456.409" y="17.7572"/>
      <point x="442" y="52" type="curve"/>
      <point x="399.816" y="17.2241"/>
      <point x="341.054" y="-0"/>
      <point x="264.596" y="-0" type="curve" smooth="yes"/>
      <point x="121.598" y="-0"/>
      <point x="59" y="60.2853"/>
      <point x="59" y="198" type="curve" smooth="yes"/>
      <point x="59" y="263" type="line" smooth="yes"/>
      <point x="59" y="399.977"/>
      <point x="122.492" y="461"/>
      <point x="265.013" y="461" type="curve" smooth="yes"/>
      <point x="332.707" y="461"/>
      <point x="387.73" y="446.908"/>
      <point x="429" y="419" type="curve"/>
      <point x="428.338" y="450.203"/>
      <point x="442.566" y="468"/>
      <point x="468.174" y="468" type="curve" smooth="yes"/>
      <point x="491.619" y="468"/>
      <point x="504" y="453.485"/>
      <point x="504" y="426" type="curve" smooth="yes"/>
      <point x="504" y="118" type="line" smooth="yes"/>
      <point x="504" y="32.0712"/>
      <point x="594" y="105.574"/>
      <point x="594" y="39.2743" type="curve" smooth="yes"/>
      <point x="594" y="11.992"/>
      <point x="578.671" y="-0"/>
    </contour>
    <contour>
      <point x="131" y="263" type="curve" smooth="yes"/>
      <point x="131" y="198" type="line" smooth="yes"/>
      <point x="131" y="100.799"/>
      <point x="160.79" y="72"/>
      <point x="261.335" y="72" type="curve" smooth="yes"/>
      <point x="378.301" y="72"/>
      <point x="429" y="110.1"/>
      <point x="429" y="198" type="curve" smooth="yes"/>
      <point x="429" y="263" type="line" smooth="yes"/>
      <point x="429" y="350.899"/>
      <point x="378.301" y="389"/>
      <point x="261.335" y="389" type="curve" smooth="yes"/>
      <point x="160.79" y="389"/>
      <point x="131" y="360.201"/>
    </contour>
  </outline>
</glyph>
<glyph name="gamma" format="1">
  <advance width="568"/>
  <unicode hex="03B3"/>
  <outline>
    <contour>
      <point x="24.9998" y="425.823" type="curve" smooth="yes"/>
      <point x="24.9998" y="448.384"/>
      <point x="41.9037" y="461.006"/>
      <point x="72.1169" y="461.006" type="curve" smooth="yes"/>
      <point x="87.329" y="461.006"/>
      <point x="102.193" y="457.774"/>
      <point x="116.363" y="451.386" type="curve" smooth="yes"/>
      <point x="144.873" y="438.531"/>
      <point x="161.508" y="418.359"/>
      <point x="181.279" y="372.666" type="curve" smooth="yes"/>
      <point x="224.708" y="272.298"/>
      <point x="252.054" y="165.698"/>
      <point x="287" y="64" type="curve"/>
      <point x="469" y="441" type="line" smooth="yes"/>
      <point x="477.637" y="458.89"/>
      <point x="490.657" y="468"/>
      <point x="507.589" y="468" type="curve" smooth="yes"/>
      <point x="527.187" y="468"/>
      <point x="539.051" y="456.154"/>
      <point x="539.051" y="436.587" type="curve" smooth="yes"/>
      <point x="539.051" y="430.255"/>
      <point x="538.133" y="423.282"/>
      <point x="537" y="421" type="curve" smooth="yes"/>
      <point x="319" y="-18" type="line"/>
      <point x="319" y="-137" type="line" smooth="yes"/>
      <point x="319" y="-166.556"/>
      <point x="305.293" y="-182"/>
      <point x="279.064" y="-182" type="curve" smooth="yes"/>
      <point x="250.321" y="-182"/>
      <point x="240" y="-163.902"/>
      <point x="240" y="-113.499" type="curve" smooth="yes"/>
      <point x="240" y="-97.6667"/>
      <point x="241" y="-58.3333"/>
      <point x="241" y="-54.2815" type="curve" smooth="yes"/>
      <point x="241" y="-21.9803"/>
      <point x="140.571" y="276.6"/>
      <point x="107.081" y="343.868" type="curve" smooth="yes"/>
      <point x="104.282" y="349.488"/>
      <point x="85.2664" y="389"/>
      <point x="59.6269" y="389" type="curve" smooth="yes"/>
      <point x="40.7055" y="389"/>
      <point x="24.9998" y="405.702"/>
    </contour>
  </outline>
</glyph>
<glyph name="delta" format="1">
  <advance width="606"/>
  <unicode hex="03B4"/>
  <outline>
    <contour>
      <point x="95" y="600.248" type="curve" smooth="yes"/>
      <point x="95" y="622.406"/>
      <point x="111.281" y="637"/>
      <point x="136" y="637" type="curve" smooth="yes"/>
      <point x="479" y="637" type="line" smooth="yes"/>
      <point x="505.114" y="637"/>
      <point x="523.04" y="622.788"/>
      <point x="523.04" y="602.085" type="curve" smooth="yes"/>
      <point x="523.04" y="580.483"/>
      <point x="503.979" y="564"/>
      <point x="479" y="564" type="curve" smooth="yes"/>
      <point x="317" y="564" type="line"/>
      <point x="470.236" y="498.103"/>
      <point x="554" y="381.123"/>
      <point x="554" y="233.02" type="curve" smooth="yes"/>
      <point x="554" y="83.2372"/>
      <point x="462.458" y="-7"/>
      <point x="310.509" y="-7" type="curve" smooth="yes"/>
      <point x="155.564" y="-7"/>
      <point x="45" y="90.1461"/>
      <point x="45" y="226.287" type="curve" smooth="yes"/>
      <point x="45" y="359.01"/>
      <point x="160.179" y="461.432"/>
      <point x="309.432" y="461.432" type="curve" smooth="yes"/>
      <point x="326.487" y="461.432"/>
      <point x="342.778" y="459.946"/>
      <point x="358" y="457" type="curve"/>
      <point x="287.85" y="511.128"/>
      <point x="198.853" y="536.075"/>
      <point x="155.375" y="551.971" type="curve" smooth="yes"/>
      <point x="111.675" y="567.947"/>
      <point x="95" y="581.281"/>
    </contour>
    <contour>
      <point x="118" y="225.22" type="curve" smooth="yes"/>
      <point x="118" y="130.009"/>
      <point x="197.371" y="66"/>
      <point x="315.432" y="66" type="curve" smooth="yes"/>
      <point x="422.121" y="66"/>
      <point x="481" y="118.85"/>
      <point x="481" y="214.613" type="curve" smooth="yes"/>
      <point x="481" y="319.414"/>
      <point x="414.432" y="389"/>
      <point x="314.178" y="389" type="curve" smooth="yes"/>
      <point x="203.201" y="389"/>
      <point x="118" y="317.869"/>
    </contour>
  </outline>
</glyph>
<glyph name="zeta" format="1">
  <advance width="547"/>
  <unicode hex="03B6"/>
  <outline>
    <contour>
      <point x="52" y="234.349" type="curve" smooth="yes"/>
      <point x="52" y="382.046"/>
      <point x="137.029" y="498.837"/>
      <point x="292" y="564" type="curve"/>
      <point x="127" y="564" type="line" smooth="yes"/>
      <point x="102.021" y="564"/>
      <point x="82.9597" y="580.484"/>
      <point x="82.9597" y="602.085" type="curve" smooth="yes"/>
      <point x="82.9597" y="622.787"/>
      <point x="100.887" y="637"/>
      <point x="127" y="637" type="curve" smooth="yes"/>
      <point x="470" y="637" type="line" smooth="yes"/>
      <point x="495.027" y="637"/>
      <point x="511" y="622.009"/>
      <point x="511" y="598.521" type="curve" smooth="yes"/>
      <point x="511" y="581.697"/>
      <point x="503.263" y="568.518"/>
      <point x="488.962" y="560.98" type="curve" smooth="yes"/>
      <point x="477.882" y="555.139"/>
      <point x="461.437" y="551.806"/>
      <point x="434.574" y="543.241" type="curve" smooth="yes"/>
      <point x="403.447" y="533.317"/>
      <point x="366.981" y="519.25"/>
      <point x="338.401" y="506.143" type="curve" smooth="yes"/>
      <point x="196.555" y="441.089"/>
      <point x="125" y="348.439"/>
      <point x="125" y="229.828" type="curve" smooth="yes"/>
      <point x="125" y="113.919"/>
      <point x="191.073" y="66"/>
      <point x="350.897" y="66" type="curve" smooth="yes"/>
      <point x="411.045" y="66"/>
      <point x="531" y="72.4121"/>
      <point x="531" y="-48.8101" type="curve" smooth="yes"/>
      <point x="531" y="-118.611"/>
      <point x="493.721" y="-179"/>
      <point x="450.632" y="-179" type="curve" smooth="yes"/>
      <point x="430.256" y="-179"/>
      <point x="413" y="-164.036"/>
      <point x="413" y="-146.366" type="curve" smooth="yes"/>
      <point x="413" y="-120.156"/>
      <point x="459" y="-96.6823"/>
      <point x="459" y="-62.9381" type="curve" smooth="yes"/>
      <point x="459" y="-44.9795"/>
      <point x="448.862" y="-26.8176"/>
      <point x="435.178" y="-20.262" type="curve" smooth="yes"/>
      <point x="420.261" y="-13.1155"/>
      <point x="364.063" y="-7"/>
      <point x="313.31" y="-7" type="curve" smooth="yes"/>
      <point x="147.039" y="-7"/>
      <point x="52" y="80.7793"/>
    </contour>
  </outline>
</glyph>
<glyph name="eta" format="1">
  <advance width="651"/>
  <unicode hex="03B7"/>
  <outline>
    <contour>
      <point x="110" y="-7" type="curve" smooth="yes"/>
      <point x="86.4204" y="-7"/>
      <point x="74" y="7.49041"/>
      <point x="74" y="35" type="curve" smooth="yes"/>
      <point x="74" y="425" type="line" smooth="yes"/>
      <point x="74" y="453.345"/>
      <point x="86.23" y="468"/>
      <point x="109.885" y="468" type="curve" smooth="yes"/>
      <point x="135.839" y="468"/>
      <point x="146.398" y="451.334"/>
      <point x="146" y="411" type="curve"/>
      <point x="189.494" y="446.007"/>
      <point x="251.21" y="461"/>
      <point x="351.816" y="461" type="curve" smooth="yes"/>
      <point x="514.289" y="461"/>
      <point x="580" y="408.877"/>
      <point x="580" y="280" type="curve" smooth="yes"/>
      <point x="580" y="-160" type="line" smooth="yes"/>
      <point x="580" y="-189.408"/>
      <point x="567.526" y="-205"/>
      <point x="544" y="-205" type="curve" smooth="yes"/>
      <point x="520.474" y="-205"/>
      <point x="508" y="-189.408"/>
      <point x="508" y="-160" type="curve" smooth="yes"/>
      <point x="508" y="277" type="line" smooth="yes"/>
      <point x="508" y="363.129"/>
      <point x="473.832" y="389.095"/>
      <point x="360.495" y="389.095" type="curve" smooth="yes"/>
      <point x="204.997" y="389.095"/>
      <point x="146" y="345.061"/>
      <point x="146" y="229" type="curve" smooth="yes"/>
      <point x="146" y="35" type="line" smooth="yes"/>
      <point x="146" y="7.49041"/>
      <point x="133.58" y="-7"/>
    </contour>
  </outline>
</glyph>
<glyph name="iota" format="1">
  <advance width="250"/>
  <unicode hex="03B9"/>
  <outline>
    <contour>
      <point x="178.997" y="-0" type="curve" smooth="yes"/>
      <point x="98.4876" y="-0"/>
      <point x="70" y="33.977"/>
      <point x="70" y="130" type="curve" smooth="yes"/>
      <point x="70" y="426" type="line" smooth="yes"/>
      <point x="70" y="453.152"/>
      <point x="82.7268" y="468"/>
      <point x="106" y="468" type="curve" smooth="yes"/>
      <point x="129.273" y="468"/>
      <point x="142" y="453.152"/>
      <point x="142" y="426" type="curve" smooth="yes"/>
      <point x="142" y="118" type="line" smooth="yes"/>
      <point x="142" y="33.1266"/>
      <point x="232" y="104.617"/>
      <point x="232" y="39.2922" type="curve" smooth="yes"/>
      <point x="232" y="11.7351"/>
      <point x="216.17" y="-0"/>
    </contour>
  </outline>
</glyph>
<glyph name="kappa" format="1">
  <advance width="501"/>
  <unicode hex="03BA"/>
  <outline>
    <contour>
      <point x="466.908" y="27.1831" type="curve" smooth="yes"/>
      <point x="466.908" y="8.72962"/>
      <point x="448.533" y="-7.49527"/>
      <point x="427.634" y="-7.49527" type="curve" smooth="yes"/>
      <point x="419.482" y="-7.49527"/>
      <point x="413.645" y="-5.15009"/>
      <point x="404" y="2" type="curve" smooth="yes"/>
      <point x="145" y="194" type="line"/>
      <point x="145" y="32" type="line" smooth="yes"/>
      <point x="145" y="6.22686"/>
      <point x="132.791" y="-7"/>
      <point x="109" y="-7" type="curve" smooth="yes"/>
      <point x="85.2094" y="-7"/>
      <point x="73" y="6.22686"/>
      <point x="73" y="32" type="curve" smooth="yes"/>
      <point x="73" y="428" type="line" smooth="yes"/>
      <point x="73" y="451.517"/>
      <point x="88.0203" y="468.353"/>
      <point x="109" y="468.353" type="curve" smooth="yes"/>
      <point x="129.98" y="468.353"/>
      <point x="145" y="451.517"/>
      <point x="145" y="428" type="curve" smooth="yes"/>
      <point x="145" y="270" type="line"/>
      <point x="403" y="461" type="line" smooth="yes"/>
      <point x="411.65" y="467.404"/>
      <point x="419.262" y="470.233"/>
      <point x="427.84" y="470.233" type="curve" smooth="yes"/>
      <point x="448.853" y="470.233"/>
      <point x="467.278" y="454.503"/>
      <point x="467.278" y="436.563" type="curve" smooth="yes"/>
      <point x="467.278" y="425.2"/>
      <point x="460.056" y="413.376"/>
      <point x="448" y="405" type="curve" smooth="yes"/>
      <point x="199" y="232" type="line"/>
      <point x="449" y="58" type="line" smooth="yes"/>
      <point x="460.028" y="50.3245"/>
      <point x="466.908" y="38.4856"/>
    </contour>
  </outline>
</glyph>
<glyph name="xi" format="1">
  <advance width="546"/>
  <unicode hex="03BE"/>
  <outline>
    <contour>
      <point x="537" y="-46.271" type="curve" smooth="yes"/>
      <point x="537" y="-118.073"/>
      <point x="500.108" y="-179"/>
      <point x="456.632" y="-179" type="curve" smooth="yes"/>
      <point x="436.256" y="-179"/>
      <point x="419" y="-164.036"/>
      <point x="419" y="-146.366" type="curve" smooth="yes"/>
      <point x="419" y="-120.156"/>
      <point x="465" y="-96.6823"/>
      <point x="465" y="-52.7402" type="curve" smooth="yes"/>
      <point x="465" y="2.15613"/>
      <point x="393.207" y="-7"/>
      <point x="297.404" y="-7" type="curve" smooth="yes"/>
      <point x="135.41" y="-7"/>
      <point x="60" y="45.6103"/>
      <point x="60" y="158.627" type="curve" smooth="yes"/>
      <point x="60" y="223.214"/>
      <point x="84.1497" y="286.606"/>
      <point x="123" y="324" type="curve"/>
      <point x="86.3907" y="352.267"/>
      <point x="60" y="410.752"/>
      <point x="60" y="463.617" type="curve" smooth="yes"/>
      <point x="60" y="502.903"/>
      <point x="75.0459" y="538.028"/>
      <point x="103" y="564" type="curve"/>
      <point x="74.5015" y="564"/>
      <point x="41" y="560.799"/>
      <point x="41" y="599.127" type="curve" smooth="yes"/>
      <point x="41" y="623.586"/>
      <point x="54.803" y="636"/>
      <point x="82" y="636" type="curve" smooth="yes"/>
      <point x="423" y="636" type="line" smooth="yes"/>
      <point x="451.578" y="636"/>
      <point x="467" y="623.95"/>
      <point x="467" y="601.619" type="curve" smooth="yes"/>
      <point x="467" y="573.737"/>
      <point x="443.042" y="564"/>
      <point x="374.434" y="564" type="curve" smooth="yes"/>
      <point x="359.026" y="564"/>
      <point x="131" y="564.5"/>
      <point x="131" y="430.332" type="curve" smooth="yes"/>
      <point x="131" y="287.618"/>
      <point x="389" y="426.259"/>
      <point x="389" y="332.464" type="curve" smooth="yes"/>
      <point x="389" y="308.732"/>
      <point x="370.843" y="296"/>
      <point x="337" y="296" type="curve" smooth="yes"/>
      <point x="239" y="296" type="line" smooth="yes"/>
      <point x="180.03" y="296"/>
      <point x="132" y="240.882"/>
      <point x="132" y="173.208" type="curve" smooth="yes"/>
      <point x="132" y="117.238"/>
      <point x="174.081" y="80.4021"/>
      <point x="249.483" y="70.3674" type="curve" smooth="yes"/>
      <point x="369.052" y="54.4546"/>
      <point x="537" y="102.803"/>
    </contour>
  </outline>
</glyph>
<glyph name="pi" format="1">
  <advance width="640"/>
  <unicode hex="03C0"/>
  <outline>
    <contour>
      <point x="440" y="389" type="line"/>
      <point x="163" y="389" type="line"/>
      <point x="163" y="35" type="line" smooth="yes"/>
      <point x="163" y="7.29774"/>
      <point x="150.745" y="-7"/>
      <point x="127" y="-7" type="curve" smooth="yes"/>
      <point x="103.255" y="-7"/>
      <point x="91" y="7.29774"/>
      <point x="91" y="35" type="curve" smooth="yes"/>
      <point x="91" y="389" type="line"/>
      <point x="61.0554" y="389"/>
      <point x="42.4706" y="402.478"/>
      <point x="42.4706" y="424.194" type="curve" smooth="yes"/>
      <point x="42.4706" y="445.719"/>
      <point x="60.5435" y="461"/>
      <point x="86" y="461" type="curve" smooth="yes"/>
      <point x="520" y="461" type="line" smooth="yes"/>
      <point x="548.43" y="461"/>
      <point x="563" y="448.591"/>
      <point x="563" y="424.379" type="curve" smooth="yes"/>
      <point x="563" y="399.773"/>
      <point x="548.384" y="389"/>
      <point x="515" y="389" type="curve"/>
      <point x="515" y="117" type="line" smooth="yes"/>
      <point x="515" y="32.23"/>
      <point x="605" y="105.64"/>
      <point x="605" y="39.0776" type="curve" smooth="yes"/>
      <point x="605" y="11.7819"/>
      <point x="589.841" y="-0"/>
      <point x="554.721" y="-0" type="curve" smooth="yes"/>
      <point x="470.497" y="-0"/>
      <point x="440" y="34.5589"/>
      <point x="440" y="130" type="curve" smooth="yes"/>
    </contour>
  </outline>
</glyph>
<glyph name="sigma1" format="1">
  <advance width="531"/>
  <unicode hex="03C2"/>
  <outline>
    <contour>
      <point x="492" y="-48.5502" type="curve" smooth="yes"/>
      <point x="492" y="-118.179"/>
      <point x="454.334" y="-179"/>
      <point x="411.212" y="-179" type="curve" smooth="yes"/>
      <point x="391.135" y="-179"/>
      <point x="374" y="-163.972"/>
      <point x="374" y="-146.363" type="curve" smooth="yes"/>
      <point x="374" y="-120.157"/>
      <point x="420" y="-96.6812"/>
      <point x="420" y="-62.6997" type="curve" smooth="yes"/>
      <point x="420" y="-44.9855"/>
      <point x="410.136" y="-27.1414"/>
      <point x="396.705" y="-20.5605" type="curve" smooth="yes"/>
      <point x="381.769" y="-13.242"/>
      <point x="325.88" y="-7"/>
      <point x="275.288" y="-7" type="curve" smooth="yes"/>
      <point x="132.342" y="-7"/>
      <point x="46" y="74.098"/>
      <point x="46" y="208.362" type="curve" smooth="yes"/>
      <point x="46" y="359.48"/>
      <point x="194.737" y="468"/>
      <point x="401.86" y="468" type="curve" smooth="yes"/>
      <point x="463.63" y="468"/>
      <point x="491.04" y="456.294"/>
      <point x="491.04" y="429.915" type="curve" smooth="yes"/>
      <point x="491.04" y="404.939"/>
      <point x="467.098" y="395"/>
      <point x="406.93" y="395" type="curve" smooth="yes"/>
      <point x="239.282" y="395"/>
      <point x="119" y="316.398"/>
      <point x="119" y="206.845" type="curve" smooth="yes"/>
      <point x="119" y="113.305"/>
      <point x="186.946" y="66"/>
      <point x="321.302" y="66" type="curve" smooth="yes"/>
      <point x="373.497" y="66"/>
      <point x="492" y="72.8695"/>
    </contour>
  </outline>
</glyph>
<glyph name="tau" format="1">
  <advance width="520"/>
  <unicode hex="03C4"/>
  <outline>
    <contour>
      <point x="215" y="389" type="line"/>
      <point x="64" y="389" type="line" smooth="yes"/>
      <point x="38.7025" y="389"/>
      <point x="20.4706" y="404.078"/>
      <point x="20.4706" y="425" type="curve" smooth="yes"/>
      <point x="20.4706" y="445.922"/>
      <point x="38.7025" y="461"/>
      <point x="64" y="461" type="curve" smooth="yes"/>
      <point x="445" y="461" type="line" smooth="yes"/>
      <point x="473.338" y="461"/>
      <point x="488" y="448.725"/>
      <point x="488" y="425" type="curve" smooth="yes"/>
      <point x="488" y="401.275"/>
      <point x="473.338" y="389"/>
      <point x="445" y="389" type="curve" smooth="yes"/>
      <point x="287" y="389" type="line"/>
      <point x="287" y="117" type="line" smooth="yes"/>
      <point x="287" y="99.0557"/>
      <point x="290.913" y="87.2597"/>
      <point x="298.92" y="81.0618" type="curve" smooth="yes"/>
      <point x="326.802" y="59.4811"/>
      <point x="417.002" y="90.8572"/>
      <point x="417.002" y="38.7777" type="curve" smooth="yes"/>
      <point x="417.002" y="11.049"/>
      <point x="391.744" y="-1.24252"/>
      <point x="334.763" y="-1.24252" type="curve" smooth="yes"/>
      <point x="245.532" y="-1.24252"/>
      <point x="215" y="32.2163"/>
      <point x="215" y="130" type="curve" smooth="yes"/>
    </contour>
  </outline>
</glyph>
<glyph name="upsilon" format="1">
  <advance width="626"/>
  <unicode hex="03C5"/>
  <outline>
    <contour>
      <point x="70" y="178" type="curve" smooth="yes"/>
      <point x="70" y="426" type="line" smooth="yes"/>
      <point x="70" y="453.162"/>
      <point x="82.7184" y="468"/>
      <point x="106" y="468" type="curve" smooth="yes"/>
      <point x="129.282" y="468"/>
      <point x="142" y="453.162"/>
      <point x="142" y="426" type="curve" smooth="yes"/>
      <point x="142" y="181" type="line" smooth="yes"/>
      <point x="142" y="99.16"/>
      <point x="177.428" y="71.6982"/>
      <point x="283.008" y="71.6982" type="curve" smooth="yes"/>
      <point x="325.046" y="71.6982"/>
      <point x="430.899" y="69.6148"/>
      <point x="462.577" y="93.8904" type="curve" smooth="yes"/>
      <point x="478.375" y="105.997"/>
      <point x="485" y="131.735"/>
      <point x="485" y="181" type="curve" smooth="yes"/>
      <point x="485" y="426" type="line" smooth="yes"/>
      <point x="485" y="453.162"/>
      <point x="497.718" y="468"/>
      <point x="521" y="468" type="curve" smooth="yes"/>
      <point x="544.282" y="468"/>
      <point x="557" y="453.162"/>
      <point x="557" y="426" type="curve" smooth="yes"/>
      <point x="557" y="178" type="line" smooth="yes"/>
      <point x="557" y="43.695"/>
      <point x="501.813" y="-0"/>
      <point x="332.183" y="-0" type="curve" smooth="yes"/>
      <point x="138.644" y="-0"/>
      <point x="70" y="46.6036"/>
    </contour>
  </outline>
</glyph>
<glyph name="phi" format="1">
  <advance width="666"/>
  <unicode hex="03C6"/>
  <outline>
    <contour>
      <point x="460.063" y="461" type="curve" smooth="yes"/>
      <point x="563.76" y="461"/>
      <point x="604" y="411.238"/>
      <point x="604" y="283" type="curve" smooth="yes"/>
      <point x="604" y="178" type="line" smooth="yes"/>
      <point x="604" y="49.5972"/>
      <point x="538.921" y="-0.120139"/>
      <point x="371" y="0" type="curve"/>
      <point x="371" y="-137" type="line" smooth="yes"/>
      <point x="371" y="-166.694"/>
      <point x="357.735" y="-182"/>
      <point x="332" y="-182" type="curve" smooth="yes"/>
      <point x="306.265" y="-182"/>
      <point x="293" y="-166.694"/>
      <point x="293" y="-137" type="curve" smooth="yes"/>
      <point x="293" y="0" type="line"/>
      <point x="132.371" y="4.22198"/>
      <point x="62" y="58.4469"/>
      <point x="62" y="178" type="curve" smooth="yes"/>
      <point x="62" y="303" type="line" smooth="yes"/>
      <point x="62" y="403.128"/>
      <point x="111.514" y="461"/>
      <point x="197.181" y="461" type="curve" smooth="yes"/>
      <point x="234.322" y="461"/>
      <point x="252" y="449.206"/>
      <point x="252" y="424.428" type="curve" smooth="yes"/>
      <point x="252" y="386.212"/>
      <point x="210.589" y="389"/>
      <point x="199.045" y="389" type="curve" smooth="yes"/>
      <point x="160.175" y="389"/>
      <point x="134" y="347.954"/>
      <point x="134" y="287" type="curve" smooth="yes"/>
      <point x="134" y="190" type="line" smooth="yes"/>
      <point x="134" y="101.823"/>
      <point x="170.775" y="74.531"/>
      <point x="293" y="72" type="curve"/>
      <point x="293" y="201" type="line" smooth="yes"/>
      <point x="293" y="321.369"/>
      <point x="289.437" y="461"/>
    </contour>
    <contour>
      <point x="463.585" y="389" type="curve" smooth="yes"/>
      <point x="366.506" y="389"/>
      <point x="371" y="279.441"/>
      <point x="371" y="217" type="curve" smooth="yes"/>
      <point x="371" y="72" type="line"/>
      <point x="500.098" y="71.8655"/>
      <point x="532" y="95.247"/>
      <point x="532" y="190" type="curve" smooth="yes"/>
      <point x="532" y="271" type="line" smooth="yes"/>
      <point x="532" y="332.998"/>
      <point x="517.684" y="376.552"/>
      <point x="494.413" y="385.357" type="curve" smooth="yes"/>
      <point x="483.955" y="389.314"/>
      <point x="468.783" y="389"/>
    </contour>
  </outline>
</glyph>
<glyph name="psi" format="1">
  <advance width="630"/>
  <unicode hex="03C8"/>
  <outline>
    <contour>
      <point x="533.767" y="468" type="curve" smooth="yes"/>
      <point x="555.463" y="468"/>
      <point x="567" y="454.114"/>
      <point x="567" y="428" type="curve" smooth="yes"/>
      <point x="567" y="228" type="line" smooth="yes"/>
      <point x="567" y="99.2225"/>
      <point x="484.214" y="9.12074"/>
      <point x="352" y="-6" type="curve"/>
      <point x="352" y="-98" type="line" smooth="yes"/>
      <point x="352" y="-125.703"/>
      <point x="339.746" y="-140"/>
      <point x="316" y="-140" type="curve" smooth="yes"/>
      <point x="292.254" y="-140"/>
      <point x="280" y="-125.703"/>
      <point x="280" y="-98" type="curve" smooth="yes"/>
      <point x="280" y="-7" type="line"/>
      <point x="145.583" y="8.05427"/>
      <point x="63" y="97.488"/>
      <point x="63" y="228" type="curve" smooth="yes"/>
      <point x="63" y="428" type="line" smooth="yes"/>
      <point x="63" y="451.667"/>
      <point x="78.5474" y="468.441"/>
      <point x="100.484" y="468.441" type="curve" smooth="yes"/>
      <point x="206.765" y="468.441"/>
      <point x="22.0427" y="98.0506"/>
      <point x="280" y="65" type="curve"/>
      <point x="280" y="551" type="line" smooth="yes"/>
      <point x="280" y="579.338"/>
      <point x="292.275" y="594"/>
      <point x="316" y="594" type="curve" smooth="yes"/>
      <point x="339.725" y="594"/>
      <point x="352" y="579.338"/>
      <point x="352" y="551" type="curve" smooth="yes"/>
      <point x="352" y="66" type="line"/>
      <point x="608.473" y="102.525"/>
      <point x="421.526" y="468"/>
    </contour>
  </outline>
</glyph>
